<?xml version="1.0" standalone="no"?>
<!DOCTYPE svg PUBLIC "-//W3C//DTD SVG 1.1//EN" "http://www.w3.org/Graphics/SVG/1.1/DTD/svg11.dtd" >
<svg xmlns="http://www.w3.org/2000/svg" xmlns:xlink="http://www.w3.org/1999/xlink" version="1.1">
<metadata></metadata>
<defs>
<font id="acryle_script_personal_useRg" horiz-adv-x="1871" >
<font-face units-per-em="2048" ascent="1638" descent="-410" />
<missing-glyph horiz-adv-x="311" />
<glyph unicode="&#xfb01;" horiz-adv-x="499" d="M-706.5 1039q-4.5 38 20.5 65q18 20 79.5 25.5t148.5 -1t191.5 -20.5t211.5 -31q8 33 19 59.5t30 43.5q39 35 110.5 46t153.5 5t164 -28.5t144.5 -55.5t94 -74t11.5 -82q-14 -29 -81 -34t-163 4.5t-213 28t-229 34.5q0 -66 12 -141q61 -14 105 -30.5t80 -23t66.5 4 t67.5 49.5q10 10 32 9t43.5 -10.5t36.5 -24.5t13 -30q-4 -14 -15 -31.5t-26.5 -32.5t-29 -27.5t-19.5 -14.5q-18 -10 -62 3t-95.5 33.5t-102.5 41t-84 26.5q20 -96 52 -200.5t63 -199.5t55.5 -173t32.5 -121q12 -66 -19.5 -116t-69.5 -75.5t-63.5 -22.5t-3.5 40 q25 43 16.5 140.5t-32 222t-52 262t-42.5 260.5q-37 10 -69 14t-60 0q-53 -4 -54.5 18.5t39.5 26.5q23 2 59 -1t81 -9q-4 39 -5.5 73.5t3.5 65.5l-43 6q-127 16 -220.5 6t-156 -32.5t-95 -47t-38.5 -36.5q-12 -18 -34 -2t-38 46.5t-20.5 68.5zM-10 1071q96 -14 186 -25.5 t162 -16.5t117 -1t53 23q12 27 -13.5 52t-70.5 45.5t-105.5 34t-118 15.5t-107.5 -10t-75 -41q-23 -25 -28 -76zM240 517q2 48 12 87t20 47q23 16 53.5 5t43.5 -27q6 -8 5 -27.5t-4 -46.5t-7.5 -56.5t-0.5 -56.5q2 -23 12.5 -34t23 -12t24.5 5.5t22 16.5q18 23 33 49.5 t23 46.5q6 23 23.5 19.5t11.5 -31.5q-8 -29 -20.5 -52.5t-41.5 -58.5q-14 -16 -34.5 -29.5t-46 -17.5t-54.5 0t-55 21q-29 16 -37 60t-6 92z" />
<glyph unicode="&#xfb02;" horiz-adv-x="536" d="M-158 752q-2 43 10.5 73.5t30 36.5t25.5 -31q14 -68 57 -126q-14 80 -22.5 153.5t-6 136t15.5 109.5t42 76q47 41 106.5 40t98.5 -44q18 -20 19 -51t-7 -52.5t-22.5 -23.5t-26.5 32q-10 25 -28.5 44.5t-40 29.5t-42 8t-33.5 -16q-25 -29 -29.5 -84t3.5 -127t27.5 -154 t43.5 -166q41 -20 83 -20t79 29q-8 90 -2 193.5t24.5 206.5t48.5 198.5t68.5 169t86 117.5t100.5 44q43 0 61.5 -51t15.5 -133t-25.5 -183.5t-59.5 -200.5t-86 -186t-105 -141l-12 -12q10 -100 33.5 -167.5t58.5 -71.5q29 -4 58.5 26.5t46.5 79.5q12 39 27.5 31t8.5 -41 q-4 -18 -17 -46t-36.5 -54.5t-57.5 -45t-77 -18.5q-63 2 -100 65.5t-54 165.5q-29 -18 -65.5 -29.5t-79.5 -2.5q41 -131 78 -242t47 -166q12 -66 -19.5 -116t-69.5 -75.5t-63.5 -22.5t-3.5 40q18 33 17.5 96.5t-13 146.5t-33 181t-38.5 199q-51 33 -109 92q-35 37 -37 80z M332 927q-4 -120 4 -227q39 35 72.5 103.5t59.5 149.5t40 164t14 149.5t-15 105.5t-50 31q-37 -8 -63.5 -79t-42 -174t-19.5 -223z" />
<glyph horiz-adv-x="0" />
<glyph unicode="&#xd;" horiz-adv-x="311" />
<glyph horiz-adv-x="0" />
<glyph horiz-adv-x="0" />
<glyph unicode=" "  horiz-adv-x="311" />
<glyph unicode="&#x09;" horiz-adv-x="311" />
<glyph unicode="&#xa0;" horiz-adv-x="311" />
<glyph unicode="!" horiz-adv-x="352" d="M55 365q0 29 24.5 50t59.5 21q39 0 63.5 -21.5t24.5 -49.5q0 -31 -24.5 -54.5t-63.5 -23.5q-35 0 -59.5 23.5t-24.5 54.5zM130 669.5q-1 39.5 0 86.5t4 98t6 94t8.5 74t11.5 39q8 10 29.5 8t44 -11t40 -24.5t21.5 -32.5q2 -16 -13.5 -76.5t-36 -129t-40 -129t-25.5 -76.5 q-12 -31 -27.5 -31t-19.5 53q-2 18 -3 57.5z" />
<glyph unicode="&#x22;" horiz-adv-x="391" d="M51 846q4 31 23.5 46t41 18t41 -6t25.5 -32q8 -29 2 -58.5t-17 -55t-25.5 -45t-22.5 -25.5q-27 -23 -40 -10.5t11 47.5q12 18 7 32.5t-16 29t-21.5 28.5t-8.5 31zM215 846q4 31 23.5 46t41 18t41 -6t25.5 -32q8 -29 2 -58.5t-17.5 -55t-25.5 -45t-22 -25.5 q-27 -23 -40.5 -10.5t11.5 47.5q12 18 7 32.5t-16.5 29t-21.5 28.5t-8 31z" />
<glyph unicode="#" horiz-adv-x="864" d="M82 400.5q2 19.5 13 45t34 41.5q6 4 26.5 10.5t51.5 16.5l6 117q-29 -10 -50.5 -19.5t-31.5 -15.5q-20 -14 -30.5 -5t-8.5 28.5t13 45.5t34 42q6 4 26.5 10t53.5 16q4 78 10.5 141.5t12.5 100.5q10 57 38.5 100t56.5 64.5t45 16.5t3 -42q-12 -33 -31.5 -131t-42.5 -227 q49 12 101.5 24.5t103.5 22.5q4 66 9 120t12 87q10 57 38.5 100t56 64.5t45 16.5t3.5 -42q-12 -31 -30.5 -121t-37.5 -207q39 8 66 13.5t37 5.5q20 0 32.5 -9.5t13.5 -22.5t-9.5 -24.5t-34.5 -13.5q-14 -2 -45 -8t-72 -17q-6 -37 -12 -73.5t-10 -73.5l127 23q20 0 32.5 -9.5 t13.5 -23t-9.5 -24.5t-34.5 -13q-16 -2 -53.5 -10.5t-88.5 -20.5q-14 -106 -24.5 -200.5t-14.5 -157.5q-2 -31 -8 -49.5t-14 -21.5t-13.5 11.5t-3.5 51.5l13 348q-59 -16 -121 -33.5t-115 -36.5q-12 -92 -20 -171t-13 -134q-2 -31 -8 -49.5t-14 -21.5t-13.5 11.5t-2.5 51.5 l10 293q-29 -10 -50.5 -19.5t-31.5 -15.5q-20 -14 -30.5 -5t-8.5 28.5zM276 532l228 52l8 137q-53 -14 -108.5 -29.5t-106.5 -32.5z" />
<glyph unicode="$" horiz-adv-x="1906" d="M35 813q70 37 137.5 67.5t144.5 53.5q4 0 8.5 20.5t8.5 45t8 48t8 31.5q23 35 68 53.5t78 34.5q88 35 179 61.5t183 51.5q94 23 188.5 39t190.5 24q33 4 80 8.5t95 3.5t92 -12.5t71 -37.5q2 -4 -2 -29t-6 -33l-6 -98q0 -4 4 -4q78 -23 152.5 -58.5t123.5 -103.5v-2 q-16 4 -36.5 -3t-41 -20.5t-38 -28t-27.5 -26.5q31 -16 50 -47t27.5 -66.5t6.5 -72.5t-13 -68q-16 43 -49.5 66.5t-74.5 35t-85 14.5t-83 5q-45 4 -94.5 2t-92.5 14q-16 6 -22 25.5t-7 43t2 46.5t5 37q-184 -14 -363.5 -56t-351.5 -102q-8 -2 -8 -6q2 -10 8 -33.5t10 -50.5 t6 -49.5t-6 -28.5q-23 -18 -58.5 -21t-64.5 -7l-157 -25q-35 -8 -67 -17.5t-62 -21.5q-14 -8 -28.5 -13t-29.5 -16q-8 -8 -18 -20t-17 -16q10 35 24.5 67.5t27.5 63.5q2 6 13 25.5t21.5 41t18.5 39t6 21.5q-25 35 -58.5 67.5t-78.5 36.5zM86 -133h47q4 -41 7 -83t12 -83 q4 41 10 83t14 83h37l25 -166q4 41 9 83t9 83h43l-43 -223h-43q-6 37 -11 72.5t-9 70.5q-4 -35 -11.5 -70.5t-13.5 -72.5h-43zM90 819q68 -37 109 -108q2 -2 -4.5 -15.5t-14.5 -29t-15 -28.5t-9 -20q-25 -45 -41 -94q51 27 104 39t108.5 20.5t110 15.5t107.5 24 q-18 18 -47 25t-62 8t-65.5 -2t-55.5 -5v131t4 131q-59 -16 -116.5 -39.5t-112.5 -52.5zM305 -133h45q4 -41 8 -83t11 -83q4 41 10 83t14 83h39l23 -166q4 41 9 83t9 83h43l-43 -223h-41q-8 37 -13 72.5t-9 70.5q-4 -35 -10.5 -70.5t-12.5 -72.5h-45zM342 709q8 0 22.5 6 t29 15t27.5 18.5t23 13.5q37 16 75 29.5t77 27.5q78 23 155.5 43.5t159.5 38.5q78 16 155 31.5t157 21.5q72 8 154.5 11.5t152.5 -29.5q6 55 6 112.5t4 110.5q0 29 2 57.5t6 57.5q2 14 -6 22.5t-20.5 13.5t-26.5 7t-27 4q-119 18 -245.5 1t-245.5 -42q-129 -27 -255 -60.5 t-249 -86.5q-23 -12 -46.5 -24.5t-43.5 -29.5q-20 -16 -24.5 -49t-8.5 -55q-8 -66 -8 -132.5v-133.5zM367 825q0 23 15 38.5t36 19.5q6 2 15 -2t5 -15q-12 -8 -22 -8q-12 -4 -16.5 -16.5t1.5 -22.5q4 -4 8.5 -5t8.5 -3q20 -2 33.5 11.5t22.5 34t13.5 41t8.5 34.5 q-27 -27 -62 -35q-27 -4 -43 12q-16 8 -16 37q0 27 12 51q27 61 86 99q12 6 25.5 12t27.5 10q10 4 21.5 12.5t21.5 10.5q12 -1 6 -13q12 0 21 -2q16 -2 27.5 -15t13.5 -32q6 -43 -23.5 -83t-66.5 -62q-18 -12 -27.5 -31.5t-18.5 -39t-20.5 -38t-34.5 -28.5q-23 -16 -53 -11 q-12 4 -20 14.5t-6 24.5zM405.5 937q2.5 -15 22.5 -15q31 0 49.5 19.5t30.5 47t18.5 58.5t10.5 51q-29 -6 -52.5 -23.5t-44.5 -38.5q-6 -6 -15 -25.5t-15.5 -39t-4 -34.5zM522 -133h45l19 -166q4 41 10 83t14 83h39l25 -166q2 41 7 83t11 83h41l-41 -223h-43q-8 37 -12 73.5 t-10 73.5q-4 -37 -10.5 -73.5t-12.5 -73.5h-43zM530 950q14 4 29.5 19.5t26 35t14.5 40t0 34.5q-6 23 -33 23q-14 -37 -20.5 -75t-16.5 -77zM582 138q2 34 2 61q0 20 -1 38.5t1 38.5q0 49 26.5 67.5t73.5 18.5q37 0 54.5 -20t23.5 -50t4 -63.5t-2 -60.5v-80 q0 -47 -26.5 -66.5t-71.5 -17.5q-39 0 -56.5 20.5t-23.5 50t-4 63.5zM628 952.5q-5 20.5 6 46t31.5 46t43.5 22.5q12 0 16 -10q8 -12 2 -29q-6 -23 -27.5 -40t-44.5 -21q2 -12 10.5 -13.5t17.5 3t17.5 10.5t12.5 10q25 20 36 46t21 52q2 2 -1 9.5t-8 15.5t-8 17t-1 16 q10 27 34 22q12 0 17 -12q4 -10 2 -22.5t-2 -24.5q20 2 28.5 -1t-4.5 -28q-8 -16 -17 -33.5t-11 -36.5q0 -10 6 -10q20 0 34.5 20.5t26 46t22.5 51t25 34.5q8 2 17 -2q2 -4 2 -13q-4 -12 -10.5 -21t-1.5 -24q6 -12 13 -25.5t5 -27.5h2q20 25 32.5 60.5t45.5 52.5 q37 14 49 -21q10 -14 6 -25.5t-2 -27.5q8 2 14 10q16 12 18.5 35t8.5 41q4 4 11 5t12 -1q10 -2 8 -12v-2q10 10 24 16q10 6 17.5 2t11.5 -14q4 -12 1 -22.5t-8 -21.5t-10 -22.5t-3 -23.5q14 12 24 26.5t18.5 29.5t17.5 28.5t26 23.5q20 10 51 0q4 6 17 8.5t9 -14.5 q-4 -18 -14 -38.5t-10 -41.5q0 -14 8 -2q20 20 30.5 48t19.5 55.5t23.5 53t43.5 42.5q14 8 24 -8q12 -23 4 -48.5t-24 -41.5q-14 -18 -43 -44t-25 -53q4 -16 23 -12q14 6 21 19.5t16 25.5q4 2 12 2t8 -10l-4 -12q-16 -39 -53 -54q-25 -14 -43 15q-4 4 -4 10 q-10 -8 -16.5 -15.5t-18.5 -11.5q-10 -4 -16.5 0t-12.5 8q-4 -4 -12 -8t-16 -6q-31 -6 -43 21v2q-8 -10 -17.5 -17.5t-23.5 -11.5q-14 -8 -25 12q-6 12 -3 23.5t8 22t9 21.5t2 23q-18 -8 -25 -19t-11.5 -25.5t-6.5 -29t-8 -28.5q-6 -16 -24 -8q-8 2 -9 10q0 4 1 9t1 7 q-14 -4 -19 -4t-15 -10t-24.5 -18.5t-31.5 -8.5q-10 2 -16 8.5t-10 14.5q-16 -16 -40 -32.5t-50 -12.5q-16 2 -25 18q-25 -29 -51 -36q-29 -12 -33 20q-4 27 8.5 44t22.5 38q2 4 -3 5t-7 -3q-8 -20 -18.5 -44t-26 -45.5t-36 -34.5t-46.5 -11q-31 2 -36 22.5zM638 163 q-1 -38 1 -75q0 -16 9 -26.5t21.5 -14.5t24 1t15.5 24q2 12 2 27.5v29.5v147q0 16 -10.5 27.5t-22.5 16t-23.5 -2t-15.5 -22.5q-2 -14 -1 -29.5t1 -27.5q0 -37 -1 -75zM653 416q12 14 15.5 36.5t2.5 48t-4 49t-3 42.5v125q0 16 1 30.5t-12 28.5h76q-14 -12 -12 -32.5 t2 -36.5v-142q0 -16 -2 -49t10 -47q14 -23 37.5 -8.5t28.5 33.5q8 27 2.5 54t-9.5 54q-4 14 -10 38t-8 48.5t2 46t21 33.5q10 10 31.5 10t29.5 -16q6 -16 -2 -21.5t-18.5 -4.5t-17.5 8.5t1 15.5q-16 -8 -17 -28.5t6 -44t17 -46.5t15 -35q12 -37 17 -87t-22 -85 q-10 -14 -33.5 -19t-50 -5t-53 3t-41.5 3zM655 987q12 -2 28.5 15.5t18.5 27.5q4 8 -2 12.5t-12 -2.5q-10 -10 -18.5 -24.5t-14.5 -28.5zM715 -328q0 14 9 22.5t21.5 8.5t21.5 -8t9 -23q0 -16 -9 -23t-21.5 -7t-21.5 7t-9 23zM776 1124q-2 -8 4 -20h4q0 8 1 13t-1 13 q-6 0 -8 -6zM780 4q10 14 13.5 34.5t2.5 44t-4.5 46.5t-3.5 39v172q0 10 -8 22h58q29 -12 51 -50t35 -66q0 25 2 59.5t-13 56.5h74q-12 -10 -11 -24t1 -29v-246q0 -14 -1 -31.5t11 -27.5h-207zM797 -356l59 223h64l59 -223h-51l-15 51h-53l-10 -51h-53zM844 47 q0 -14 11 -23.5t25.5 -11.5t28 3.5t15.5 19.5q-4 63 -21.5 127.5t-58.5 116.5v-232zM865 506.5q-3 19.5 7 32.5q10 12 33 13t27 -22q0 -10 -7 -15t-15.5 -5t-14.5 4t-6 14q-12 -4 -12 -14t7 -20.5t17 -19.5t17 -11q14 -4 34.5 -4t30.5 10q20 20 16 40.5t-19 38t-35.5 32 t-31.5 24.5q-18 16 -30.5 42t-12.5 52.5t13.5 48t44.5 27.5q27 6 54.5 4t51.5 -2l-6 -10q0 -14 7 -29.5t13.5 -31t5.5 -29.5t-16 -27q-14 -10 -33.5 -9t-21.5 22q0 12 7 17t15.5 5t14.5 -5t4 -13q14 2 14 12t-8 21.5t-18.5 20.5t-18.5 11q-14 4 -32.5 1t-24.5 -19 q-12 -25 -4 -43.5t24.5 -32.5t37 -27.5t32.5 -27.5q14 -20 22.5 -47t4.5 -52.5t-20.5 -44t-47.5 -22.5q-27 -2 -53.5 -1t-54.5 1q8 4 5 19.5t-8.5 33.5t-8.5 37.5zM866 -266h41q-4 23 -9 46t-11 46zM874 1014q4 -12 16.5 -10t14.5 14q2 18 -10 43q-6 -8 -14.5 -22.5 t-6.5 -24.5zM991 1059l4 -15q10 -14 25 -6q16 4 23.5 21.5t3.5 34.5q-2 10 -9.5 16t-21.5 -4q-20 -14 -25 -47zM997 4q12 14 15.5 36.5t2.5 47.5t-4 48.5t-3 39.5v127q0 16 1 29.5t-12 29.5h76q-10 -10 -13 -30.5t-2 -42t3 -43t2 -35.5v-166h104q23 0 55.5 -3t55.5 13 q-4 -8 -7 -29.5t-14 -21.5h-260zM1006 -135q29 4 64.5 6t62.5 -14q31 -23 22.5 -58t-37.5 -49q14 -6 21.5 -19.5t10.5 -28.5t5 -30.5t8 -27.5h-51q-6 12 -8 27.5t-6 28.5t-12.5 22.5t-26.5 7.5v-86h-53v221zM1057 -196.5q2 -24.5 2 -34.5h12q18 0 26.5 10t6.5 22.5 t-11.5 21.5t-27.5 7q-10 -2 -8 -26.5zM1065 416q10 12 11 25.5t1 27.5v248q0 14 -1 30.5t-11 28.5h127q25 -25 25.5 -59.5t-9.5 -67.5q-4 -8 -15 -29.5t-20.5 -45t-11.5 -45t10 -27.5q-6 12 4.5 13t21.5 -4t14 -14.5t-17 -17.5q-25 -10 -35 9.5t-8 35.5q0 16 6 32.5t8 31 t-4 22.5t-28 6v-155q16 0 41.5 -3t44.5 11q-6 -14 -8.5 -26.5t-6.5 -26.5h-139zM1098 362h78q-12 -29 2 -65.5t26 -60.5q12 29 22.5 62.5t0.5 63.5h80q-23 -12 -27 -38.5t-10 -47.5q-6 -20 -23.5 -47.5t-17.5 -48.5q0 -23 -3 -56.5t13 -51.5h-76q18 18 14.5 53.5t-3.5 58.5 q-12 23 -21.5 46.5t-17.5 45.5q-10 23 -14.5 46.5t-22.5 39.5zM1133 662q20 0 45.5 2t27.5 32q0 16 -7 23.5t-18.5 10.5t-24.5 3h-23v-71zM1192 -133h53v-223h-53v223zM1245 1092q-4 -10 1 -27.5t22 -3.5q12 12 21 33t11 39q-2 8 -4 13t-12 1q-16 -8 -25.5 -23.5 t-13.5 -31.5zM1274 -328q0 14 9 22.5t21.5 8.5t21.5 -8t9 -23q0 -16 -9 -23t-21.5 -7t-21.5 7t-9 23zM1294 813q-8 -6 4 -8q27 -10 57.5 -13.5t62.5 -3.5h62.5t59.5 -2t57.5 -5t57.5 -13q29 -8 51.5 -23.5t48.5 -27.5q0 61 -21.5 106t-80.5 68q35 31 69.5 58.5t75.5 43.5 q-49 47 -110.5 77t-126.5 46q-2 -57 -3.5 -112.5t-5.5 -112.5l-2 2v-6q-27 -2 -64.5 -4t-74.5 -9.5t-68.5 -21.5t-48.5 -39zM1364 -133h57l68 -152q-4 39 -4 77v75h47v-223h-51q-20 39 -37 78.5t-35 76.5q2 -39 2 -77.5v-77.5h-47v223zM1393 1157q16 20 31.5 40t19.5 46h-2 q-37 -37 -49 -86zM1562.5 -268q-8.5 37 14.5 80q12 29 40 43t62 14h10.5t17.5 -2t16.5 -4t7.5 -4l-9 -41q-27 12 -48 8t-36.5 -18.5t-20.5 -37t3 -46.5q16 -47 61 -41q10 2 8.5 21.5t-1.5 27.5h-27v41h76v-121q-41 -16 -79 -9t-62.5 29.5t-33 59.5z" />
<glyph unicode="%" d="M35 813q70 37 137.5 67.5t144.5 53.5q4 0 8.5 20.5t8.5 45t8 48t8 31.5q23 35 68 53.5t78 34.5q88 35 179 61.5t183 51.5q94 23 188.5 39t190.5 24q33 4 80 8.5t95 3.5t92 -12.5t71 -37.5q2 -4 -2 -29t-6 -33l-6 -98q0 -4 4 -4q78 -23 152.5 -58.5t123.5 -103.5v-2 q-16 4 -36.5 -3t-41 -20.5t-38 -28t-27.5 -26.5q31 -16 50 -47t27.5 -66.5t6.5 -72.5t-13 -68q-16 43 -49.5 66.5t-74.5 35t-85 14.5t-83 5q-45 4 -94.5 2t-92.5 14q-16 6 -22 25.5t-7 43t2 46.5t5 37q-184 -14 -363.5 -56t-351.5 -102q-8 -2 -8 -6q2 -10 8 -33.5t10 -50.5 t6 -49.5t-6 -28.5q-23 -18 -58.5 -21t-64.5 -7l-157 -25q-35 -8 -67 -17.5t-62 -21.5q-14 -8 -28.5 -13t-29.5 -16q-8 -8 -18 -20t-17 -16q10 35 24.5 67.5t27.5 63.5q2 6 13 25.5t21.5 41t18.5 39t6 21.5q-25 35 -58.5 67.5t-78.5 36.5zM86 -133h47q4 -41 7 -83t12 -83 q4 41 10 83t14 83h37l25 -166q4 41 9 83t9 83h43l-43 -223h-43q-6 37 -11 72.5t-9 70.5q-4 -35 -11.5 -70.5t-13.5 -72.5h-43zM90 819q68 -37 109 -108q2 -2 -4.5 -15.5t-14.5 -29t-15 -28.5t-9 -20q-25 -45 -41 -94q51 27 104 39t108.5 20.5t110 15.5t107.5 24 q-18 18 -47 25t-62 8t-65.5 -2t-55.5 -5v131t4 131q-59 -16 -116.5 -39.5t-112.5 -52.5zM305 -133h45q4 -41 8 -83t11 -83q4 41 10 83t14 83h39l23 -166q4 41 9 83t9 83h43l-43 -223h-41q-8 37 -13 72.5t-9 70.5q-4 -35 -10.5 -70.5t-12.5 -72.5h-45zM342 709q8 0 22.5 6 t29 15t27.5 18.5t23 13.5q37 16 75 29.5t77 27.5q78 23 155.5 43.5t159.5 38.5q78 16 155 31.5t157 21.5q72 8 154.5 11.5t152.5 -29.5q6 55 6 112.5t4 110.5q0 29 2 57.5t6 57.5q2 14 -6 22.5t-20.5 13.5t-26.5 7t-27 4q-119 18 -245.5 1t-245.5 -42q-129 -27 -255 -60.5 t-249 -86.5q-23 -12 -46.5 -24.5t-43.5 -29.5q-20 -16 -24.5 -49t-8.5 -55q-8 -66 -8 -132.5v-133.5zM367 825q0 23 15 38.5t36 19.5q6 2 15 -2t5 -15q-12 -8 -22 -8q-12 -4 -16.5 -16.5t1.5 -22.5q4 -4 8.5 -5t8.5 -3q20 -2 33.5 11.5t22.5 34t13.5 41t8.5 34.5 q-27 -27 -62 -35q-27 -4 -43 12q-16 8 -16 37q0 27 12 51q27 61 86 99q12 6 25.5 12t27.5 10q10 4 21.5 12.5t21.5 10.5q12 -1 6 -13q12 0 21 -2q16 -2 27.5 -15t13.5 -32q6 -43 -23.5 -83t-66.5 -62q-18 -12 -27.5 -31.5t-18.5 -39t-20.5 -38t-34.5 -28.5q-23 -16 -53 -11 q-12 4 -20 14.5t-6 24.5zM405.5 937q2.5 -15 22.5 -15q31 0 49.5 19.5t30.5 47t18.5 58.5t10.5 51q-29 -6 -52.5 -23.5t-44.5 -38.5q-6 -6 -15 -25.5t-15.5 -39t-4 -34.5zM522 -133h45l19 -166q4 41 10 83t14 83h39l25 -166q2 41 7 83t11 83h41l-41 -223h-43q-8 37 -12 73.5 t-10 73.5q-4 -37 -10.5 -73.5t-12.5 -73.5h-43zM530 950q14 4 29.5 19.5t26 35t14.5 40t0 34.5q-6 23 -33 23q-14 -37 -20.5 -75t-16.5 -77zM582 138q2 34 2 61q0 20 -1 38.5t1 38.5q0 49 26.5 67.5t73.5 18.5q37 0 54.5 -20t23.5 -50t4 -63.5t-2 -60.5v-80 q0 -47 -26.5 -66.5t-71.5 -17.5q-39 0 -56.5 20.5t-23.5 50t-4 63.5zM628 952.5q-5 20.5 6 46t31.5 46t43.5 22.5q12 0 16 -10q8 -12 2 -29q-6 -23 -27.5 -40t-44.5 -21q2 -12 10.5 -13.5t17.5 3t17.5 10.5t12.5 10q25 20 36 46t21 52q2 2 -1 9.5t-8 15.5t-8 17t-1 16 q10 27 34 22q12 0 17 -12q4 -10 2 -22.5t-2 -24.5q20 2 28.5 -1t-4.5 -28q-8 -16 -17 -33.5t-11 -36.5q0 -10 6 -10q20 0 34.5 20.5t26 46t22.5 51t25 34.5q8 2 17 -2q2 -4 2 -13q-4 -12 -10.5 -21t-1.5 -24q6 -12 13 -25.5t5 -27.5h2q20 25 32.5 60.5t45.5 52.5 q37 14 49 -21q10 -14 6 -25.5t-2 -27.5q8 2 14 10q16 12 18.5 35t8.5 41q4 4 11 5t12 -1q10 -2 8 -12v-2q10 10 24 16q10 6 17.5 2t11.5 -14q4 -12 1 -22.5t-8 -21.5t-10 -22.5t-3 -23.5q14 12 24 26.5t18.5 29.5t17.5 28.5t26 23.5q20 10 51 0q4 6 17 8.5t9 -14.5 q-4 -18 -14 -38.5t-10 -41.5q0 -14 8 -2q20 20 30.5 48t19.5 55.5t23.5 53t43.5 42.5q14 8 24 -8q12 -23 4 -48.5t-24 -41.5q-14 -18 -43 -44t-25 -53q4 -16 23 -12q14 6 21 19.5t16 25.5q4 2 12 2t8 -10l-4 -12q-16 -39 -53 -54q-25 -14 -43 15q-4 4 -4 10 q-10 -8 -16.5 -15.5t-18.5 -11.5q-10 -4 -16.5 0t-12.5 8q-4 -4 -12 -8t-16 -6q-31 -6 -43 21v2q-8 -10 -17.5 -17.5t-23.5 -11.5q-14 -8 -25 12q-6 12 -3 23.5t8 22t9 21.5t2 23q-18 -8 -25 -19t-11.5 -25.5t-6.5 -29t-8 -28.5q-6 -16 -24 -8q-8 2 -9 10q0 4 1 9t1 7 q-14 -4 -19 -4t-15 -10t-24.5 -18.5t-31.5 -8.5q-10 2 -16 8.5t-10 14.5q-16 -16 -40 -32.5t-50 -12.5q-16 2 -25 18q-25 -29 -51 -36q-29 -12 -33 20q-4 27 8.5 44t22.5 38q2 4 -3 5t-7 -3q-8 -20 -18.5 -44t-26 -45.5t-36 -34.5t-46.5 -11q-31 2 -36 22.5zM638 163 q-1 -38 1 -75q0 -16 9 -26.5t21.5 -14.5t24 1t15.5 24q2 12 2 27.5v29.5v147q0 16 -10.5 27.5t-22.5 16t-23.5 -2t-15.5 -22.5q-2 -14 -1 -29.5t1 -27.5q0 -37 -1 -75zM653 416q12 14 15.5 36.5t2.5 48t-4 49t-3 42.5v125q0 16 1 30.5t-12 28.5h76q-14 -12 -12 -32.5 t2 -36.5v-142q0 -16 -2 -49t10 -47q14 -23 37.5 -8.5t28.5 33.5q8 27 2.5 54t-9.5 54q-4 14 -10 38t-8 48.5t2 46t21 33.5q10 10 31.5 10t29.5 -16q6 -16 -2 -21.5t-18.5 -4.5t-17.5 8.5t1 15.5q-16 -8 -17 -28.5t6 -44t17 -46.5t15 -35q12 -37 17 -87t-22 -85 q-10 -14 -33.5 -19t-50 -5t-53 3t-41.5 3zM655 987q12 -2 28.5 15.5t18.5 27.5q4 8 -2 12.5t-12 -2.5q-10 -10 -18.5 -24.5t-14.5 -28.5zM715 -328q0 14 9 22.5t21.5 8.5t21.5 -8t9 -23q0 -16 -9 -23t-21.5 -7t-21.5 7t-9 23zM776 1124q-2 -8 4 -20h4q0 8 1 13t-1 13 q-6 0 -8 -6zM780 4q10 14 13.5 34.5t2.5 44t-4.5 46.5t-3.5 39v172q0 10 -8 22h58q29 -12 51 -50t35 -66q0 25 2 59.5t-13 56.5h74q-12 -10 -11 -24t1 -29v-246q0 -14 -1 -31.5t11 -27.5h-207zM797 -356l59 223h64l59 -223h-51l-15 51h-53l-10 -51h-53zM844 47 q0 -14 11 -23.5t25.5 -11.5t28 3.5t15.5 19.5q-4 63 -21.5 127.5t-58.5 116.5v-232zM865 506.5q-3 19.5 7 32.5q10 12 33 13t27 -22q0 -10 -7 -15t-15.5 -5t-14.5 4t-6 14q-12 -4 -12 -14t7 -20.5t17 -19.5t17 -11q14 -4 34.5 -4t30.5 10q20 20 16 40.5t-19 38t-35.5 32 t-31.5 24.5q-18 16 -30.5 42t-12.5 52.5t13.5 48t44.5 27.5q27 6 54.5 4t51.5 -2l-6 -10q0 -14 7 -29.5t13.5 -31t5.5 -29.5t-16 -27q-14 -10 -33.5 -9t-21.5 22q0 12 7 17t15.5 5t14.5 -5t4 -13q14 2 14 12t-8 21.5t-18.5 20.5t-18.5 11q-14 4 -32.5 1t-24.5 -19 q-12 -25 -4 -43.5t24.5 -32.5t37 -27.5t32.5 -27.5q14 -20 22.5 -47t4.5 -52.5t-20.5 -44t-47.5 -22.5q-27 -2 -53.5 -1t-54.5 1q8 4 5 19.5t-8.5 33.5t-8.5 37.5zM866 -266h41q-4 23 -9 46t-11 46zM874 1014q4 -12 16.5 -10t14.5 14q2 18 -10 43q-6 -8 -14.5 -22.5 t-6.5 -24.5zM991 1059l4 -15q10 -14 25 -6q16 4 23.5 21.5t3.5 34.5q-2 10 -9.5 16t-21.5 -4q-20 -14 -25 -47zM997 4q12 14 15.5 36.5t2.5 47.5t-4 48.5t-3 39.5v127q0 16 1 29.5t-12 29.5h76q-10 -10 -13 -30.5t-2 -42t3 -43t2 -35.5v-166h104q23 0 55.5 -3t55.5 13 q-4 -8 -7 -29.5t-14 -21.5h-260zM1006 -135q29 4 64.5 6t62.5 -14q31 -23 22.5 -58t-37.5 -49q14 -6 21.5 -19.5t10.5 -28.5t5 -30.5t8 -27.5h-51q-6 12 -8 27.5t-6 28.5t-12.5 22.5t-26.5 7.5v-86h-53v221zM1057 -196.5q2 -24.5 2 -34.5h12q18 0 26.5 10t6.5 22.5 t-11.5 21.5t-27.5 7q-10 -2 -8 -26.5zM1065 416q10 12 11 25.5t1 27.5v248q0 14 -1 30.5t-11 28.5h127q25 -25 25.5 -59.5t-9.5 -67.5q-4 -8 -15 -29.5t-20.5 -45t-11.5 -45t10 -27.5q-6 12 4.5 13t21.5 -4t14 -14.5t-17 -17.5q-25 -10 -35 9.5t-8 35.5q0 16 6 32.5t8 31 t-4 22.5t-28 6v-155q16 0 41.5 -3t44.5 11q-6 -14 -8.5 -26.5t-6.5 -26.5h-139zM1098 362h78q-12 -29 2 -65.5t26 -60.5q12 29 22.5 62.5t0.5 63.5h80q-23 -12 -27 -38.5t-10 -47.5q-6 -20 -23.5 -47.5t-17.5 -48.5q0 -23 -3 -56.5t13 -51.5h-76q18 18 14.5 53.5t-3.5 58.5 q-12 23 -21.5 46.5t-17.5 45.5q-10 23 -14.5 46.5t-22.5 39.5zM1133 662q20 0 45.5 2t27.5 32q0 16 -7 23.5t-18.5 10.5t-24.5 3h-23v-71zM1192 -133h53v-223h-53v223zM1245 1092q-4 -10 1 -27.5t22 -3.5q12 12 21 33t11 39q-2 8 -4 13t-12 1q-16 -8 -25.5 -23.5 t-13.5 -31.5zM1274 -328q0 14 9 22.5t21.5 8.5t21.5 -8t9 -23q0 -16 -9 -23t-21.5 -7t-21.5 7t-9 23zM1294 813q-8 -6 4 -8q27 -10 57.5 -13.5t62.5 -3.5h62.5t59.5 -2t57.5 -5t57.5 -13q29 -8 51.5 -23.5t48.5 -27.5q0 61 -21.5 106t-80.5 68q35 31 69.5 58.5t75.5 43.5 q-49 47 -110.5 77t-126.5 46q-2 -57 -3.5 -112.5t-5.5 -112.5l-2 2v-6q-27 -2 -64.5 -4t-74.5 -9.5t-68.5 -21.5t-48.5 -39zM1364 -133h57l68 -152q-4 39 -4 77v75h47v-223h-51q-20 39 -37 78.5t-35 76.5q2 -39 2 -77.5v-77.5h-47v223zM1393 1157q16 20 31.5 40t19.5 46h-2 q-37 -37 -49 -86zM1562.5 -268q-8.5 37 14.5 80q12 29 40 43t62 14h10.5t17.5 -2t16.5 -4t7.5 -4l-9 -41q-27 12 -48 8t-36.5 -18.5t-20.5 -37t3 -46.5q16 -47 61 -41q10 2 8.5 21.5t-1.5 27.5h-27v41h76v-121q-41 -16 -79 -9t-62.5 29.5t-33 59.5z" />
<glyph unicode="&#x26;" horiz-adv-x="1142" d="M-25.5 45q7.5 53 40 122t85 148.5t108.5 165.5t111.5 174t96.5 170q-106 115 -152.5 207t-48.5 161t29.5 112t80 60t101.5 8t96 -44q43 -37 54.5 -90t1 -118.5t-40 -140.5t-68.5 -151q45 -45 101.5 -95t127.5 -107q68 61 134.5 112.5t131 80t124 28.5t110.5 -41 q37 -31 45 -65.5t-1 -67.5t-28.5 -59.5t-38 -42t-30.5 -13.5t-4 27q16 49 -4.5 95t-74.5 60.5t-137 -15.5t-194 -128q133 -109 203 -223.5t92.5 -225t5 -211t-59.5 -181.5t-101.5 -136t-118.5 -74q-78 -25 -138.5 5t-97.5 72t-44 75t24 16q59 -35 136 -14.5t146.5 79 t117.5 148.5t52 196.5t-51 221.5t-195 225q-29 -27 -56.5 -57.5t-55.5 -64.5q-133 -160 -227.5 -269.5t-163 -169t-116.5 -71t-85 23.5q-31 29 -23.5 82zM158 176q25 -33 75 -3t117.5 96.5t149.5 154.5t168 172q-131 104 -219 195q-53 -102 -114 -202t-107 -182.5t-68 -144 t-2 -86.5zM279.5 1121q5.5 -42 40 -105.5t114.5 -149.5q39 92 48.5 169t-31.5 132q-20 27 -52 39.5t-61 7t-46.5 -28t-12 -64.5z" />
<glyph unicode="'" horiz-adv-x="141" d="M12 846q4 31 23.5 46t41 18t41 -6t25.5 -32q8 -29 2 -58.5t-17 -55t-25.5 -45t-22.5 -25.5q-27 -23 -40 -10.5t11 47.5q12 18 7 32.5t-16 29t-21.5 28.5t-8.5 31z" />
<glyph unicode="(" horiz-adv-x="385" d="M54.5 641q11.5 113 78 221.5t201.5 200.5q51 37 81.5 49t42 9t3.5 -19t-35 -39q-80 -68 -134 -167t-76.5 -210t-11.5 -224.5t62 -211.5q43 -84 17.5 -89t-78.5 58q-80 92 -121 200.5t-29.5 221.5z" />
<glyph unicode=")" horiz-adv-x="385" d="M-51 192q8 16 35 39q80 68 134 166.5t76.5 209t11.5 225t-63 212.5q-43 84 -17 89.5t79 -58.5q80 -92 121 -200.5t29.5 -221t-78 -221t-201.5 -201.5q-53 -37 -84 -49t-41 -9t-2 19z" />
<glyph unicode="*" horiz-adv-x="485" d="M71 657.5q5 12.5 19 17.5t35 -1q10 -4 29.5 -11.5t48.5 -17.5q-4 18 -10.5 34.5t-12.5 33.5q-10 25 0 35t28.5 5t41 -22.5t35.5 -44.5q4 -12 8 -39l82 41q18 8 33.5 4t21.5 -14t1 -24.5t-25 -26.5q-12 -6 -29 -16.5t-37 -22.5q29 -14 50.5 -25.5t29.5 -21.5 q16 -23 20 -49.5t-1 -47t-17 -26.5t-27 14q-14 16 -40.5 36.5t-59.5 41.5q-2 -27 -4 -47.5t-2 -34.5q-2 -25 -13.5 -37t-22.5 -11t-20.5 14.5t-9.5 41.5v31.5t-2 36.5q-29 -23 -53.5 -45.5t-34.5 -40.5q-12 -23 -25.5 -17.5t-20.5 24.5t-6 46t15 51q4 10 23.5 24.5 t48.5 31.5q-23 10 -40 17t-28 13q-23 8 -28.5 22.5t-0.5 27z" />
<glyph unicode="+" horiz-adv-x="534" d="M86 512q4 20 19.5 43t39.5 35q10 4 35 6t56 2q-2 20 -6.5 37.5t-8.5 34.5q-8 25 3.5 31t30.5 -0.5t40 -24.5t31 -45q4 -16 4 -37q35 -2 64.5 -4t43.5 -4q20 -4 30.5 -15.5t10.5 -23.5t-12 -22.5t-37 -8.5q-18 0 -47 1t-64 -1l-22 -106q-4 -20 -17.5 -28.5t-25.5 -6.5 t-20.5 14t-4.5 37q4 16 6.5 37.5t2.5 44.5q-35 -4 -66 -10t-51 -17q-23 -10 -31 0.5t-4 30.5z" />
<glyph unicode="," horiz-adv-x="262" d="M63 422q4 31 23.5 46t41.5 18t41 -6t26 -31q8 -29 1.5 -59t-17.5 -55.5t-25.5 -45t-22.5 -25.5q-27 -23 -40 -10.5t11 47.5q12 18 7 32.5t-16 29t-21.5 29t-8.5 30.5z" />
<glyph unicode="-" horiz-adv-x="485" d="M88 480.5q2 19.5 13 45t34 41.5q14 10 44 16.5t63.5 9.5t64.5 5t49 2q20 0 32.5 -9t13.5 -22.5t-9 -25t-35 -13.5q-49 -4 -116.5 -22.5t-114.5 -50.5q-20 -14 -30.5 -5t-8.5 28.5z" />
<glyph unicode="." horiz-adv-x="309" d="M82 426q0 25 20.5 43t51.5 18q33 0 53 -18t20 -43q0 -27 -20.5 -46.5t-52.5 -19.5q-31 0 -51.5 19.5t-20.5 46.5z" />
<glyph unicode="/" horiz-adv-x="413" d="M-21.5 162.5q1.5 15.5 17.5 48.5q14 29 44 87t66.5 132t78.5 155t81 155.5t72.5 135t56.5 93.5q33 49 77 75.5t79 34.5t48 -3t-15 -40q-18 -18 -58.5 -72.5t-91.5 -129t-109.5 -162.5t-112.5 -174t-101.5 -164t-75.5 -133q-14 -27 -28.5 -40.5t-22 -13.5t-6 15.5z" />
<glyph unicode="0" d="M35 813q70 37 137.5 67.5t144.5 53.5q4 0 8.5 20.5t8.5 45t8 48t8 31.5q23 35 68 53.5t78 34.5q88 35 179 61.5t183 51.5q94 23 188.5 39t190.5 24q33 4 80 8.5t95 3.5t92 -12.5t71 -37.5q2 -4 -2 -29t-6 -33l-6 -98q0 -4 4 -4q78 -23 152.5 -58.5t123.5 -103.5v-2 q-16 4 -36.5 -3t-41 -20.5t-38 -28t-27.5 -26.5q31 -16 50 -47t27.5 -66.5t6.5 -72.5t-13 -68q-16 43 -49.5 66.5t-74.5 35t-85 14.5t-83 5q-45 4 -94.5 2t-92.5 14q-16 6 -22 25.5t-7 43t2 46.5t5 37q-184 -14 -363.5 -56t-351.5 -102q-8 -2 -8 -6q2 -10 8 -33.5t10 -50.5 t6 -49.5t-6 -28.5q-23 -18 -58.5 -21t-64.5 -7l-157 -25q-35 -8 -67 -17.5t-62 -21.5q-14 -8 -28.5 -13t-29.5 -16q-8 -8 -18 -20t-17 -16q10 35 24.5 67.5t27.5 63.5q2 6 13 25.5t21.5 41t18.5 39t6 21.5q-25 35 -58.5 67.5t-78.5 36.5zM86 -133h47q4 -41 7 -83t12 -83 q4 41 10 83t14 83h37l25 -166q4 41 9 83t9 83h43l-43 -223h-43q-6 37 -11 72.5t-9 70.5q-4 -35 -11.5 -70.5t-13.5 -72.5h-43zM90 819q68 -37 109 -108q2 -2 -4.5 -15.5t-14.5 -29t-15 -28.5t-9 -20q-25 -45 -41 -94q51 27 104 39t108.5 20.5t110 15.5t107.5 24 q-18 18 -47 25t-62 8t-65.5 -2t-55.5 -5v131t4 131q-59 -16 -116.5 -39.5t-112.5 -52.5zM305 -133h45q4 -41 8 -83t11 -83q4 41 10 83t14 83h39l23 -166q4 41 9 83t9 83h43l-43 -223h-41q-8 37 -13 72.5t-9 70.5q-4 -35 -10.5 -70.5t-12.5 -72.5h-45zM342 709q8 0 22.5 6 t29 15t27.5 18.5t23 13.5q37 16 75 29.5t77 27.5q78 23 155.5 43.5t159.5 38.5q78 16 155 31.5t157 21.5q72 8 154.5 11.5t152.5 -29.5q6 55 6 112.5t4 110.5q0 29 2 57.5t6 57.5q2 14 -6 22.5t-20.5 13.5t-26.5 7t-27 4q-119 18 -245.5 1t-245.5 -42q-129 -27 -255 -60.5 t-249 -86.5q-23 -12 -46.5 -24.5t-43.5 -29.5q-20 -16 -24.5 -49t-8.5 -55q-8 -66 -8 -132.5v-133.5zM367 825q0 23 15 38.5t36 19.5q6 2 15 -2t5 -15q-12 -8 -22 -8q-12 -4 -16.5 -16.5t1.5 -22.5q4 -4 8.5 -5t8.5 -3q20 -2 33.5 11.5t22.5 34t13.5 41t8.5 34.5 q-27 -27 -62 -35q-27 -4 -43 12q-16 8 -16 37q0 27 12 51q27 61 86 99q12 6 25.5 12t27.5 10q10 4 21.5 12.5t21.5 10.5q12 -1 6 -13q12 0 21 -2q16 -2 27.5 -15t13.5 -32q6 -43 -23.5 -83t-66.5 -62q-18 -12 -27.5 -31.5t-18.5 -39t-20.5 -38t-34.5 -28.5q-23 -16 -53 -11 q-12 4 -20 14.5t-6 24.5zM405.5 937q2.5 -15 22.5 -15q31 0 49.5 19.5t30.5 47t18.5 58.5t10.5 51q-29 -6 -52.5 -23.5t-44.5 -38.5q-6 -6 -15 -25.5t-15.5 -39t-4 -34.5zM522 -133h45l19 -166q4 41 10 83t14 83h39l25 -166q2 41 7 83t11 83h41l-41 -223h-43q-8 37 -12 73.5 t-10 73.5q-4 -37 -10.5 -73.5t-12.5 -73.5h-43zM530 950q14 4 29.5 19.5t26 35t14.5 40t0 34.5q-6 23 -33 23q-14 -37 -20.5 -75t-16.5 -77zM582 138q2 34 2 61q0 20 -1 38.5t1 38.5q0 49 26.5 67.5t73.5 18.5q37 0 54.5 -20t23.5 -50t4 -63.5t-2 -60.5v-80 q0 -47 -26.5 -66.5t-71.5 -17.5q-39 0 -56.5 20.5t-23.5 50t-4 63.5zM628 952.5q-5 20.5 6 46t31.5 46t43.5 22.5q12 0 16 -10q8 -12 2 -29q-6 -23 -27.5 -40t-44.5 -21q2 -12 10.5 -13.5t17.5 3t17.5 10.5t12.5 10q25 20 36 46t21 52q2 2 -1 9.5t-8 15.5t-8 17t-1 16 q10 27 34 22q12 0 17 -12q4 -10 2 -22.5t-2 -24.5q20 2 28.5 -1t-4.5 -28q-8 -16 -17 -33.5t-11 -36.5q0 -10 6 -10q20 0 34.5 20.5t26 46t22.5 51t25 34.5q8 2 17 -2q2 -4 2 -13q-4 -12 -10.5 -21t-1.5 -24q6 -12 13 -25.5t5 -27.5h2q20 25 32.5 60.5t45.5 52.5 q37 14 49 -21q10 -14 6 -25.5t-2 -27.5q8 2 14 10q16 12 18.5 35t8.5 41q4 4 11 5t12 -1q10 -2 8 -12v-2q10 10 24 16q10 6 17.5 2t11.5 -14q4 -12 1 -22.5t-8 -21.5t-10 -22.5t-3 -23.5q14 12 24 26.5t18.5 29.5t17.5 28.5t26 23.5q20 10 51 0q4 6 17 8.5t9 -14.5 q-4 -18 -14 -38.5t-10 -41.5q0 -14 8 -2q20 20 30.5 48t19.5 55.5t23.5 53t43.5 42.5q14 8 24 -8q12 -23 4 -48.5t-24 -41.5q-14 -18 -43 -44t-25 -53q4 -16 23 -12q14 6 21 19.5t16 25.5q4 2 12 2t8 -10l-4 -12q-16 -39 -53 -54q-25 -14 -43 15q-4 4 -4 10 q-10 -8 -16.5 -15.5t-18.5 -11.5q-10 -4 -16.5 0t-12.5 8q-4 -4 -12 -8t-16 -6q-31 -6 -43 21v2q-8 -10 -17.5 -17.5t-23.5 -11.5q-14 -8 -25 12q-6 12 -3 23.5t8 22t9 21.5t2 23q-18 -8 -25 -19t-11.5 -25.5t-6.5 -29t-8 -28.5q-6 -16 -24 -8q-8 2 -9 10q0 4 1 9t1 7 q-14 -4 -19 -4t-15 -10t-24.5 -18.5t-31.5 -8.5q-10 2 -16 8.5t-10 14.5q-16 -16 -40 -32.5t-50 -12.5q-16 2 -25 18q-25 -29 -51 -36q-29 -12 -33 20q-4 27 8.5 44t22.5 38q2 4 -3 5t-7 -3q-8 -20 -18.5 -44t-26 -45.5t-36 -34.5t-46.5 -11q-31 2 -36 22.5zM638 163 q-1 -38 1 -75q0 -16 9 -26.5t21.5 -14.5t24 1t15.5 24q2 12 2 27.5v29.5v147q0 16 -10.5 27.5t-22.5 16t-23.5 -2t-15.5 -22.5q-2 -14 -1 -29.5t1 -27.5q0 -37 -1 -75zM653 416q12 14 15.5 36.5t2.5 48t-4 49t-3 42.5v125q0 16 1 30.5t-12 28.5h76q-14 -12 -12 -32.5 t2 -36.5v-142q0 -16 -2 -49t10 -47q14 -23 37.5 -8.5t28.5 33.5q8 27 2.5 54t-9.5 54q-4 14 -10 38t-8 48.5t2 46t21 33.5q10 10 31.5 10t29.5 -16q6 -16 -2 -21.5t-18.5 -4.5t-17.5 8.5t1 15.5q-16 -8 -17 -28.5t6 -44t17 -46.5t15 -35q12 -37 17 -87t-22 -85 q-10 -14 -33.5 -19t-50 -5t-53 3t-41.5 3zM655 987q12 -2 28.5 15.5t18.5 27.5q4 8 -2 12.5t-12 -2.5q-10 -10 -18.5 -24.5t-14.5 -28.5zM715 -328q0 14 9 22.5t21.5 8.5t21.5 -8t9 -23q0 -16 -9 -23t-21.5 -7t-21.5 7t-9 23zM776 1124q-2 -8 4 -20h4q0 8 1 13t-1 13 q-6 0 -8 -6zM780 4q10 14 13.5 34.5t2.5 44t-4.5 46.5t-3.5 39v172q0 10 -8 22h58q29 -12 51 -50t35 -66q0 25 2 59.5t-13 56.5h74q-12 -10 -11 -24t1 -29v-246q0 -14 -1 -31.5t11 -27.5h-207zM797 -356l59 223h64l59 -223h-51l-15 51h-53l-10 -51h-53zM844 47 q0 -14 11 -23.5t25.5 -11.5t28 3.5t15.5 19.5q-4 63 -21.5 127.5t-58.5 116.5v-232zM865 506.5q-3 19.5 7 32.5q10 12 33 13t27 -22q0 -10 -7 -15t-15.5 -5t-14.5 4t-6 14q-12 -4 -12 -14t7 -20.5t17 -19.5t17 -11q14 -4 34.5 -4t30.5 10q20 20 16 40.5t-19 38t-35.5 32 t-31.5 24.5q-18 16 -30.5 42t-12.5 52.5t13.5 48t44.5 27.5q27 6 54.5 4t51.5 -2l-6 -10q0 -14 7 -29.5t13.5 -31t5.5 -29.5t-16 -27q-14 -10 -33.5 -9t-21.5 22q0 12 7 17t15.5 5t14.5 -5t4 -13q14 2 14 12t-8 21.5t-18.5 20.5t-18.5 11q-14 4 -32.5 1t-24.5 -19 q-12 -25 -4 -43.5t24.5 -32.5t37 -27.5t32.5 -27.5q14 -20 22.5 -47t4.5 -52.5t-20.5 -44t-47.5 -22.5q-27 -2 -53.5 -1t-54.5 1q8 4 5 19.5t-8.5 33.5t-8.5 37.5zM866 -266h41q-4 23 -9 46t-11 46zM874 1014q4 -12 16.5 -10t14.5 14q2 18 -10 43q-6 -8 -14.5 -22.5 t-6.5 -24.5zM991 1059l4 -15q10 -14 25 -6q16 4 23.5 21.5t3.5 34.5q-2 10 -9.5 16t-21.5 -4q-20 -14 -25 -47zM997 4q12 14 15.5 36.5t2.5 47.5t-4 48.5t-3 39.5v127q0 16 1 29.5t-12 29.5h76q-10 -10 -13 -30.5t-2 -42t3 -43t2 -35.5v-166h104q23 0 55.5 -3t55.5 13 q-4 -8 -7 -29.5t-14 -21.5h-260zM1006 -135q29 4 64.5 6t62.5 -14q31 -23 22.5 -58t-37.5 -49q14 -6 21.5 -19.5t10.5 -28.5t5 -30.5t8 -27.5h-51q-6 12 -8 27.5t-6 28.5t-12.5 22.5t-26.5 7.5v-86h-53v221zM1057 -196.5q2 -24.5 2 -34.5h12q18 0 26.5 10t6.5 22.5 t-11.5 21.5t-27.5 7q-10 -2 -8 -26.5zM1065 416q10 12 11 25.5t1 27.5v248q0 14 -1 30.5t-11 28.5h127q25 -25 25.5 -59.5t-9.5 -67.5q-4 -8 -15 -29.5t-20.5 -45t-11.5 -45t10 -27.5q-6 12 4.5 13t21.5 -4t14 -14.5t-17 -17.5q-25 -10 -35 9.5t-8 35.5q0 16 6 32.5t8 31 t-4 22.5t-28 6v-155q16 0 41.5 -3t44.5 11q-6 -14 -8.5 -26.5t-6.5 -26.5h-139zM1098 362h78q-12 -29 2 -65.5t26 -60.5q12 29 22.5 62.5t0.5 63.5h80q-23 -12 -27 -38.5t-10 -47.5q-6 -20 -23.5 -47.5t-17.5 -48.5q0 -23 -3 -56.5t13 -51.5h-76q18 18 14.5 53.5t-3.5 58.5 q-12 23 -21.5 46.5t-17.5 45.5q-10 23 -14.5 46.5t-22.5 39.5zM1133 662q20 0 45.5 2t27.5 32q0 16 -7 23.5t-18.5 10.5t-24.5 3h-23v-71zM1192 -133h53v-223h-53v223zM1245 1092q-4 -10 1 -27.5t22 -3.5q12 12 21 33t11 39q-2 8 -4 13t-12 1q-16 -8 -25.5 -23.5 t-13.5 -31.5zM1274 -328q0 14 9 22.5t21.5 8.5t21.5 -8t9 -23q0 -16 -9 -23t-21.5 -7t-21.5 7t-9 23zM1294 813q-8 -6 4 -8q27 -10 57.5 -13.5t62.5 -3.5h62.5t59.5 -2t57.5 -5t57.5 -13q29 -8 51.5 -23.5t48.5 -27.5q0 61 -21.5 106t-80.5 68q35 31 69.5 58.5t75.5 43.5 q-49 47 -110.5 77t-126.5 46q-2 -57 -3.5 -112.5t-5.5 -112.5l-2 2v-6q-27 -2 -64.5 -4t-74.5 -9.5t-68.5 -21.5t-48.5 -39zM1364 -133h57l68 -152q-4 39 -4 77v75h47v-223h-51q-20 39 -37 78.5t-35 76.5q2 -39 2 -77.5v-77.5h-47v223zM1393 1157q16 20 31.5 40t19.5 46h-2 q-37 -37 -49 -86zM1562.5 -268q-8.5 37 14.5 80q12 29 40 43t62 14h10.5t17.5 -2t16.5 -4t7.5 -4l-9 -41q-27 12 -48 8t-36.5 -18.5t-20.5 -37t3 -46.5q16 -47 61 -41q10 2 8.5 21.5t-1.5 27.5h-27v41h76v-121q-41 -16 -79 -9t-62.5 29.5t-33 59.5z" />
<glyph unicode="1" d="M35 813q70 37 137.5 67.5t144.5 53.5q4 0 8.5 20.5t8.5 45t8 48t8 31.5q23 35 68 53.5t78 34.5q88 35 179 61.5t183 51.5q94 23 188.5 39t190.5 24q33 4 80 8.5t95 3.5t92 -12.5t71 -37.5q2 -4 -2 -29t-6 -33l-6 -98q0 -4 4 -4q78 -23 152.5 -58.5t123.5 -103.5v-2 q-16 4 -36.5 -3t-41 -20.5t-38 -28t-27.5 -26.5q31 -16 50 -47t27.5 -66.5t6.5 -72.5t-13 -68q-16 43 -49.5 66.5t-74.5 35t-85 14.5t-83 5q-45 4 -94.5 2t-92.5 14q-16 6 -22 25.5t-7 43t2 46.5t5 37q-184 -14 -363.5 -56t-351.5 -102q-8 -2 -8 -6q2 -10 8 -33.5t10 -50.5 t6 -49.5t-6 -28.5q-23 -18 -58.5 -21t-64.5 -7l-157 -25q-35 -8 -67 -17.5t-62 -21.5q-14 -8 -28.5 -13t-29.5 -16q-8 -8 -18 -20t-17 -16q10 35 24.5 67.5t27.5 63.5q2 6 13 25.5t21.5 41t18.5 39t6 21.5q-25 35 -58.5 67.5t-78.5 36.5zM86 -133h47q4 -41 7 -83t12 -83 q4 41 10 83t14 83h37l25 -166q4 41 9 83t9 83h43l-43 -223h-43q-6 37 -11 72.5t-9 70.5q-4 -35 -11.5 -70.5t-13.5 -72.5h-43zM90 819q68 -37 109 -108q2 -2 -4.5 -15.5t-14.5 -29t-15 -28.5t-9 -20q-25 -45 -41 -94q51 27 104 39t108.5 20.5t110 15.5t107.5 24 q-18 18 -47 25t-62 8t-65.5 -2t-55.5 -5v131t4 131q-59 -16 -116.5 -39.5t-112.5 -52.5zM305 -133h45q4 -41 8 -83t11 -83q4 41 10 83t14 83h39l23 -166q4 41 9 83t9 83h43l-43 -223h-41q-8 37 -13 72.5t-9 70.5q-4 -35 -10.5 -70.5t-12.5 -72.5h-45zM342 709q8 0 22.5 6 t29 15t27.5 18.5t23 13.5q37 16 75 29.5t77 27.5q78 23 155.5 43.5t159.5 38.5q78 16 155 31.5t157 21.5q72 8 154.5 11.5t152.5 -29.5q6 55 6 112.5t4 110.5q0 29 2 57.5t6 57.5q2 14 -6 22.5t-20.5 13.5t-26.5 7t-27 4q-119 18 -245.5 1t-245.5 -42q-129 -27 -255 -60.5 t-249 -86.5q-23 -12 -46.5 -24.5t-43.5 -29.5q-20 -16 -24.5 -49t-8.5 -55q-8 -66 -8 -132.5v-133.5zM367 825q0 23 15 38.5t36 19.5q6 2 15 -2t5 -15q-12 -8 -22 -8q-12 -4 -16.5 -16.5t1.5 -22.5q4 -4 8.5 -5t8.5 -3q20 -2 33.5 11.5t22.5 34t13.5 41t8.5 34.5 q-27 -27 -62 -35q-27 -4 -43 12q-16 8 -16 37q0 27 12 51q27 61 86 99q12 6 25.5 12t27.5 10q10 4 21.5 12.5t21.5 10.5q12 -1 6 -13q12 0 21 -2q16 -2 27.5 -15t13.5 -32q6 -43 -23.5 -83t-66.5 -62q-18 -12 -27.5 -31.5t-18.5 -39t-20.5 -38t-34.5 -28.5q-23 -16 -53 -11 q-12 4 -20 14.5t-6 24.5zM405.5 937q2.5 -15 22.5 -15q31 0 49.5 19.5t30.5 47t18.5 58.5t10.5 51q-29 -6 -52.5 -23.5t-44.5 -38.5q-6 -6 -15 -25.5t-15.5 -39t-4 -34.5zM522 -133h45l19 -166q4 41 10 83t14 83h39l25 -166q2 41 7 83t11 83h41l-41 -223h-43q-8 37 -12 73.5 t-10 73.5q-4 -37 -10.5 -73.5t-12.5 -73.5h-43zM530 950q14 4 29.5 19.5t26 35t14.5 40t0 34.5q-6 23 -33 23q-14 -37 -20.5 -75t-16.5 -77zM582 138q2 34 2 61q0 20 -1 38.5t1 38.5q0 49 26.5 67.5t73.5 18.5q37 0 54.5 -20t23.5 -50t4 -63.5t-2 -60.5v-80 q0 -47 -26.5 -66.5t-71.5 -17.5q-39 0 -56.5 20.5t-23.5 50t-4 63.5zM628 952.5q-5 20.5 6 46t31.5 46t43.5 22.5q12 0 16 -10q8 -12 2 -29q-6 -23 -27.5 -40t-44.5 -21q2 -12 10.5 -13.5t17.5 3t17.5 10.5t12.5 10q25 20 36 46t21 52q2 2 -1 9.5t-8 15.5t-8 17t-1 16 q10 27 34 22q12 0 17 -12q4 -10 2 -22.5t-2 -24.5q20 2 28.5 -1t-4.5 -28q-8 -16 -17 -33.5t-11 -36.5q0 -10 6 -10q20 0 34.5 20.5t26 46t22.5 51t25 34.5q8 2 17 -2q2 -4 2 -13q-4 -12 -10.5 -21t-1.5 -24q6 -12 13 -25.5t5 -27.5h2q20 25 32.5 60.5t45.5 52.5 q37 14 49 -21q10 -14 6 -25.5t-2 -27.5q8 2 14 10q16 12 18.5 35t8.5 41q4 4 11 5t12 -1q10 -2 8 -12v-2q10 10 24 16q10 6 17.5 2t11.5 -14q4 -12 1 -22.5t-8 -21.5t-10 -22.5t-3 -23.5q14 12 24 26.5t18.5 29.5t17.5 28.5t26 23.5q20 10 51 0q4 6 17 8.5t9 -14.5 q-4 -18 -14 -38.5t-10 -41.5q0 -14 8 -2q20 20 30.5 48t19.5 55.5t23.5 53t43.5 42.5q14 8 24 -8q12 -23 4 -48.5t-24 -41.5q-14 -18 -43 -44t-25 -53q4 -16 23 -12q14 6 21 19.5t16 25.5q4 2 12 2t8 -10l-4 -12q-16 -39 -53 -54q-25 -14 -43 15q-4 4 -4 10 q-10 -8 -16.5 -15.5t-18.5 -11.5q-10 -4 -16.5 0t-12.5 8q-4 -4 -12 -8t-16 -6q-31 -6 -43 21v2q-8 -10 -17.5 -17.5t-23.5 -11.5q-14 -8 -25 12q-6 12 -3 23.5t8 22t9 21.5t2 23q-18 -8 -25 -19t-11.5 -25.5t-6.5 -29t-8 -28.5q-6 -16 -24 -8q-8 2 -9 10q0 4 1 9t1 7 q-14 -4 -19 -4t-15 -10t-24.5 -18.5t-31.5 -8.5q-10 2 -16 8.5t-10 14.5q-16 -16 -40 -32.5t-50 -12.5q-16 2 -25 18q-25 -29 -51 -36q-29 -12 -33 20q-4 27 8.5 44t22.5 38q2 4 -3 5t-7 -3q-8 -20 -18.5 -44t-26 -45.5t-36 -34.5t-46.5 -11q-31 2 -36 22.5zM638 163 q-1 -38 1 -75q0 -16 9 -26.5t21.5 -14.5t24 1t15.5 24q2 12 2 27.5v29.5v147q0 16 -10.5 27.5t-22.5 16t-23.5 -2t-15.5 -22.5q-2 -14 -1 -29.5t1 -27.5q0 -37 -1 -75zM653 416q12 14 15.5 36.5t2.5 48t-4 49t-3 42.5v125q0 16 1 30.5t-12 28.5h76q-14 -12 -12 -32.5 t2 -36.5v-142q0 -16 -2 -49t10 -47q14 -23 37.5 -8.5t28.5 33.5q8 27 2.5 54t-9.5 54q-4 14 -10 38t-8 48.5t2 46t21 33.5q10 10 31.5 10t29.5 -16q6 -16 -2 -21.5t-18.5 -4.5t-17.5 8.5t1 15.5q-16 -8 -17 -28.5t6 -44t17 -46.5t15 -35q12 -37 17 -87t-22 -85 q-10 -14 -33.5 -19t-50 -5t-53 3t-41.5 3zM655 987q12 -2 28.5 15.5t18.5 27.5q4 8 -2 12.5t-12 -2.5q-10 -10 -18.5 -24.5t-14.5 -28.5zM715 -328q0 14 9 22.5t21.5 8.5t21.5 -8t9 -23q0 -16 -9 -23t-21.5 -7t-21.5 7t-9 23zM776 1124q-2 -8 4 -20h4q0 8 1 13t-1 13 q-6 0 -8 -6zM780 4q10 14 13.5 34.5t2.5 44t-4.5 46.5t-3.5 39v172q0 10 -8 22h58q29 -12 51 -50t35 -66q0 25 2 59.5t-13 56.5h74q-12 -10 -11 -24t1 -29v-246q0 -14 -1 -31.5t11 -27.5h-207zM797 -356l59 223h64l59 -223h-51l-15 51h-53l-10 -51h-53zM844 47 q0 -14 11 -23.5t25.5 -11.5t28 3.5t15.5 19.5q-4 63 -21.5 127.5t-58.5 116.5v-232zM865 506.5q-3 19.5 7 32.5q10 12 33 13t27 -22q0 -10 -7 -15t-15.5 -5t-14.5 4t-6 14q-12 -4 -12 -14t7 -20.5t17 -19.5t17 -11q14 -4 34.5 -4t30.5 10q20 20 16 40.5t-19 38t-35.5 32 t-31.5 24.5q-18 16 -30.5 42t-12.5 52.5t13.5 48t44.5 27.5q27 6 54.5 4t51.5 -2l-6 -10q0 -14 7 -29.5t13.5 -31t5.5 -29.5t-16 -27q-14 -10 -33.5 -9t-21.5 22q0 12 7 17t15.5 5t14.5 -5t4 -13q14 2 14 12t-8 21.5t-18.5 20.5t-18.5 11q-14 4 -32.5 1t-24.5 -19 q-12 -25 -4 -43.5t24.5 -32.5t37 -27.5t32.5 -27.5q14 -20 22.5 -47t4.5 -52.5t-20.5 -44t-47.5 -22.5q-27 -2 -53.5 -1t-54.5 1q8 4 5 19.5t-8.5 33.5t-8.5 37.5zM866 -266h41q-4 23 -9 46t-11 46zM874 1014q4 -12 16.5 -10t14.5 14q2 18 -10 43q-6 -8 -14.5 -22.5 t-6.5 -24.5zM991 1059l4 -15q10 -14 25 -6q16 4 23.5 21.5t3.5 34.5q-2 10 -9.5 16t-21.5 -4q-20 -14 -25 -47zM997 4q12 14 15.5 36.5t2.5 47.5t-4 48.5t-3 39.5v127q0 16 1 29.5t-12 29.5h76q-10 -10 -13 -30.5t-2 -42t3 -43t2 -35.5v-166h104q23 0 55.5 -3t55.5 13 q-4 -8 -7 -29.5t-14 -21.5h-260zM1006 -135q29 4 64.5 6t62.5 -14q31 -23 22.5 -58t-37.5 -49q14 -6 21.5 -19.5t10.5 -28.5t5 -30.5t8 -27.5h-51q-6 12 -8 27.5t-6 28.5t-12.5 22.5t-26.5 7.5v-86h-53v221zM1057 -196.5q2 -24.5 2 -34.5h12q18 0 26.5 10t6.5 22.5 t-11.5 21.5t-27.5 7q-10 -2 -8 -26.5zM1065 416q10 12 11 25.5t1 27.5v248q0 14 -1 30.5t-11 28.5h127q25 -25 25.5 -59.5t-9.5 -67.5q-4 -8 -15 -29.5t-20.5 -45t-11.5 -45t10 -27.5q-6 12 4.5 13t21.5 -4t14 -14.5t-17 -17.5q-25 -10 -35 9.5t-8 35.5q0 16 6 32.5t8 31 t-4 22.5t-28 6v-155q16 0 41.5 -3t44.5 11q-6 -14 -8.5 -26.5t-6.5 -26.5h-139zM1098 362h78q-12 -29 2 -65.5t26 -60.5q12 29 22.5 62.5t0.5 63.5h80q-23 -12 -27 -38.5t-10 -47.5q-6 -20 -23.5 -47.5t-17.5 -48.5q0 -23 -3 -56.5t13 -51.5h-76q18 18 14.5 53.5t-3.5 58.5 q-12 23 -21.5 46.5t-17.5 45.5q-10 23 -14.5 46.5t-22.5 39.5zM1133 662q20 0 45.5 2t27.5 32q0 16 -7 23.5t-18.5 10.5t-24.5 3h-23v-71zM1192 -133h53v-223h-53v223zM1245 1092q-4 -10 1 -27.5t22 -3.5q12 12 21 33t11 39q-2 8 -4 13t-12 1q-16 -8 -25.5 -23.5 t-13.5 -31.5zM1274 -328q0 14 9 22.5t21.5 8.5t21.5 -8t9 -23q0 -16 -9 -23t-21.5 -7t-21.5 7t-9 23zM1294 813q-8 -6 4 -8q27 -10 57.5 -13.5t62.5 -3.5h62.5t59.5 -2t57.5 -5t57.5 -13q29 -8 51.5 -23.5t48.5 -27.5q0 61 -21.5 106t-80.5 68q35 31 69.5 58.5t75.5 43.5 q-49 47 -110.5 77t-126.5 46q-2 -57 -3.5 -112.5t-5.5 -112.5l-2 2v-6q-27 -2 -64.5 -4t-74.5 -9.5t-68.5 -21.5t-48.5 -39zM1364 -133h57l68 -152q-4 39 -4 77v75h47v-223h-51q-20 39 -37 78.5t-35 76.5q2 -39 2 -77.5v-77.5h-47v223zM1393 1157q16 20 31.5 40t19.5 46h-2 q-37 -37 -49 -86zM1562.5 -268q-8.5 37 14.5 80q12 29 40 43t62 14h10.5t17.5 -2t16.5 -4t7.5 -4l-9 -41q-27 12 -48 8t-36.5 -18.5t-20.5 -37t3 -46.5q16 -47 61 -41q10 2 8.5 21.5t-1.5 27.5h-27v41h76v-121q-41 -16 -79 -9t-62.5 29.5t-33 59.5z" />
<glyph unicode="2" d="M35 813q70 37 137.5 67.5t144.5 53.5q4 0 8.5 20.5t8.5 45t8 48t8 31.5q23 35 68 53.5t78 34.5q88 35 179 61.5t183 51.5q94 23 188.5 39t190.5 24q33 4 80 8.5t95 3.5t92 -12.5t71 -37.5q2 -4 -2 -29t-6 -33l-6 -98q0 -4 4 -4q78 -23 152.5 -58.5t123.5 -103.5v-2 q-16 4 -36.5 -3t-41 -20.5t-38 -28t-27.5 -26.5q31 -16 50 -47t27.5 -66.5t6.5 -72.5t-13 -68q-16 43 -49.5 66.5t-74.5 35t-85 14.5t-83 5q-45 4 -94.5 2t-92.5 14q-16 6 -22 25.5t-7 43t2 46.5t5 37q-184 -14 -363.5 -56t-351.5 -102q-8 -2 -8 -6q2 -10 8 -33.5t10 -50.5 t6 -49.5t-6 -28.5q-23 -18 -58.5 -21t-64.5 -7l-157 -25q-35 -8 -67 -17.5t-62 -21.5q-14 -8 -28.5 -13t-29.5 -16q-8 -8 -18 -20t-17 -16q10 35 24.5 67.5t27.5 63.5q2 6 13 25.5t21.5 41t18.5 39t6 21.5q-25 35 -58.5 67.5t-78.5 36.5zM86 -133h47q4 -41 7 -83t12 -83 q4 41 10 83t14 83h37l25 -166q4 41 9 83t9 83h43l-43 -223h-43q-6 37 -11 72.5t-9 70.5q-4 -35 -11.5 -70.5t-13.5 -72.5h-43zM90 819q68 -37 109 -108q2 -2 -4.5 -15.5t-14.5 -29t-15 -28.5t-9 -20q-25 -45 -41 -94q51 27 104 39t108.5 20.5t110 15.5t107.5 24 q-18 18 -47 25t-62 8t-65.5 -2t-55.5 -5v131t4 131q-59 -16 -116.5 -39.5t-112.5 -52.5zM305 -133h45q4 -41 8 -83t11 -83q4 41 10 83t14 83h39l23 -166q4 41 9 83t9 83h43l-43 -223h-41q-8 37 -13 72.5t-9 70.5q-4 -35 -10.5 -70.5t-12.5 -72.5h-45zM342 709q8 0 22.5 6 t29 15t27.5 18.5t23 13.5q37 16 75 29.5t77 27.5q78 23 155.5 43.5t159.5 38.5q78 16 155 31.5t157 21.5q72 8 154.5 11.5t152.5 -29.5q6 55 6 112.5t4 110.5q0 29 2 57.5t6 57.5q2 14 -6 22.5t-20.5 13.5t-26.5 7t-27 4q-119 18 -245.5 1t-245.5 -42q-129 -27 -255 -60.5 t-249 -86.5q-23 -12 -46.5 -24.5t-43.5 -29.5q-20 -16 -24.5 -49t-8.5 -55q-8 -66 -8 -132.5v-133.5zM367 825q0 23 15 38.5t36 19.5q6 2 15 -2t5 -15q-12 -8 -22 -8q-12 -4 -16.5 -16.5t1.5 -22.5q4 -4 8.5 -5t8.5 -3q20 -2 33.5 11.5t22.5 34t13.5 41t8.5 34.5 q-27 -27 -62 -35q-27 -4 -43 12q-16 8 -16 37q0 27 12 51q27 61 86 99q12 6 25.5 12t27.5 10q10 4 21.5 12.5t21.5 10.5q12 -1 6 -13q12 0 21 -2q16 -2 27.5 -15t13.5 -32q6 -43 -23.5 -83t-66.5 -62q-18 -12 -27.5 -31.5t-18.5 -39t-20.5 -38t-34.5 -28.5q-23 -16 -53 -11 q-12 4 -20 14.5t-6 24.5zM405.5 937q2.5 -15 22.5 -15q31 0 49.5 19.5t30.5 47t18.5 58.5t10.5 51q-29 -6 -52.5 -23.5t-44.5 -38.5q-6 -6 -15 -25.5t-15.5 -39t-4 -34.5zM522 -133h45l19 -166q4 41 10 83t14 83h39l25 -166q2 41 7 83t11 83h41l-41 -223h-43q-8 37 -12 73.5 t-10 73.5q-4 -37 -10.5 -73.5t-12.5 -73.5h-43zM530 950q14 4 29.5 19.5t26 35t14.5 40t0 34.5q-6 23 -33 23q-14 -37 -20.5 -75t-16.5 -77zM582 138q2 34 2 61q0 20 -1 38.5t1 38.5q0 49 26.5 67.5t73.5 18.5q37 0 54.5 -20t23.5 -50t4 -63.5t-2 -60.5v-80 q0 -47 -26.5 -66.5t-71.5 -17.5q-39 0 -56.5 20.5t-23.5 50t-4 63.5zM628 952.5q-5 20.5 6 46t31.5 46t43.5 22.5q12 0 16 -10q8 -12 2 -29q-6 -23 -27.5 -40t-44.5 -21q2 -12 10.5 -13.5t17.5 3t17.5 10.5t12.5 10q25 20 36 46t21 52q2 2 -1 9.5t-8 15.5t-8 17t-1 16 q10 27 34 22q12 0 17 -12q4 -10 2 -22.5t-2 -24.5q20 2 28.5 -1t-4.5 -28q-8 -16 -17 -33.5t-11 -36.5q0 -10 6 -10q20 0 34.5 20.5t26 46t22.5 51t25 34.5q8 2 17 -2q2 -4 2 -13q-4 -12 -10.5 -21t-1.5 -24q6 -12 13 -25.5t5 -27.5h2q20 25 32.5 60.5t45.5 52.5 q37 14 49 -21q10 -14 6 -25.5t-2 -27.5q8 2 14 10q16 12 18.5 35t8.5 41q4 4 11 5t12 -1q10 -2 8 -12v-2q10 10 24 16q10 6 17.5 2t11.5 -14q4 -12 1 -22.5t-8 -21.5t-10 -22.5t-3 -23.5q14 12 24 26.5t18.5 29.5t17.5 28.5t26 23.5q20 10 51 0q4 6 17 8.5t9 -14.5 q-4 -18 -14 -38.5t-10 -41.5q0 -14 8 -2q20 20 30.5 48t19.5 55.5t23.5 53t43.5 42.5q14 8 24 -8q12 -23 4 -48.5t-24 -41.5q-14 -18 -43 -44t-25 -53q4 -16 23 -12q14 6 21 19.5t16 25.5q4 2 12 2t8 -10l-4 -12q-16 -39 -53 -54q-25 -14 -43 15q-4 4 -4 10 q-10 -8 -16.5 -15.5t-18.5 -11.5q-10 -4 -16.5 0t-12.5 8q-4 -4 -12 -8t-16 -6q-31 -6 -43 21v2q-8 -10 -17.5 -17.5t-23.5 -11.5q-14 -8 -25 12q-6 12 -3 23.5t8 22t9 21.5t2 23q-18 -8 -25 -19t-11.5 -25.5t-6.5 -29t-8 -28.5q-6 -16 -24 -8q-8 2 -9 10q0 4 1 9t1 7 q-14 -4 -19 -4t-15 -10t-24.5 -18.5t-31.5 -8.5q-10 2 -16 8.5t-10 14.5q-16 -16 -40 -32.5t-50 -12.5q-16 2 -25 18q-25 -29 -51 -36q-29 -12 -33 20q-4 27 8.5 44t22.5 38q2 4 -3 5t-7 -3q-8 -20 -18.5 -44t-26 -45.5t-36 -34.5t-46.5 -11q-31 2 -36 22.5zM638 163 q-1 -38 1 -75q0 -16 9 -26.5t21.5 -14.5t24 1t15.5 24q2 12 2 27.5v29.5v147q0 16 -10.5 27.5t-22.5 16t-23.5 -2t-15.5 -22.5q-2 -14 -1 -29.5t1 -27.5q0 -37 -1 -75zM653 416q12 14 15.5 36.5t2.5 48t-4 49t-3 42.5v125q0 16 1 30.5t-12 28.5h76q-14 -12 -12 -32.5 t2 -36.5v-142q0 -16 -2 -49t10 -47q14 -23 37.5 -8.5t28.5 33.5q8 27 2.5 54t-9.5 54q-4 14 -10 38t-8 48.5t2 46t21 33.5q10 10 31.5 10t29.5 -16q6 -16 -2 -21.5t-18.5 -4.5t-17.5 8.5t1 15.5q-16 -8 -17 -28.5t6 -44t17 -46.5t15 -35q12 -37 17 -87t-22 -85 q-10 -14 -33.5 -19t-50 -5t-53 3t-41.5 3zM655 987q12 -2 28.5 15.5t18.5 27.5q4 8 -2 12.5t-12 -2.5q-10 -10 -18.5 -24.5t-14.5 -28.5zM715 -328q0 14 9 22.5t21.5 8.5t21.5 -8t9 -23q0 -16 -9 -23t-21.5 -7t-21.5 7t-9 23zM776 1124q-2 -8 4 -20h4q0 8 1 13t-1 13 q-6 0 -8 -6zM780 4q10 14 13.5 34.5t2.5 44t-4.5 46.5t-3.5 39v172q0 10 -8 22h58q29 -12 51 -50t35 -66q0 25 2 59.5t-13 56.5h74q-12 -10 -11 -24t1 -29v-246q0 -14 -1 -31.5t11 -27.5h-207zM797 -356l59 223h64l59 -223h-51l-15 51h-53l-10 -51h-53zM844 47 q0 -14 11 -23.5t25.5 -11.5t28 3.5t15.5 19.5q-4 63 -21.5 127.5t-58.5 116.5v-232zM865 506.5q-3 19.5 7 32.5q10 12 33 13t27 -22q0 -10 -7 -15t-15.5 -5t-14.5 4t-6 14q-12 -4 -12 -14t7 -20.5t17 -19.5t17 -11q14 -4 34.5 -4t30.5 10q20 20 16 40.5t-19 38t-35.5 32 t-31.5 24.5q-18 16 -30.5 42t-12.5 52.5t13.5 48t44.5 27.5q27 6 54.5 4t51.5 -2l-6 -10q0 -14 7 -29.5t13.5 -31t5.5 -29.5t-16 -27q-14 -10 -33.5 -9t-21.5 22q0 12 7 17t15.5 5t14.5 -5t4 -13q14 2 14 12t-8 21.5t-18.5 20.5t-18.5 11q-14 4 -32.5 1t-24.5 -19 q-12 -25 -4 -43.5t24.5 -32.5t37 -27.5t32.5 -27.5q14 -20 22.5 -47t4.5 -52.5t-20.5 -44t-47.5 -22.5q-27 -2 -53.5 -1t-54.5 1q8 4 5 19.5t-8.5 33.5t-8.5 37.5zM866 -266h41q-4 23 -9 46t-11 46zM874 1014q4 -12 16.5 -10t14.5 14q2 18 -10 43q-6 -8 -14.5 -22.5 t-6.5 -24.5zM991 1059l4 -15q10 -14 25 -6q16 4 23.5 21.5t3.5 34.5q-2 10 -9.5 16t-21.5 -4q-20 -14 -25 -47zM997 4q12 14 15.5 36.5t2.5 47.5t-4 48.5t-3 39.5v127q0 16 1 29.5t-12 29.5h76q-10 -10 -13 -30.5t-2 -42t3 -43t2 -35.5v-166h104q23 0 55.5 -3t55.5 13 q-4 -8 -7 -29.5t-14 -21.5h-260zM1006 -135q29 4 64.5 6t62.5 -14q31 -23 22.5 -58t-37.5 -49q14 -6 21.5 -19.5t10.5 -28.5t5 -30.5t8 -27.5h-51q-6 12 -8 27.5t-6 28.5t-12.5 22.5t-26.5 7.5v-86h-53v221zM1057 -196.5q2 -24.5 2 -34.5h12q18 0 26.5 10t6.5 22.5 t-11.5 21.5t-27.5 7q-10 -2 -8 -26.5zM1065 416q10 12 11 25.5t1 27.5v248q0 14 -1 30.5t-11 28.5h127q25 -25 25.5 -59.5t-9.5 -67.5q-4 -8 -15 -29.5t-20.5 -45t-11.5 -45t10 -27.5q-6 12 4.5 13t21.5 -4t14 -14.5t-17 -17.5q-25 -10 -35 9.5t-8 35.5q0 16 6 32.5t8 31 t-4 22.5t-28 6v-155q16 0 41.5 -3t44.5 11q-6 -14 -8.5 -26.5t-6.5 -26.5h-139zM1098 362h78q-12 -29 2 -65.5t26 -60.5q12 29 22.5 62.5t0.5 63.5h80q-23 -12 -27 -38.5t-10 -47.5q-6 -20 -23.5 -47.5t-17.5 -48.5q0 -23 -3 -56.5t13 -51.5h-76q18 18 14.5 53.5t-3.5 58.5 q-12 23 -21.5 46.5t-17.5 45.5q-10 23 -14.5 46.5t-22.5 39.5zM1133 662q20 0 45.5 2t27.5 32q0 16 -7 23.5t-18.5 10.5t-24.5 3h-23v-71zM1192 -133h53v-223h-53v223zM1245 1092q-4 -10 1 -27.5t22 -3.5q12 12 21 33t11 39q-2 8 -4 13t-12 1q-16 -8 -25.5 -23.5 t-13.5 -31.5zM1274 -328q0 14 9 22.5t21.5 8.5t21.5 -8t9 -23q0 -16 -9 -23t-21.5 -7t-21.5 7t-9 23zM1294 813q-8 -6 4 -8q27 -10 57.5 -13.5t62.5 -3.5h62.5t59.5 -2t57.5 -5t57.5 -13q29 -8 51.5 -23.5t48.5 -27.5q0 61 -21.5 106t-80.5 68q35 31 69.5 58.5t75.5 43.5 q-49 47 -110.5 77t-126.5 46q-2 -57 -3.5 -112.5t-5.5 -112.5l-2 2v-6q-27 -2 -64.5 -4t-74.5 -9.5t-68.5 -21.5t-48.5 -39zM1364 -133h57l68 -152q-4 39 -4 77v75h47v-223h-51q-20 39 -37 78.5t-35 76.5q2 -39 2 -77.5v-77.5h-47v223zM1393 1157q16 20 31.5 40t19.5 46h-2 q-37 -37 -49 -86zM1562.5 -268q-8.5 37 14.5 80q12 29 40 43t62 14h10.5t17.5 -2t16.5 -4t7.5 -4l-9 -41q-27 12 -48 8t-36.5 -18.5t-20.5 -37t3 -46.5q16 -47 61 -41q10 2 8.5 21.5t-1.5 27.5h-27v41h76v-121q-41 -16 -79 -9t-62.5 29.5t-33 59.5z" />
<glyph unicode="3" d="M35 813q70 37 137.5 67.5t144.5 53.5q4 0 8.5 20.5t8.5 45t8 48t8 31.5q23 35 68 53.5t78 34.5q88 35 179 61.5t183 51.5q94 23 188.5 39t190.5 24q33 4 80 8.5t95 3.5t92 -12.5t71 -37.5q2 -4 -2 -29t-6 -33l-6 -98q0 -4 4 -4q78 -23 152.5 -58.5t123.5 -103.5v-2 q-16 4 -36.5 -3t-41 -20.5t-38 -28t-27.5 -26.5q31 -16 50 -47t27.5 -66.5t6.5 -72.5t-13 -68q-16 43 -49.5 66.5t-74.5 35t-85 14.5t-83 5q-45 4 -94.5 2t-92.5 14q-16 6 -22 25.5t-7 43t2 46.5t5 37q-184 -14 -363.5 -56t-351.5 -102q-8 -2 -8 -6q2 -10 8 -33.5t10 -50.5 t6 -49.5t-6 -28.5q-23 -18 -58.5 -21t-64.5 -7l-157 -25q-35 -8 -67 -17.5t-62 -21.5q-14 -8 -28.5 -13t-29.5 -16q-8 -8 -18 -20t-17 -16q10 35 24.5 67.5t27.5 63.5q2 6 13 25.5t21.5 41t18.5 39t6 21.5q-25 35 -58.5 67.5t-78.5 36.5zM86 -133h47q4 -41 7 -83t12 -83 q4 41 10 83t14 83h37l25 -166q4 41 9 83t9 83h43l-43 -223h-43q-6 37 -11 72.5t-9 70.5q-4 -35 -11.5 -70.5t-13.5 -72.5h-43zM90 819q68 -37 109 -108q2 -2 -4.5 -15.5t-14.5 -29t-15 -28.5t-9 -20q-25 -45 -41 -94q51 27 104 39t108.5 20.5t110 15.5t107.5 24 q-18 18 -47 25t-62 8t-65.5 -2t-55.5 -5v131t4 131q-59 -16 -116.5 -39.5t-112.5 -52.5zM305 -133h45q4 -41 8 -83t11 -83q4 41 10 83t14 83h39l23 -166q4 41 9 83t9 83h43l-43 -223h-41q-8 37 -13 72.5t-9 70.5q-4 -35 -10.5 -70.5t-12.5 -72.5h-45zM342 709q8 0 22.5 6 t29 15t27.5 18.5t23 13.5q37 16 75 29.5t77 27.5q78 23 155.5 43.5t159.5 38.5q78 16 155 31.5t157 21.5q72 8 154.5 11.5t152.5 -29.5q6 55 6 112.5t4 110.5q0 29 2 57.5t6 57.5q2 14 -6 22.5t-20.5 13.5t-26.5 7t-27 4q-119 18 -245.5 1t-245.5 -42q-129 -27 -255 -60.5 t-249 -86.5q-23 -12 -46.5 -24.5t-43.5 -29.5q-20 -16 -24.5 -49t-8.5 -55q-8 -66 -8 -132.5v-133.5zM367 825q0 23 15 38.5t36 19.5q6 2 15 -2t5 -15q-12 -8 -22 -8q-12 -4 -16.5 -16.5t1.5 -22.5q4 -4 8.5 -5t8.5 -3q20 -2 33.5 11.5t22.5 34t13.5 41t8.5 34.5 q-27 -27 -62 -35q-27 -4 -43 12q-16 8 -16 37q0 27 12 51q27 61 86 99q12 6 25.5 12t27.5 10q10 4 21.5 12.5t21.5 10.5q12 -1 6 -13q12 0 21 -2q16 -2 27.5 -15t13.5 -32q6 -43 -23.5 -83t-66.5 -62q-18 -12 -27.5 -31.5t-18.5 -39t-20.5 -38t-34.5 -28.5q-23 -16 -53 -11 q-12 4 -20 14.5t-6 24.5zM405.5 937q2.5 -15 22.5 -15q31 0 49.5 19.5t30.5 47t18.5 58.5t10.5 51q-29 -6 -52.5 -23.5t-44.5 -38.5q-6 -6 -15 -25.5t-15.5 -39t-4 -34.5zM522 -133h45l19 -166q4 41 10 83t14 83h39l25 -166q2 41 7 83t11 83h41l-41 -223h-43q-8 37 -12 73.5 t-10 73.5q-4 -37 -10.5 -73.5t-12.5 -73.5h-43zM530 950q14 4 29.5 19.5t26 35t14.5 40t0 34.5q-6 23 -33 23q-14 -37 -20.5 -75t-16.5 -77zM582 138q2 34 2 61q0 20 -1 38.5t1 38.5q0 49 26.5 67.5t73.5 18.5q37 0 54.5 -20t23.5 -50t4 -63.5t-2 -60.5v-80 q0 -47 -26.5 -66.5t-71.5 -17.5q-39 0 -56.5 20.5t-23.5 50t-4 63.5zM628 952.5q-5 20.5 6 46t31.5 46t43.5 22.5q12 0 16 -10q8 -12 2 -29q-6 -23 -27.5 -40t-44.5 -21q2 -12 10.5 -13.5t17.5 3t17.5 10.5t12.5 10q25 20 36 46t21 52q2 2 -1 9.5t-8 15.5t-8 17t-1 16 q10 27 34 22q12 0 17 -12q4 -10 2 -22.5t-2 -24.5q20 2 28.5 -1t-4.5 -28q-8 -16 -17 -33.5t-11 -36.5q0 -10 6 -10q20 0 34.5 20.5t26 46t22.5 51t25 34.5q8 2 17 -2q2 -4 2 -13q-4 -12 -10.5 -21t-1.5 -24q6 -12 13 -25.5t5 -27.5h2q20 25 32.5 60.5t45.5 52.5 q37 14 49 -21q10 -14 6 -25.5t-2 -27.5q8 2 14 10q16 12 18.5 35t8.5 41q4 4 11 5t12 -1q10 -2 8 -12v-2q10 10 24 16q10 6 17.5 2t11.5 -14q4 -12 1 -22.5t-8 -21.5t-10 -22.5t-3 -23.5q14 12 24 26.5t18.5 29.5t17.5 28.5t26 23.5q20 10 51 0q4 6 17 8.5t9 -14.5 q-4 -18 -14 -38.5t-10 -41.5q0 -14 8 -2q20 20 30.5 48t19.5 55.5t23.5 53t43.5 42.5q14 8 24 -8q12 -23 4 -48.5t-24 -41.5q-14 -18 -43 -44t-25 -53q4 -16 23 -12q14 6 21 19.5t16 25.5q4 2 12 2t8 -10l-4 -12q-16 -39 -53 -54q-25 -14 -43 15q-4 4 -4 10 q-10 -8 -16.5 -15.5t-18.5 -11.5q-10 -4 -16.5 0t-12.5 8q-4 -4 -12 -8t-16 -6q-31 -6 -43 21v2q-8 -10 -17.5 -17.5t-23.5 -11.5q-14 -8 -25 12q-6 12 -3 23.5t8 22t9 21.5t2 23q-18 -8 -25 -19t-11.5 -25.5t-6.5 -29t-8 -28.5q-6 -16 -24 -8q-8 2 -9 10q0 4 1 9t1 7 q-14 -4 -19 -4t-15 -10t-24.5 -18.5t-31.5 -8.5q-10 2 -16 8.5t-10 14.5q-16 -16 -40 -32.5t-50 -12.5q-16 2 -25 18q-25 -29 -51 -36q-29 -12 -33 20q-4 27 8.5 44t22.5 38q2 4 -3 5t-7 -3q-8 -20 -18.5 -44t-26 -45.5t-36 -34.5t-46.5 -11q-31 2 -36 22.5zM638 163 q-1 -38 1 -75q0 -16 9 -26.5t21.5 -14.5t24 1t15.5 24q2 12 2 27.5v29.5v147q0 16 -10.5 27.5t-22.5 16t-23.5 -2t-15.5 -22.5q-2 -14 -1 -29.5t1 -27.5q0 -37 -1 -75zM653 416q12 14 15.5 36.5t2.5 48t-4 49t-3 42.5v125q0 16 1 30.5t-12 28.5h76q-14 -12 -12 -32.5 t2 -36.5v-142q0 -16 -2 -49t10 -47q14 -23 37.5 -8.5t28.5 33.5q8 27 2.5 54t-9.5 54q-4 14 -10 38t-8 48.5t2 46t21 33.5q10 10 31.5 10t29.5 -16q6 -16 -2 -21.5t-18.5 -4.5t-17.5 8.5t1 15.5q-16 -8 -17 -28.5t6 -44t17 -46.5t15 -35q12 -37 17 -87t-22 -85 q-10 -14 -33.5 -19t-50 -5t-53 3t-41.5 3zM655 987q12 -2 28.5 15.5t18.5 27.5q4 8 -2 12.5t-12 -2.5q-10 -10 -18.5 -24.5t-14.5 -28.5zM715 -328q0 14 9 22.5t21.5 8.5t21.5 -8t9 -23q0 -16 -9 -23t-21.5 -7t-21.5 7t-9 23zM776 1124q-2 -8 4 -20h4q0 8 1 13t-1 13 q-6 0 -8 -6zM780 4q10 14 13.5 34.5t2.5 44t-4.5 46.5t-3.5 39v172q0 10 -8 22h58q29 -12 51 -50t35 -66q0 25 2 59.5t-13 56.5h74q-12 -10 -11 -24t1 -29v-246q0 -14 -1 -31.5t11 -27.5h-207zM797 -356l59 223h64l59 -223h-51l-15 51h-53l-10 -51h-53zM844 47 q0 -14 11 -23.5t25.5 -11.5t28 3.5t15.5 19.5q-4 63 -21.5 127.5t-58.5 116.5v-232zM865 506.5q-3 19.5 7 32.5q10 12 33 13t27 -22q0 -10 -7 -15t-15.5 -5t-14.5 4t-6 14q-12 -4 -12 -14t7 -20.5t17 -19.5t17 -11q14 -4 34.5 -4t30.5 10q20 20 16 40.5t-19 38t-35.5 32 t-31.5 24.5q-18 16 -30.5 42t-12.5 52.5t13.5 48t44.5 27.5q27 6 54.5 4t51.5 -2l-6 -10q0 -14 7 -29.5t13.5 -31t5.5 -29.5t-16 -27q-14 -10 -33.5 -9t-21.5 22q0 12 7 17t15.5 5t14.5 -5t4 -13q14 2 14 12t-8 21.5t-18.5 20.5t-18.5 11q-14 4 -32.5 1t-24.5 -19 q-12 -25 -4 -43.5t24.5 -32.5t37 -27.5t32.5 -27.5q14 -20 22.5 -47t4.5 -52.5t-20.5 -44t-47.5 -22.5q-27 -2 -53.5 -1t-54.5 1q8 4 5 19.5t-8.5 33.5t-8.5 37.5zM866 -266h41q-4 23 -9 46t-11 46zM874 1014q4 -12 16.5 -10t14.5 14q2 18 -10 43q-6 -8 -14.5 -22.5 t-6.5 -24.5zM991 1059l4 -15q10 -14 25 -6q16 4 23.5 21.5t3.5 34.5q-2 10 -9.5 16t-21.5 -4q-20 -14 -25 -47zM997 4q12 14 15.5 36.5t2.5 47.5t-4 48.5t-3 39.5v127q0 16 1 29.5t-12 29.5h76q-10 -10 -13 -30.5t-2 -42t3 -43t2 -35.5v-166h104q23 0 55.5 -3t55.5 13 q-4 -8 -7 -29.5t-14 -21.5h-260zM1006 -135q29 4 64.5 6t62.5 -14q31 -23 22.5 -58t-37.5 -49q14 -6 21.5 -19.5t10.5 -28.5t5 -30.5t8 -27.5h-51q-6 12 -8 27.5t-6 28.5t-12.5 22.5t-26.5 7.5v-86h-53v221zM1057 -196.5q2 -24.5 2 -34.5h12q18 0 26.5 10t6.5 22.5 t-11.5 21.5t-27.5 7q-10 -2 -8 -26.5zM1065 416q10 12 11 25.5t1 27.5v248q0 14 -1 30.5t-11 28.5h127q25 -25 25.5 -59.5t-9.5 -67.5q-4 -8 -15 -29.5t-20.5 -45t-11.5 -45t10 -27.5q-6 12 4.5 13t21.5 -4t14 -14.5t-17 -17.5q-25 -10 -35 9.5t-8 35.5q0 16 6 32.5t8 31 t-4 22.5t-28 6v-155q16 0 41.5 -3t44.5 11q-6 -14 -8.5 -26.5t-6.5 -26.5h-139zM1098 362h78q-12 -29 2 -65.5t26 -60.5q12 29 22.5 62.5t0.5 63.5h80q-23 -12 -27 -38.5t-10 -47.5q-6 -20 -23.5 -47.5t-17.5 -48.5q0 -23 -3 -56.5t13 -51.5h-76q18 18 14.5 53.5t-3.5 58.5 q-12 23 -21.5 46.5t-17.5 45.5q-10 23 -14.5 46.5t-22.5 39.5zM1133 662q20 0 45.5 2t27.5 32q0 16 -7 23.5t-18.5 10.5t-24.5 3h-23v-71zM1192 -133h53v-223h-53v223zM1245 1092q-4 -10 1 -27.5t22 -3.5q12 12 21 33t11 39q-2 8 -4 13t-12 1q-16 -8 -25.5 -23.5 t-13.5 -31.5zM1274 -328q0 14 9 22.5t21.5 8.5t21.5 -8t9 -23q0 -16 -9 -23t-21.5 -7t-21.5 7t-9 23zM1294 813q-8 -6 4 -8q27 -10 57.5 -13.5t62.5 -3.5h62.5t59.5 -2t57.5 -5t57.5 -13q29 -8 51.5 -23.5t48.5 -27.5q0 61 -21.5 106t-80.5 68q35 31 69.5 58.5t75.5 43.5 q-49 47 -110.5 77t-126.5 46q-2 -57 -3.5 -112.5t-5.5 -112.5l-2 2v-6q-27 -2 -64.5 -4t-74.5 -9.5t-68.5 -21.5t-48.5 -39zM1364 -133h57l68 -152q-4 39 -4 77v75h47v-223h-51q-20 39 -37 78.5t-35 76.5q2 -39 2 -77.5v-77.5h-47v223zM1393 1157q16 20 31.5 40t19.5 46h-2 q-37 -37 -49 -86zM1562.5 -268q-8.5 37 14.5 80q12 29 40 43t62 14h10.5t17.5 -2t16.5 -4t7.5 -4l-9 -41q-27 12 -48 8t-36.5 -18.5t-20.5 -37t3 -46.5q16 -47 61 -41q10 2 8.5 21.5t-1.5 27.5h-27v41h76v-121q-41 -16 -79 -9t-62.5 29.5t-33 59.5z" />
<glyph unicode="4" d="M35 813q70 37 137.5 67.5t144.5 53.5q4 0 8.5 20.5t8.5 45t8 48t8 31.5q23 35 68 53.5t78 34.5q88 35 179 61.5t183 51.5q94 23 188.5 39t190.5 24q33 4 80 8.5t95 3.5t92 -12.5t71 -37.5q2 -4 -2 -29t-6 -33l-6 -98q0 -4 4 -4q78 -23 152.5 -58.5t123.5 -103.5v-2 q-16 4 -36.5 -3t-41 -20.5t-38 -28t-27.5 -26.5q31 -16 50 -47t27.5 -66.5t6.5 -72.5t-13 -68q-16 43 -49.5 66.5t-74.5 35t-85 14.5t-83 5q-45 4 -94.5 2t-92.5 14q-16 6 -22 25.5t-7 43t2 46.5t5 37q-184 -14 -363.5 -56t-351.5 -102q-8 -2 -8 -6q2 -10 8 -33.5t10 -50.5 t6 -49.5t-6 -28.5q-23 -18 -58.5 -21t-64.5 -7l-157 -25q-35 -8 -67 -17.5t-62 -21.5q-14 -8 -28.5 -13t-29.5 -16q-8 -8 -18 -20t-17 -16q10 35 24.5 67.5t27.5 63.5q2 6 13 25.5t21.5 41t18.5 39t6 21.5q-25 35 -58.5 67.5t-78.5 36.5zM86 -133h47q4 -41 7 -83t12 -83 q4 41 10 83t14 83h37l25 -166q4 41 9 83t9 83h43l-43 -223h-43q-6 37 -11 72.5t-9 70.5q-4 -35 -11.5 -70.5t-13.5 -72.5h-43zM90 819q68 -37 109 -108q2 -2 -4.5 -15.5t-14.5 -29t-15 -28.5t-9 -20q-25 -45 -41 -94q51 27 104 39t108.5 20.5t110 15.5t107.5 24 q-18 18 -47 25t-62 8t-65.5 -2t-55.5 -5v131t4 131q-59 -16 -116.5 -39.5t-112.5 -52.5zM305 -133h45q4 -41 8 -83t11 -83q4 41 10 83t14 83h39l23 -166q4 41 9 83t9 83h43l-43 -223h-41q-8 37 -13 72.5t-9 70.5q-4 -35 -10.5 -70.5t-12.5 -72.5h-45zM342 709q8 0 22.5 6 t29 15t27.5 18.5t23 13.5q37 16 75 29.5t77 27.5q78 23 155.5 43.5t159.5 38.5q78 16 155 31.5t157 21.5q72 8 154.5 11.5t152.5 -29.5q6 55 6 112.5t4 110.5q0 29 2 57.5t6 57.5q2 14 -6 22.5t-20.5 13.5t-26.5 7t-27 4q-119 18 -245.5 1t-245.5 -42q-129 -27 -255 -60.5 t-249 -86.5q-23 -12 -46.5 -24.5t-43.5 -29.5q-20 -16 -24.5 -49t-8.5 -55q-8 -66 -8 -132.5v-133.5zM367 825q0 23 15 38.5t36 19.5q6 2 15 -2t5 -15q-12 -8 -22 -8q-12 -4 -16.5 -16.5t1.5 -22.5q4 -4 8.5 -5t8.5 -3q20 -2 33.5 11.5t22.5 34t13.5 41t8.5 34.5 q-27 -27 -62 -35q-27 -4 -43 12q-16 8 -16 37q0 27 12 51q27 61 86 99q12 6 25.5 12t27.5 10q10 4 21.5 12.5t21.5 10.5q12 -1 6 -13q12 0 21 -2q16 -2 27.5 -15t13.5 -32q6 -43 -23.5 -83t-66.5 -62q-18 -12 -27.5 -31.5t-18.5 -39t-20.5 -38t-34.5 -28.5q-23 -16 -53 -11 q-12 4 -20 14.5t-6 24.5zM405.5 937q2.5 -15 22.5 -15q31 0 49.5 19.5t30.5 47t18.5 58.5t10.5 51q-29 -6 -52.5 -23.5t-44.5 -38.5q-6 -6 -15 -25.5t-15.5 -39t-4 -34.5zM522 -133h45l19 -166q4 41 10 83t14 83h39l25 -166q2 41 7 83t11 83h41l-41 -223h-43q-8 37 -12 73.5 t-10 73.5q-4 -37 -10.5 -73.5t-12.5 -73.5h-43zM530 950q14 4 29.5 19.5t26 35t14.5 40t0 34.5q-6 23 -33 23q-14 -37 -20.5 -75t-16.5 -77zM582 138q2 34 2 61q0 20 -1 38.5t1 38.5q0 49 26.5 67.5t73.5 18.5q37 0 54.5 -20t23.5 -50t4 -63.5t-2 -60.5v-80 q0 -47 -26.5 -66.5t-71.5 -17.5q-39 0 -56.5 20.5t-23.5 50t-4 63.5zM628 952.5q-5 20.5 6 46t31.5 46t43.5 22.5q12 0 16 -10q8 -12 2 -29q-6 -23 -27.5 -40t-44.5 -21q2 -12 10.5 -13.5t17.5 3t17.5 10.5t12.5 10q25 20 36 46t21 52q2 2 -1 9.5t-8 15.5t-8 17t-1 16 q10 27 34 22q12 0 17 -12q4 -10 2 -22.5t-2 -24.5q20 2 28.5 -1t-4.5 -28q-8 -16 -17 -33.5t-11 -36.5q0 -10 6 -10q20 0 34.5 20.5t26 46t22.5 51t25 34.5q8 2 17 -2q2 -4 2 -13q-4 -12 -10.5 -21t-1.5 -24q6 -12 13 -25.5t5 -27.5h2q20 25 32.5 60.5t45.5 52.5 q37 14 49 -21q10 -14 6 -25.5t-2 -27.5q8 2 14 10q16 12 18.5 35t8.5 41q4 4 11 5t12 -1q10 -2 8 -12v-2q10 10 24 16q10 6 17.5 2t11.5 -14q4 -12 1 -22.5t-8 -21.5t-10 -22.5t-3 -23.5q14 12 24 26.5t18.5 29.5t17.5 28.5t26 23.5q20 10 51 0q4 6 17 8.5t9 -14.5 q-4 -18 -14 -38.5t-10 -41.5q0 -14 8 -2q20 20 30.5 48t19.5 55.5t23.5 53t43.5 42.5q14 8 24 -8q12 -23 4 -48.5t-24 -41.5q-14 -18 -43 -44t-25 -53q4 -16 23 -12q14 6 21 19.5t16 25.5q4 2 12 2t8 -10l-4 -12q-16 -39 -53 -54q-25 -14 -43 15q-4 4 -4 10 q-10 -8 -16.5 -15.5t-18.5 -11.5q-10 -4 -16.5 0t-12.5 8q-4 -4 -12 -8t-16 -6q-31 -6 -43 21v2q-8 -10 -17.5 -17.5t-23.5 -11.5q-14 -8 -25 12q-6 12 -3 23.5t8 22t9 21.5t2 23q-18 -8 -25 -19t-11.5 -25.5t-6.5 -29t-8 -28.5q-6 -16 -24 -8q-8 2 -9 10q0 4 1 9t1 7 q-14 -4 -19 -4t-15 -10t-24.5 -18.5t-31.5 -8.5q-10 2 -16 8.5t-10 14.5q-16 -16 -40 -32.5t-50 -12.5q-16 2 -25 18q-25 -29 -51 -36q-29 -12 -33 20q-4 27 8.5 44t22.5 38q2 4 -3 5t-7 -3q-8 -20 -18.5 -44t-26 -45.5t-36 -34.5t-46.5 -11q-31 2 -36 22.5zM638 163 q-1 -38 1 -75q0 -16 9 -26.5t21.5 -14.5t24 1t15.5 24q2 12 2 27.5v29.5v147q0 16 -10.5 27.5t-22.5 16t-23.5 -2t-15.5 -22.5q-2 -14 -1 -29.5t1 -27.5q0 -37 -1 -75zM653 416q12 14 15.5 36.5t2.5 48t-4 49t-3 42.5v125q0 16 1 30.5t-12 28.5h76q-14 -12 -12 -32.5 t2 -36.5v-142q0 -16 -2 -49t10 -47q14 -23 37.5 -8.5t28.5 33.5q8 27 2.5 54t-9.5 54q-4 14 -10 38t-8 48.5t2 46t21 33.5q10 10 31.5 10t29.5 -16q6 -16 -2 -21.5t-18.5 -4.5t-17.5 8.5t1 15.5q-16 -8 -17 -28.5t6 -44t17 -46.5t15 -35q12 -37 17 -87t-22 -85 q-10 -14 -33.5 -19t-50 -5t-53 3t-41.5 3zM655 987q12 -2 28.5 15.5t18.5 27.5q4 8 -2 12.5t-12 -2.5q-10 -10 -18.5 -24.5t-14.5 -28.5zM715 -328q0 14 9 22.5t21.5 8.5t21.5 -8t9 -23q0 -16 -9 -23t-21.5 -7t-21.5 7t-9 23zM776 1124q-2 -8 4 -20h4q0 8 1 13t-1 13 q-6 0 -8 -6zM780 4q10 14 13.5 34.5t2.5 44t-4.5 46.5t-3.5 39v172q0 10 -8 22h58q29 -12 51 -50t35 -66q0 25 2 59.5t-13 56.5h74q-12 -10 -11 -24t1 -29v-246q0 -14 -1 -31.5t11 -27.5h-207zM797 -356l59 223h64l59 -223h-51l-15 51h-53l-10 -51h-53zM844 47 q0 -14 11 -23.5t25.5 -11.5t28 3.5t15.5 19.5q-4 63 -21.5 127.5t-58.5 116.5v-232zM865 506.5q-3 19.5 7 32.5q10 12 33 13t27 -22q0 -10 -7 -15t-15.5 -5t-14.5 4t-6 14q-12 -4 -12 -14t7 -20.5t17 -19.5t17 -11q14 -4 34.5 -4t30.5 10q20 20 16 40.5t-19 38t-35.5 32 t-31.5 24.5q-18 16 -30.5 42t-12.5 52.5t13.5 48t44.5 27.5q27 6 54.5 4t51.5 -2l-6 -10q0 -14 7 -29.5t13.5 -31t5.5 -29.5t-16 -27q-14 -10 -33.5 -9t-21.5 22q0 12 7 17t15.5 5t14.5 -5t4 -13q14 2 14 12t-8 21.5t-18.5 20.5t-18.5 11q-14 4 -32.5 1t-24.5 -19 q-12 -25 -4 -43.5t24.5 -32.5t37 -27.5t32.5 -27.5q14 -20 22.5 -47t4.5 -52.5t-20.5 -44t-47.5 -22.5q-27 -2 -53.5 -1t-54.5 1q8 4 5 19.5t-8.5 33.5t-8.5 37.5zM866 -266h41q-4 23 -9 46t-11 46zM874 1014q4 -12 16.5 -10t14.5 14q2 18 -10 43q-6 -8 -14.5 -22.5 t-6.5 -24.5zM991 1059l4 -15q10 -14 25 -6q16 4 23.5 21.5t3.5 34.5q-2 10 -9.5 16t-21.5 -4q-20 -14 -25 -47zM997 4q12 14 15.5 36.5t2.5 47.5t-4 48.5t-3 39.5v127q0 16 1 29.5t-12 29.5h76q-10 -10 -13 -30.5t-2 -42t3 -43t2 -35.5v-166h104q23 0 55.5 -3t55.5 13 q-4 -8 -7 -29.5t-14 -21.5h-260zM1006 -135q29 4 64.5 6t62.5 -14q31 -23 22.5 -58t-37.5 -49q14 -6 21.5 -19.5t10.5 -28.5t5 -30.5t8 -27.5h-51q-6 12 -8 27.5t-6 28.5t-12.5 22.5t-26.5 7.5v-86h-53v221zM1057 -196.5q2 -24.5 2 -34.5h12q18 0 26.5 10t6.5 22.5 t-11.5 21.5t-27.5 7q-10 -2 -8 -26.5zM1065 416q10 12 11 25.5t1 27.5v248q0 14 -1 30.5t-11 28.5h127q25 -25 25.5 -59.5t-9.5 -67.5q-4 -8 -15 -29.5t-20.5 -45t-11.5 -45t10 -27.5q-6 12 4.5 13t21.5 -4t14 -14.5t-17 -17.5q-25 -10 -35 9.5t-8 35.5q0 16 6 32.5t8 31 t-4 22.5t-28 6v-155q16 0 41.5 -3t44.5 11q-6 -14 -8.5 -26.5t-6.5 -26.5h-139zM1098 362h78q-12 -29 2 -65.5t26 -60.5q12 29 22.5 62.5t0.5 63.5h80q-23 -12 -27 -38.5t-10 -47.5q-6 -20 -23.5 -47.5t-17.5 -48.5q0 -23 -3 -56.5t13 -51.5h-76q18 18 14.5 53.5t-3.5 58.5 q-12 23 -21.5 46.5t-17.5 45.5q-10 23 -14.5 46.5t-22.5 39.5zM1133 662q20 0 45.5 2t27.5 32q0 16 -7 23.5t-18.5 10.5t-24.5 3h-23v-71zM1192 -133h53v-223h-53v223zM1245 1092q-4 -10 1 -27.5t22 -3.5q12 12 21 33t11 39q-2 8 -4 13t-12 1q-16 -8 -25.5 -23.5 t-13.5 -31.5zM1274 -328q0 14 9 22.5t21.5 8.5t21.5 -8t9 -23q0 -16 -9 -23t-21.5 -7t-21.5 7t-9 23zM1294 813q-8 -6 4 -8q27 -10 57.5 -13.5t62.5 -3.5h62.5t59.5 -2t57.5 -5t57.5 -13q29 -8 51.5 -23.5t48.5 -27.5q0 61 -21.5 106t-80.5 68q35 31 69.5 58.5t75.5 43.5 q-49 47 -110.5 77t-126.5 46q-2 -57 -3.5 -112.5t-5.5 -112.5l-2 2v-6q-27 -2 -64.5 -4t-74.5 -9.5t-68.5 -21.5t-48.5 -39zM1364 -133h57l68 -152q-4 39 -4 77v75h47v-223h-51q-20 39 -37 78.5t-35 76.5q2 -39 2 -77.5v-77.5h-47v223zM1393 1157q16 20 31.5 40t19.5 46h-2 q-37 -37 -49 -86zM1562.5 -268q-8.5 37 14.5 80q12 29 40 43t62 14h10.5t17.5 -2t16.5 -4t7.5 -4l-9 -41q-27 12 -48 8t-36.5 -18.5t-20.5 -37t3 -46.5q16 -47 61 -41q10 2 8.5 21.5t-1.5 27.5h-27v41h76v-121q-41 -16 -79 -9t-62.5 29.5t-33 59.5z" />
<glyph unicode="5" d="M35 813q70 37 137.5 67.5t144.5 53.5q4 0 8.5 20.5t8.5 45t8 48t8 31.5q23 35 68 53.5t78 34.5q88 35 179 61.5t183 51.5q94 23 188.5 39t190.5 24q33 4 80 8.5t95 3.5t92 -12.5t71 -37.5q2 -4 -2 -29t-6 -33l-6 -98q0 -4 4 -4q78 -23 152.5 -58.5t123.5 -103.5v-2 q-16 4 -36.5 -3t-41 -20.5t-38 -28t-27.5 -26.5q31 -16 50 -47t27.5 -66.5t6.5 -72.5t-13 -68q-16 43 -49.5 66.5t-74.5 35t-85 14.5t-83 5q-45 4 -94.5 2t-92.5 14q-16 6 -22 25.5t-7 43t2 46.5t5 37q-184 -14 -363.5 -56t-351.5 -102q-8 -2 -8 -6q2 -10 8 -33.5t10 -50.5 t6 -49.5t-6 -28.5q-23 -18 -58.5 -21t-64.5 -7l-157 -25q-35 -8 -67 -17.5t-62 -21.5q-14 -8 -28.5 -13t-29.5 -16q-8 -8 -18 -20t-17 -16q10 35 24.5 67.5t27.5 63.5q2 6 13 25.5t21.5 41t18.5 39t6 21.5q-25 35 -58.5 67.5t-78.5 36.5zM86 -133h47q4 -41 7 -83t12 -83 q4 41 10 83t14 83h37l25 -166q4 41 9 83t9 83h43l-43 -223h-43q-6 37 -11 72.5t-9 70.5q-4 -35 -11.5 -70.5t-13.5 -72.5h-43zM90 819q68 -37 109 -108q2 -2 -4.5 -15.5t-14.5 -29t-15 -28.5t-9 -20q-25 -45 -41 -94q51 27 104 39t108.5 20.5t110 15.5t107.5 24 q-18 18 -47 25t-62 8t-65.5 -2t-55.5 -5v131t4 131q-59 -16 -116.5 -39.5t-112.5 -52.5zM305 -133h45q4 -41 8 -83t11 -83q4 41 10 83t14 83h39l23 -166q4 41 9 83t9 83h43l-43 -223h-41q-8 37 -13 72.5t-9 70.5q-4 -35 -10.5 -70.5t-12.5 -72.5h-45zM342 709q8 0 22.5 6 t29 15t27.5 18.5t23 13.5q37 16 75 29.5t77 27.5q78 23 155.5 43.5t159.5 38.5q78 16 155 31.5t157 21.5q72 8 154.5 11.5t152.5 -29.5q6 55 6 112.5t4 110.5q0 29 2 57.5t6 57.5q2 14 -6 22.5t-20.5 13.5t-26.5 7t-27 4q-119 18 -245.5 1t-245.5 -42q-129 -27 -255 -60.5 t-249 -86.5q-23 -12 -46.5 -24.5t-43.5 -29.5q-20 -16 -24.5 -49t-8.5 -55q-8 -66 -8 -132.5v-133.5zM367 825q0 23 15 38.5t36 19.5q6 2 15 -2t5 -15q-12 -8 -22 -8q-12 -4 -16.5 -16.5t1.5 -22.5q4 -4 8.5 -5t8.5 -3q20 -2 33.5 11.5t22.5 34t13.5 41t8.5 34.5 q-27 -27 -62 -35q-27 -4 -43 12q-16 8 -16 37q0 27 12 51q27 61 86 99q12 6 25.5 12t27.5 10q10 4 21.5 12.5t21.5 10.5q12 -1 6 -13q12 0 21 -2q16 -2 27.5 -15t13.5 -32q6 -43 -23.5 -83t-66.5 -62q-18 -12 -27.5 -31.5t-18.5 -39t-20.5 -38t-34.5 -28.5q-23 -16 -53 -11 q-12 4 -20 14.5t-6 24.5zM405.5 937q2.5 -15 22.5 -15q31 0 49.5 19.5t30.5 47t18.5 58.5t10.5 51q-29 -6 -52.5 -23.5t-44.5 -38.5q-6 -6 -15 -25.5t-15.5 -39t-4 -34.5zM522 -133h45l19 -166q4 41 10 83t14 83h39l25 -166q2 41 7 83t11 83h41l-41 -223h-43q-8 37 -12 73.5 t-10 73.5q-4 -37 -10.5 -73.5t-12.5 -73.5h-43zM530 950q14 4 29.5 19.5t26 35t14.5 40t0 34.5q-6 23 -33 23q-14 -37 -20.5 -75t-16.5 -77zM582 138q2 34 2 61q0 20 -1 38.5t1 38.5q0 49 26.5 67.5t73.5 18.5q37 0 54.5 -20t23.5 -50t4 -63.5t-2 -60.5v-80 q0 -47 -26.5 -66.5t-71.5 -17.5q-39 0 -56.5 20.5t-23.5 50t-4 63.5zM628 952.5q-5 20.5 6 46t31.5 46t43.5 22.5q12 0 16 -10q8 -12 2 -29q-6 -23 -27.5 -40t-44.5 -21q2 -12 10.5 -13.5t17.5 3t17.5 10.5t12.5 10q25 20 36 46t21 52q2 2 -1 9.5t-8 15.5t-8 17t-1 16 q10 27 34 22q12 0 17 -12q4 -10 2 -22.5t-2 -24.5q20 2 28.5 -1t-4.5 -28q-8 -16 -17 -33.5t-11 -36.5q0 -10 6 -10q20 0 34.5 20.5t26 46t22.5 51t25 34.5q8 2 17 -2q2 -4 2 -13q-4 -12 -10.5 -21t-1.5 -24q6 -12 13 -25.5t5 -27.5h2q20 25 32.5 60.5t45.5 52.5 q37 14 49 -21q10 -14 6 -25.5t-2 -27.5q8 2 14 10q16 12 18.5 35t8.5 41q4 4 11 5t12 -1q10 -2 8 -12v-2q10 10 24 16q10 6 17.5 2t11.5 -14q4 -12 1 -22.5t-8 -21.5t-10 -22.5t-3 -23.5q14 12 24 26.5t18.5 29.5t17.5 28.5t26 23.5q20 10 51 0q4 6 17 8.5t9 -14.5 q-4 -18 -14 -38.5t-10 -41.5q0 -14 8 -2q20 20 30.5 48t19.5 55.5t23.5 53t43.5 42.5q14 8 24 -8q12 -23 4 -48.5t-24 -41.5q-14 -18 -43 -44t-25 -53q4 -16 23 -12q14 6 21 19.5t16 25.5q4 2 12 2t8 -10l-4 -12q-16 -39 -53 -54q-25 -14 -43 15q-4 4 -4 10 q-10 -8 -16.5 -15.5t-18.5 -11.5q-10 -4 -16.5 0t-12.5 8q-4 -4 -12 -8t-16 -6q-31 -6 -43 21v2q-8 -10 -17.5 -17.5t-23.5 -11.5q-14 -8 -25 12q-6 12 -3 23.5t8 22t9 21.5t2 23q-18 -8 -25 -19t-11.5 -25.5t-6.5 -29t-8 -28.5q-6 -16 -24 -8q-8 2 -9 10q0 4 1 9t1 7 q-14 -4 -19 -4t-15 -10t-24.5 -18.5t-31.5 -8.5q-10 2 -16 8.5t-10 14.5q-16 -16 -40 -32.5t-50 -12.5q-16 2 -25 18q-25 -29 -51 -36q-29 -12 -33 20q-4 27 8.5 44t22.5 38q2 4 -3 5t-7 -3q-8 -20 -18.5 -44t-26 -45.5t-36 -34.5t-46.5 -11q-31 2 -36 22.5zM638 163 q-1 -38 1 -75q0 -16 9 -26.5t21.5 -14.5t24 1t15.5 24q2 12 2 27.5v29.5v147q0 16 -10.5 27.5t-22.5 16t-23.5 -2t-15.5 -22.5q-2 -14 -1 -29.5t1 -27.5q0 -37 -1 -75zM653 416q12 14 15.5 36.5t2.5 48t-4 49t-3 42.5v125q0 16 1 30.5t-12 28.5h76q-14 -12 -12 -32.5 t2 -36.5v-142q0 -16 -2 -49t10 -47q14 -23 37.5 -8.5t28.5 33.5q8 27 2.5 54t-9.5 54q-4 14 -10 38t-8 48.5t2 46t21 33.5q10 10 31.5 10t29.5 -16q6 -16 -2 -21.5t-18.5 -4.5t-17.5 8.5t1 15.5q-16 -8 -17 -28.5t6 -44t17 -46.5t15 -35q12 -37 17 -87t-22 -85 q-10 -14 -33.5 -19t-50 -5t-53 3t-41.5 3zM655 987q12 -2 28.5 15.5t18.5 27.5q4 8 -2 12.5t-12 -2.5q-10 -10 -18.5 -24.5t-14.5 -28.5zM715 -328q0 14 9 22.5t21.5 8.5t21.5 -8t9 -23q0 -16 -9 -23t-21.5 -7t-21.5 7t-9 23zM776 1124q-2 -8 4 -20h4q0 8 1 13t-1 13 q-6 0 -8 -6zM780 4q10 14 13.5 34.5t2.5 44t-4.5 46.5t-3.5 39v172q0 10 -8 22h58q29 -12 51 -50t35 -66q0 25 2 59.5t-13 56.5h74q-12 -10 -11 -24t1 -29v-246q0 -14 -1 -31.5t11 -27.5h-207zM797 -356l59 223h64l59 -223h-51l-15 51h-53l-10 -51h-53zM844 47 q0 -14 11 -23.5t25.5 -11.5t28 3.5t15.5 19.5q-4 63 -21.5 127.5t-58.5 116.5v-232zM865 506.5q-3 19.5 7 32.5q10 12 33 13t27 -22q0 -10 -7 -15t-15.5 -5t-14.5 4t-6 14q-12 -4 -12 -14t7 -20.5t17 -19.5t17 -11q14 -4 34.5 -4t30.5 10q20 20 16 40.5t-19 38t-35.5 32 t-31.5 24.5q-18 16 -30.5 42t-12.5 52.5t13.5 48t44.5 27.5q27 6 54.5 4t51.5 -2l-6 -10q0 -14 7 -29.5t13.5 -31t5.5 -29.5t-16 -27q-14 -10 -33.5 -9t-21.5 22q0 12 7 17t15.5 5t14.5 -5t4 -13q14 2 14 12t-8 21.5t-18.5 20.5t-18.5 11q-14 4 -32.5 1t-24.5 -19 q-12 -25 -4 -43.5t24.5 -32.5t37 -27.5t32.5 -27.5q14 -20 22.5 -47t4.5 -52.5t-20.5 -44t-47.5 -22.5q-27 -2 -53.5 -1t-54.5 1q8 4 5 19.5t-8.5 33.5t-8.5 37.5zM866 -266h41q-4 23 -9 46t-11 46zM874 1014q4 -12 16.5 -10t14.5 14q2 18 -10 43q-6 -8 -14.5 -22.5 t-6.5 -24.5zM991 1059l4 -15q10 -14 25 -6q16 4 23.5 21.5t3.5 34.5q-2 10 -9.5 16t-21.5 -4q-20 -14 -25 -47zM997 4q12 14 15.5 36.5t2.5 47.5t-4 48.5t-3 39.5v127q0 16 1 29.5t-12 29.5h76q-10 -10 -13 -30.5t-2 -42t3 -43t2 -35.5v-166h104q23 0 55.5 -3t55.5 13 q-4 -8 -7 -29.5t-14 -21.5h-260zM1006 -135q29 4 64.5 6t62.5 -14q31 -23 22.5 -58t-37.5 -49q14 -6 21.5 -19.5t10.5 -28.5t5 -30.5t8 -27.5h-51q-6 12 -8 27.5t-6 28.5t-12.5 22.5t-26.5 7.5v-86h-53v221zM1057 -196.5q2 -24.5 2 -34.5h12q18 0 26.5 10t6.5 22.5 t-11.5 21.5t-27.5 7q-10 -2 -8 -26.5zM1065 416q10 12 11 25.5t1 27.5v248q0 14 -1 30.5t-11 28.5h127q25 -25 25.5 -59.5t-9.5 -67.5q-4 -8 -15 -29.5t-20.5 -45t-11.5 -45t10 -27.5q-6 12 4.5 13t21.5 -4t14 -14.5t-17 -17.5q-25 -10 -35 9.5t-8 35.5q0 16 6 32.5t8 31 t-4 22.5t-28 6v-155q16 0 41.5 -3t44.5 11q-6 -14 -8.5 -26.5t-6.5 -26.5h-139zM1098 362h78q-12 -29 2 -65.5t26 -60.5q12 29 22.5 62.5t0.5 63.5h80q-23 -12 -27 -38.5t-10 -47.5q-6 -20 -23.5 -47.5t-17.5 -48.5q0 -23 -3 -56.5t13 -51.5h-76q18 18 14.5 53.5t-3.5 58.5 q-12 23 -21.5 46.5t-17.5 45.5q-10 23 -14.5 46.5t-22.5 39.5zM1133 662q20 0 45.5 2t27.5 32q0 16 -7 23.5t-18.5 10.5t-24.5 3h-23v-71zM1192 -133h53v-223h-53v223zM1245 1092q-4 -10 1 -27.5t22 -3.5q12 12 21 33t11 39q-2 8 -4 13t-12 1q-16 -8 -25.5 -23.5 t-13.5 -31.5zM1274 -328q0 14 9 22.5t21.5 8.5t21.5 -8t9 -23q0 -16 -9 -23t-21.5 -7t-21.5 7t-9 23zM1294 813q-8 -6 4 -8q27 -10 57.5 -13.5t62.5 -3.5h62.5t59.5 -2t57.5 -5t57.5 -13q29 -8 51.5 -23.5t48.5 -27.5q0 61 -21.5 106t-80.5 68q35 31 69.5 58.5t75.5 43.5 q-49 47 -110.5 77t-126.5 46q-2 -57 -3.5 -112.5t-5.5 -112.5l-2 2v-6q-27 -2 -64.5 -4t-74.5 -9.5t-68.5 -21.5t-48.5 -39zM1364 -133h57l68 -152q-4 39 -4 77v75h47v-223h-51q-20 39 -37 78.5t-35 76.5q2 -39 2 -77.5v-77.5h-47v223zM1393 1157q16 20 31.5 40t19.5 46h-2 q-37 -37 -49 -86zM1562.5 -268q-8.5 37 14.5 80q12 29 40 43t62 14h10.5t17.5 -2t16.5 -4t7.5 -4l-9 -41q-27 12 -48 8t-36.5 -18.5t-20.5 -37t3 -46.5q16 -47 61 -41q10 2 8.5 21.5t-1.5 27.5h-27v41h76v-121q-41 -16 -79 -9t-62.5 29.5t-33 59.5z" />
<glyph unicode="6" d="M35 813q70 37 137.5 67.5t144.5 53.5q4 0 8.5 20.5t8.5 45t8 48t8 31.5q23 35 68 53.5t78 34.5q88 35 179 61.5t183 51.5q94 23 188.5 39t190.5 24q33 4 80 8.5t95 3.5t92 -12.5t71 -37.5q2 -4 -2 -29t-6 -33l-6 -98q0 -4 4 -4q78 -23 152.5 -58.5t123.5 -103.5v-2 q-16 4 -36.5 -3t-41 -20.5t-38 -28t-27.5 -26.5q31 -16 50 -47t27.5 -66.5t6.5 -72.5t-13 -68q-16 43 -49.5 66.5t-74.5 35t-85 14.5t-83 5q-45 4 -94.5 2t-92.5 14q-16 6 -22 25.5t-7 43t2 46.5t5 37q-184 -14 -363.5 -56t-351.5 -102q-8 -2 -8 -6q2 -10 8 -33.5t10 -50.5 t6 -49.5t-6 -28.5q-23 -18 -58.5 -21t-64.5 -7l-157 -25q-35 -8 -67 -17.5t-62 -21.5q-14 -8 -28.5 -13t-29.5 -16q-8 -8 -18 -20t-17 -16q10 35 24.5 67.5t27.5 63.5q2 6 13 25.5t21.5 41t18.5 39t6 21.5q-25 35 -58.5 67.5t-78.5 36.5zM86 -133h47q4 -41 7 -83t12 -83 q4 41 10 83t14 83h37l25 -166q4 41 9 83t9 83h43l-43 -223h-43q-6 37 -11 72.5t-9 70.5q-4 -35 -11.5 -70.5t-13.5 -72.5h-43zM90 819q68 -37 109 -108q2 -2 -4.5 -15.5t-14.5 -29t-15 -28.5t-9 -20q-25 -45 -41 -94q51 27 104 39t108.5 20.5t110 15.5t107.5 24 q-18 18 -47 25t-62 8t-65.5 -2t-55.5 -5v131t4 131q-59 -16 -116.5 -39.5t-112.5 -52.5zM305 -133h45q4 -41 8 -83t11 -83q4 41 10 83t14 83h39l23 -166q4 41 9 83t9 83h43l-43 -223h-41q-8 37 -13 72.5t-9 70.5q-4 -35 -10.5 -70.5t-12.5 -72.5h-45zM342 709q8 0 22.5 6 t29 15t27.5 18.5t23 13.5q37 16 75 29.5t77 27.5q78 23 155.5 43.5t159.5 38.5q78 16 155 31.5t157 21.5q72 8 154.5 11.5t152.5 -29.5q6 55 6 112.5t4 110.5q0 29 2 57.5t6 57.5q2 14 -6 22.5t-20.5 13.5t-26.5 7t-27 4q-119 18 -245.5 1t-245.5 -42q-129 -27 -255 -60.5 t-249 -86.5q-23 -12 -46.5 -24.5t-43.5 -29.5q-20 -16 -24.5 -49t-8.5 -55q-8 -66 -8 -132.5v-133.5zM367 825q0 23 15 38.5t36 19.5q6 2 15 -2t5 -15q-12 -8 -22 -8q-12 -4 -16.5 -16.5t1.5 -22.5q4 -4 8.5 -5t8.5 -3q20 -2 33.5 11.5t22.5 34t13.5 41t8.5 34.5 q-27 -27 -62 -35q-27 -4 -43 12q-16 8 -16 37q0 27 12 51q27 61 86 99q12 6 25.5 12t27.5 10q10 4 21.5 12.5t21.5 10.5q12 -1 6 -13q12 0 21 -2q16 -2 27.5 -15t13.5 -32q6 -43 -23.5 -83t-66.5 -62q-18 -12 -27.5 -31.5t-18.5 -39t-20.5 -38t-34.5 -28.5q-23 -16 -53 -11 q-12 4 -20 14.5t-6 24.5zM405.5 937q2.5 -15 22.5 -15q31 0 49.5 19.5t30.5 47t18.5 58.5t10.5 51q-29 -6 -52.5 -23.5t-44.5 -38.5q-6 -6 -15 -25.5t-15.5 -39t-4 -34.5zM522 -133h45l19 -166q4 41 10 83t14 83h39l25 -166q2 41 7 83t11 83h41l-41 -223h-43q-8 37 -12 73.5 t-10 73.5q-4 -37 -10.5 -73.5t-12.5 -73.5h-43zM530 950q14 4 29.5 19.5t26 35t14.5 40t0 34.5q-6 23 -33 23q-14 -37 -20.5 -75t-16.5 -77zM582 138q2 34 2 61q0 20 -1 38.5t1 38.5q0 49 26.5 67.5t73.5 18.5q37 0 54.5 -20t23.5 -50t4 -63.5t-2 -60.5v-80 q0 -47 -26.5 -66.5t-71.5 -17.5q-39 0 -56.5 20.5t-23.5 50t-4 63.5zM628 952.5q-5 20.5 6 46t31.5 46t43.5 22.5q12 0 16 -10q8 -12 2 -29q-6 -23 -27.5 -40t-44.5 -21q2 -12 10.5 -13.5t17.5 3t17.5 10.5t12.5 10q25 20 36 46t21 52q2 2 -1 9.5t-8 15.5t-8 17t-1 16 q10 27 34 22q12 0 17 -12q4 -10 2 -22.5t-2 -24.5q20 2 28.5 -1t-4.5 -28q-8 -16 -17 -33.5t-11 -36.5q0 -10 6 -10q20 0 34.5 20.5t26 46t22.5 51t25 34.5q8 2 17 -2q2 -4 2 -13q-4 -12 -10.5 -21t-1.5 -24q6 -12 13 -25.5t5 -27.5h2q20 25 32.5 60.5t45.5 52.5 q37 14 49 -21q10 -14 6 -25.5t-2 -27.5q8 2 14 10q16 12 18.5 35t8.5 41q4 4 11 5t12 -1q10 -2 8 -12v-2q10 10 24 16q10 6 17.5 2t11.5 -14q4 -12 1 -22.5t-8 -21.5t-10 -22.5t-3 -23.5q14 12 24 26.5t18.5 29.5t17.5 28.5t26 23.5q20 10 51 0q4 6 17 8.5t9 -14.5 q-4 -18 -14 -38.5t-10 -41.5q0 -14 8 -2q20 20 30.5 48t19.5 55.5t23.5 53t43.5 42.5q14 8 24 -8q12 -23 4 -48.5t-24 -41.5q-14 -18 -43 -44t-25 -53q4 -16 23 -12q14 6 21 19.5t16 25.5q4 2 12 2t8 -10l-4 -12q-16 -39 -53 -54q-25 -14 -43 15q-4 4 -4 10 q-10 -8 -16.5 -15.5t-18.5 -11.5q-10 -4 -16.5 0t-12.5 8q-4 -4 -12 -8t-16 -6q-31 -6 -43 21v2q-8 -10 -17.5 -17.5t-23.5 -11.5q-14 -8 -25 12q-6 12 -3 23.5t8 22t9 21.5t2 23q-18 -8 -25 -19t-11.5 -25.5t-6.5 -29t-8 -28.5q-6 -16 -24 -8q-8 2 -9 10q0 4 1 9t1 7 q-14 -4 -19 -4t-15 -10t-24.5 -18.5t-31.5 -8.5q-10 2 -16 8.5t-10 14.5q-16 -16 -40 -32.5t-50 -12.5q-16 2 -25 18q-25 -29 -51 -36q-29 -12 -33 20q-4 27 8.5 44t22.5 38q2 4 -3 5t-7 -3q-8 -20 -18.5 -44t-26 -45.5t-36 -34.5t-46.5 -11q-31 2 -36 22.5zM638 163 q-1 -38 1 -75q0 -16 9 -26.5t21.5 -14.5t24 1t15.5 24q2 12 2 27.5v29.5v147q0 16 -10.5 27.5t-22.5 16t-23.5 -2t-15.5 -22.5q-2 -14 -1 -29.5t1 -27.5q0 -37 -1 -75zM653 416q12 14 15.5 36.5t2.5 48t-4 49t-3 42.5v125q0 16 1 30.5t-12 28.5h76q-14 -12 -12 -32.5 t2 -36.5v-142q0 -16 -2 -49t10 -47q14 -23 37.5 -8.5t28.5 33.5q8 27 2.5 54t-9.5 54q-4 14 -10 38t-8 48.5t2 46t21 33.5q10 10 31.5 10t29.5 -16q6 -16 -2 -21.5t-18.5 -4.5t-17.5 8.5t1 15.5q-16 -8 -17 -28.5t6 -44t17 -46.5t15 -35q12 -37 17 -87t-22 -85 q-10 -14 -33.5 -19t-50 -5t-53 3t-41.5 3zM655 987q12 -2 28.5 15.5t18.5 27.5q4 8 -2 12.5t-12 -2.5q-10 -10 -18.5 -24.5t-14.5 -28.5zM715 -328q0 14 9 22.5t21.5 8.5t21.5 -8t9 -23q0 -16 -9 -23t-21.5 -7t-21.5 7t-9 23zM776 1124q-2 -8 4 -20h4q0 8 1 13t-1 13 q-6 0 -8 -6zM780 4q10 14 13.5 34.5t2.5 44t-4.5 46.5t-3.5 39v172q0 10 -8 22h58q29 -12 51 -50t35 -66q0 25 2 59.5t-13 56.5h74q-12 -10 -11 -24t1 -29v-246q0 -14 -1 -31.5t11 -27.5h-207zM797 -356l59 223h64l59 -223h-51l-15 51h-53l-10 -51h-53zM844 47 q0 -14 11 -23.5t25.5 -11.5t28 3.5t15.5 19.5q-4 63 -21.5 127.5t-58.5 116.5v-232zM865 506.5q-3 19.5 7 32.5q10 12 33 13t27 -22q0 -10 -7 -15t-15.5 -5t-14.5 4t-6 14q-12 -4 -12 -14t7 -20.5t17 -19.5t17 -11q14 -4 34.5 -4t30.5 10q20 20 16 40.5t-19 38t-35.5 32 t-31.5 24.5q-18 16 -30.5 42t-12.5 52.5t13.5 48t44.5 27.5q27 6 54.5 4t51.5 -2l-6 -10q0 -14 7 -29.5t13.5 -31t5.5 -29.5t-16 -27q-14 -10 -33.5 -9t-21.5 22q0 12 7 17t15.5 5t14.5 -5t4 -13q14 2 14 12t-8 21.5t-18.5 20.5t-18.5 11q-14 4 -32.5 1t-24.5 -19 q-12 -25 -4 -43.5t24.5 -32.5t37 -27.5t32.5 -27.5q14 -20 22.5 -47t4.5 -52.5t-20.5 -44t-47.5 -22.5q-27 -2 -53.5 -1t-54.5 1q8 4 5 19.5t-8.5 33.5t-8.5 37.5zM866 -266h41q-4 23 -9 46t-11 46zM874 1014q4 -12 16.5 -10t14.5 14q2 18 -10 43q-6 -8 -14.5 -22.5 t-6.5 -24.5zM991 1059l4 -15q10 -14 25 -6q16 4 23.5 21.5t3.5 34.5q-2 10 -9.5 16t-21.5 -4q-20 -14 -25 -47zM997 4q12 14 15.5 36.5t2.5 47.5t-4 48.5t-3 39.5v127q0 16 1 29.5t-12 29.5h76q-10 -10 -13 -30.5t-2 -42t3 -43t2 -35.5v-166h104q23 0 55.5 -3t55.5 13 q-4 -8 -7 -29.5t-14 -21.5h-260zM1006 -135q29 4 64.5 6t62.5 -14q31 -23 22.5 -58t-37.5 -49q14 -6 21.5 -19.5t10.5 -28.5t5 -30.5t8 -27.5h-51q-6 12 -8 27.5t-6 28.5t-12.5 22.5t-26.5 7.5v-86h-53v221zM1057 -196.5q2 -24.5 2 -34.5h12q18 0 26.5 10t6.5 22.5 t-11.5 21.5t-27.5 7q-10 -2 -8 -26.5zM1065 416q10 12 11 25.5t1 27.5v248q0 14 -1 30.5t-11 28.5h127q25 -25 25.5 -59.5t-9.5 -67.5q-4 -8 -15 -29.5t-20.5 -45t-11.5 -45t10 -27.5q-6 12 4.5 13t21.5 -4t14 -14.5t-17 -17.5q-25 -10 -35 9.5t-8 35.5q0 16 6 32.5t8 31 t-4 22.5t-28 6v-155q16 0 41.5 -3t44.5 11q-6 -14 -8.5 -26.5t-6.5 -26.5h-139zM1098 362h78q-12 -29 2 -65.5t26 -60.5q12 29 22.5 62.5t0.5 63.5h80q-23 -12 -27 -38.5t-10 -47.5q-6 -20 -23.5 -47.5t-17.5 -48.5q0 -23 -3 -56.5t13 -51.5h-76q18 18 14.5 53.5t-3.5 58.5 q-12 23 -21.5 46.5t-17.5 45.5q-10 23 -14.5 46.5t-22.5 39.5zM1133 662q20 0 45.5 2t27.5 32q0 16 -7 23.5t-18.5 10.5t-24.5 3h-23v-71zM1192 -133h53v-223h-53v223zM1245 1092q-4 -10 1 -27.5t22 -3.5q12 12 21 33t11 39q-2 8 -4 13t-12 1q-16 -8 -25.5 -23.5 t-13.5 -31.5zM1274 -328q0 14 9 22.5t21.5 8.5t21.5 -8t9 -23q0 -16 -9 -23t-21.5 -7t-21.5 7t-9 23zM1294 813q-8 -6 4 -8q27 -10 57.5 -13.5t62.5 -3.5h62.5t59.5 -2t57.5 -5t57.5 -13q29 -8 51.5 -23.5t48.5 -27.5q0 61 -21.5 106t-80.5 68q35 31 69.5 58.5t75.5 43.5 q-49 47 -110.5 77t-126.5 46q-2 -57 -3.5 -112.5t-5.5 -112.5l-2 2v-6q-27 -2 -64.5 -4t-74.5 -9.5t-68.5 -21.5t-48.5 -39zM1364 -133h57l68 -152q-4 39 -4 77v75h47v-223h-51q-20 39 -37 78.5t-35 76.5q2 -39 2 -77.5v-77.5h-47v223zM1393 1157q16 20 31.5 40t19.5 46h-2 q-37 -37 -49 -86zM1562.5 -268q-8.5 37 14.5 80q12 29 40 43t62 14h10.5t17.5 -2t16.5 -4t7.5 -4l-9 -41q-27 12 -48 8t-36.5 -18.5t-20.5 -37t3 -46.5q16 -47 61 -41q10 2 8.5 21.5t-1.5 27.5h-27v41h76v-121q-41 -16 -79 -9t-62.5 29.5t-33 59.5z" />
<glyph unicode="7" d="M35 813q70 37 137.5 67.5t144.5 53.5q4 0 8.5 20.5t8.5 45t8 48t8 31.5q23 35 68 53.5t78 34.5q88 35 179 61.5t183 51.5q94 23 188.5 39t190.5 24q33 4 80 8.5t95 3.5t92 -12.5t71 -37.5q2 -4 -2 -29t-6 -33l-6 -98q0 -4 4 -4q78 -23 152.5 -58.5t123.5 -103.5v-2 q-16 4 -36.5 -3t-41 -20.5t-38 -28t-27.5 -26.5q31 -16 50 -47t27.5 -66.5t6.5 -72.5t-13 -68q-16 43 -49.5 66.5t-74.5 35t-85 14.5t-83 5q-45 4 -94.5 2t-92.5 14q-16 6 -22 25.5t-7 43t2 46.5t5 37q-184 -14 -363.5 -56t-351.5 -102q-8 -2 -8 -6q2 -10 8 -33.5t10 -50.5 t6 -49.5t-6 -28.5q-23 -18 -58.5 -21t-64.5 -7l-157 -25q-35 -8 -67 -17.5t-62 -21.5q-14 -8 -28.5 -13t-29.5 -16q-8 -8 -18 -20t-17 -16q10 35 24.5 67.5t27.5 63.5q2 6 13 25.5t21.5 41t18.5 39t6 21.5q-25 35 -58.5 67.5t-78.5 36.5zM86 -133h47q4 -41 7 -83t12 -83 q4 41 10 83t14 83h37l25 -166q4 41 9 83t9 83h43l-43 -223h-43q-6 37 -11 72.5t-9 70.5q-4 -35 -11.5 -70.5t-13.5 -72.5h-43zM90 819q68 -37 109 -108q2 -2 -4.5 -15.5t-14.5 -29t-15 -28.5t-9 -20q-25 -45 -41 -94q51 27 104 39t108.5 20.5t110 15.5t107.5 24 q-18 18 -47 25t-62 8t-65.5 -2t-55.5 -5v131t4 131q-59 -16 -116.5 -39.5t-112.5 -52.5zM305 -133h45q4 -41 8 -83t11 -83q4 41 10 83t14 83h39l23 -166q4 41 9 83t9 83h43l-43 -223h-41q-8 37 -13 72.5t-9 70.5q-4 -35 -10.5 -70.5t-12.5 -72.5h-45zM342 709q8 0 22.5 6 t29 15t27.5 18.5t23 13.5q37 16 75 29.5t77 27.5q78 23 155.5 43.5t159.5 38.5q78 16 155 31.5t157 21.5q72 8 154.5 11.5t152.5 -29.5q6 55 6 112.5t4 110.5q0 29 2 57.5t6 57.5q2 14 -6 22.5t-20.5 13.5t-26.5 7t-27 4q-119 18 -245.5 1t-245.5 -42q-129 -27 -255 -60.5 t-249 -86.5q-23 -12 -46.5 -24.5t-43.5 -29.5q-20 -16 -24.5 -49t-8.5 -55q-8 -66 -8 -132.5v-133.5zM367 825q0 23 15 38.5t36 19.5q6 2 15 -2t5 -15q-12 -8 -22 -8q-12 -4 -16.5 -16.5t1.5 -22.5q4 -4 8.5 -5t8.5 -3q20 -2 33.5 11.5t22.5 34t13.5 41t8.5 34.5 q-27 -27 -62 -35q-27 -4 -43 12q-16 8 -16 37q0 27 12 51q27 61 86 99q12 6 25.5 12t27.5 10q10 4 21.5 12.5t21.5 10.5q12 -1 6 -13q12 0 21 -2q16 -2 27.5 -15t13.5 -32q6 -43 -23.5 -83t-66.5 -62q-18 -12 -27.5 -31.5t-18.5 -39t-20.5 -38t-34.5 -28.5q-23 -16 -53 -11 q-12 4 -20 14.5t-6 24.5zM405.5 937q2.5 -15 22.5 -15q31 0 49.5 19.5t30.5 47t18.5 58.5t10.5 51q-29 -6 -52.5 -23.5t-44.5 -38.5q-6 -6 -15 -25.5t-15.5 -39t-4 -34.5zM522 -133h45l19 -166q4 41 10 83t14 83h39l25 -166q2 41 7 83t11 83h41l-41 -223h-43q-8 37 -12 73.5 t-10 73.5q-4 -37 -10.5 -73.5t-12.5 -73.5h-43zM530 950q14 4 29.5 19.5t26 35t14.5 40t0 34.5q-6 23 -33 23q-14 -37 -20.5 -75t-16.5 -77zM582 138q2 34 2 61q0 20 -1 38.5t1 38.5q0 49 26.5 67.5t73.5 18.5q37 0 54.5 -20t23.5 -50t4 -63.5t-2 -60.5v-80 q0 -47 -26.5 -66.5t-71.5 -17.5q-39 0 -56.5 20.5t-23.5 50t-4 63.5zM628 952.5q-5 20.5 6 46t31.5 46t43.5 22.5q12 0 16 -10q8 -12 2 -29q-6 -23 -27.5 -40t-44.5 -21q2 -12 10.5 -13.5t17.5 3t17.5 10.5t12.5 10q25 20 36 46t21 52q2 2 -1 9.5t-8 15.5t-8 17t-1 16 q10 27 34 22q12 0 17 -12q4 -10 2 -22.5t-2 -24.5q20 2 28.5 -1t-4.5 -28q-8 -16 -17 -33.5t-11 -36.5q0 -10 6 -10q20 0 34.5 20.5t26 46t22.5 51t25 34.5q8 2 17 -2q2 -4 2 -13q-4 -12 -10.5 -21t-1.5 -24q6 -12 13 -25.5t5 -27.5h2q20 25 32.5 60.5t45.5 52.5 q37 14 49 -21q10 -14 6 -25.5t-2 -27.5q8 2 14 10q16 12 18.5 35t8.5 41q4 4 11 5t12 -1q10 -2 8 -12v-2q10 10 24 16q10 6 17.5 2t11.5 -14q4 -12 1 -22.5t-8 -21.5t-10 -22.5t-3 -23.5q14 12 24 26.5t18.5 29.5t17.5 28.5t26 23.5q20 10 51 0q4 6 17 8.5t9 -14.5 q-4 -18 -14 -38.5t-10 -41.5q0 -14 8 -2q20 20 30.5 48t19.5 55.5t23.5 53t43.5 42.5q14 8 24 -8q12 -23 4 -48.5t-24 -41.5q-14 -18 -43 -44t-25 -53q4 -16 23 -12q14 6 21 19.5t16 25.5q4 2 12 2t8 -10l-4 -12q-16 -39 -53 -54q-25 -14 -43 15q-4 4 -4 10 q-10 -8 -16.5 -15.5t-18.5 -11.5q-10 -4 -16.5 0t-12.5 8q-4 -4 -12 -8t-16 -6q-31 -6 -43 21v2q-8 -10 -17.5 -17.5t-23.5 -11.5q-14 -8 -25 12q-6 12 -3 23.5t8 22t9 21.5t2 23q-18 -8 -25 -19t-11.5 -25.5t-6.5 -29t-8 -28.5q-6 -16 -24 -8q-8 2 -9 10q0 4 1 9t1 7 q-14 -4 -19 -4t-15 -10t-24.5 -18.5t-31.5 -8.5q-10 2 -16 8.5t-10 14.5q-16 -16 -40 -32.5t-50 -12.5q-16 2 -25 18q-25 -29 -51 -36q-29 -12 -33 20q-4 27 8.5 44t22.5 38q2 4 -3 5t-7 -3q-8 -20 -18.5 -44t-26 -45.5t-36 -34.5t-46.5 -11q-31 2 -36 22.5zM638 163 q-1 -38 1 -75q0 -16 9 -26.5t21.5 -14.5t24 1t15.5 24q2 12 2 27.5v29.5v147q0 16 -10.5 27.5t-22.5 16t-23.5 -2t-15.5 -22.5q-2 -14 -1 -29.5t1 -27.5q0 -37 -1 -75zM653 416q12 14 15.5 36.5t2.5 48t-4 49t-3 42.5v125q0 16 1 30.5t-12 28.5h76q-14 -12 -12 -32.5 t2 -36.5v-142q0 -16 -2 -49t10 -47q14 -23 37.5 -8.5t28.5 33.5q8 27 2.5 54t-9.5 54q-4 14 -10 38t-8 48.5t2 46t21 33.5q10 10 31.5 10t29.5 -16q6 -16 -2 -21.5t-18.5 -4.5t-17.5 8.5t1 15.5q-16 -8 -17 -28.5t6 -44t17 -46.5t15 -35q12 -37 17 -87t-22 -85 q-10 -14 -33.5 -19t-50 -5t-53 3t-41.5 3zM655 987q12 -2 28.5 15.5t18.5 27.5q4 8 -2 12.5t-12 -2.5q-10 -10 -18.5 -24.5t-14.5 -28.5zM715 -328q0 14 9 22.5t21.5 8.5t21.5 -8t9 -23q0 -16 -9 -23t-21.5 -7t-21.5 7t-9 23zM776 1124q-2 -8 4 -20h4q0 8 1 13t-1 13 q-6 0 -8 -6zM780 4q10 14 13.5 34.5t2.5 44t-4.5 46.5t-3.5 39v172q0 10 -8 22h58q29 -12 51 -50t35 -66q0 25 2 59.5t-13 56.5h74q-12 -10 -11 -24t1 -29v-246q0 -14 -1 -31.5t11 -27.5h-207zM797 -356l59 223h64l59 -223h-51l-15 51h-53l-10 -51h-53zM844 47 q0 -14 11 -23.5t25.5 -11.5t28 3.5t15.5 19.5q-4 63 -21.5 127.5t-58.5 116.5v-232zM865 506.5q-3 19.5 7 32.5q10 12 33 13t27 -22q0 -10 -7 -15t-15.5 -5t-14.5 4t-6 14q-12 -4 -12 -14t7 -20.5t17 -19.5t17 -11q14 -4 34.5 -4t30.5 10q20 20 16 40.5t-19 38t-35.5 32 t-31.5 24.5q-18 16 -30.5 42t-12.5 52.5t13.5 48t44.5 27.5q27 6 54.5 4t51.5 -2l-6 -10q0 -14 7 -29.5t13.5 -31t5.5 -29.5t-16 -27q-14 -10 -33.5 -9t-21.5 22q0 12 7 17t15.5 5t14.5 -5t4 -13q14 2 14 12t-8 21.5t-18.5 20.5t-18.5 11q-14 4 -32.5 1t-24.5 -19 q-12 -25 -4 -43.5t24.5 -32.5t37 -27.5t32.5 -27.5q14 -20 22.5 -47t4.5 -52.5t-20.5 -44t-47.5 -22.5q-27 -2 -53.5 -1t-54.5 1q8 4 5 19.5t-8.5 33.5t-8.5 37.5zM866 -266h41q-4 23 -9 46t-11 46zM874 1014q4 -12 16.5 -10t14.5 14q2 18 -10 43q-6 -8 -14.5 -22.5 t-6.5 -24.5zM991 1059l4 -15q10 -14 25 -6q16 4 23.5 21.5t3.5 34.5q-2 10 -9.5 16t-21.5 -4q-20 -14 -25 -47zM997 4q12 14 15.5 36.5t2.5 47.5t-4 48.5t-3 39.5v127q0 16 1 29.5t-12 29.5h76q-10 -10 -13 -30.5t-2 -42t3 -43t2 -35.5v-166h104q23 0 55.5 -3t55.5 13 q-4 -8 -7 -29.5t-14 -21.5h-260zM1006 -135q29 4 64.5 6t62.5 -14q31 -23 22.5 -58t-37.5 -49q14 -6 21.5 -19.5t10.5 -28.5t5 -30.5t8 -27.5h-51q-6 12 -8 27.5t-6 28.5t-12.5 22.5t-26.5 7.5v-86h-53v221zM1057 -196.5q2 -24.5 2 -34.5h12q18 0 26.5 10t6.5 22.5 t-11.5 21.5t-27.5 7q-10 -2 -8 -26.5zM1065 416q10 12 11 25.5t1 27.5v248q0 14 -1 30.5t-11 28.5h127q25 -25 25.5 -59.5t-9.5 -67.5q-4 -8 -15 -29.5t-20.5 -45t-11.5 -45t10 -27.5q-6 12 4.5 13t21.5 -4t14 -14.5t-17 -17.5q-25 -10 -35 9.5t-8 35.5q0 16 6 32.5t8 31 t-4 22.5t-28 6v-155q16 0 41.5 -3t44.5 11q-6 -14 -8.5 -26.5t-6.5 -26.5h-139zM1098 362h78q-12 -29 2 -65.5t26 -60.5q12 29 22.5 62.5t0.5 63.5h80q-23 -12 -27 -38.5t-10 -47.5q-6 -20 -23.5 -47.5t-17.5 -48.5q0 -23 -3 -56.5t13 -51.5h-76q18 18 14.5 53.5t-3.5 58.5 q-12 23 -21.5 46.5t-17.5 45.5q-10 23 -14.5 46.5t-22.5 39.5zM1133 662q20 0 45.5 2t27.5 32q0 16 -7 23.5t-18.5 10.5t-24.5 3h-23v-71zM1192 -133h53v-223h-53v223zM1245 1092q-4 -10 1 -27.5t22 -3.5q12 12 21 33t11 39q-2 8 -4 13t-12 1q-16 -8 -25.5 -23.5 t-13.5 -31.5zM1274 -328q0 14 9 22.5t21.5 8.5t21.5 -8t9 -23q0 -16 -9 -23t-21.5 -7t-21.5 7t-9 23zM1294 813q-8 -6 4 -8q27 -10 57.5 -13.5t62.5 -3.5h62.5t59.5 -2t57.5 -5t57.5 -13q29 -8 51.5 -23.5t48.5 -27.5q0 61 -21.5 106t-80.5 68q35 31 69.5 58.5t75.5 43.5 q-49 47 -110.5 77t-126.5 46q-2 -57 -3.5 -112.5t-5.5 -112.5l-2 2v-6q-27 -2 -64.5 -4t-74.5 -9.5t-68.5 -21.5t-48.5 -39zM1364 -133h57l68 -152q-4 39 -4 77v75h47v-223h-51q-20 39 -37 78.5t-35 76.5q2 -39 2 -77.5v-77.5h-47v223zM1393 1157q16 20 31.5 40t19.5 46h-2 q-37 -37 -49 -86zM1562.5 -268q-8.5 37 14.5 80q12 29 40 43t62 14h10.5t17.5 -2t16.5 -4t7.5 -4l-9 -41q-27 12 -48 8t-36.5 -18.5t-20.5 -37t3 -46.5q16 -47 61 -41q10 2 8.5 21.5t-1.5 27.5h-27v41h76v-121q-41 -16 -79 -9t-62.5 29.5t-33 59.5z" />
<glyph unicode="8" d="M35 813q70 37 137.5 67.5t144.5 53.5q4 0 8.5 20.5t8.5 45t8 48t8 31.5q23 35 68 53.5t78 34.5q88 35 179 61.5t183 51.5q94 23 188.5 39t190.5 24q33 4 80 8.5t95 3.5t92 -12.5t71 -37.5q2 -4 -2 -29t-6 -33l-6 -98q0 -4 4 -4q78 -23 152.5 -58.5t123.5 -103.5v-2 q-16 4 -36.5 -3t-41 -20.5t-38 -28t-27.5 -26.5q31 -16 50 -47t27.5 -66.5t6.5 -72.5t-13 -68q-16 43 -49.5 66.5t-74.5 35t-85 14.5t-83 5q-45 4 -94.5 2t-92.5 14q-16 6 -22 25.5t-7 43t2 46.5t5 37q-184 -14 -363.5 -56t-351.5 -102q-8 -2 -8 -6q2 -10 8 -33.5t10 -50.5 t6 -49.5t-6 -28.5q-23 -18 -58.5 -21t-64.5 -7l-157 -25q-35 -8 -67 -17.5t-62 -21.5q-14 -8 -28.5 -13t-29.5 -16q-8 -8 -18 -20t-17 -16q10 35 24.5 67.5t27.5 63.5q2 6 13 25.5t21.5 41t18.5 39t6 21.5q-25 35 -58.5 67.5t-78.5 36.5zM86 -133h47q4 -41 7 -83t12 -83 q4 41 10 83t14 83h37l25 -166q4 41 9 83t9 83h43l-43 -223h-43q-6 37 -11 72.5t-9 70.5q-4 -35 -11.5 -70.5t-13.5 -72.5h-43zM90 819q68 -37 109 -108q2 -2 -4.5 -15.5t-14.5 -29t-15 -28.5t-9 -20q-25 -45 -41 -94q51 27 104 39t108.5 20.5t110 15.5t107.5 24 q-18 18 -47 25t-62 8t-65.5 -2t-55.5 -5v131t4 131q-59 -16 -116.5 -39.5t-112.5 -52.5zM305 -133h45q4 -41 8 -83t11 -83q4 41 10 83t14 83h39l23 -166q4 41 9 83t9 83h43l-43 -223h-41q-8 37 -13 72.5t-9 70.5q-4 -35 -10.5 -70.5t-12.5 -72.5h-45zM342 709q8 0 22.5 6 t29 15t27.5 18.5t23 13.5q37 16 75 29.5t77 27.5q78 23 155.5 43.5t159.5 38.5q78 16 155 31.5t157 21.5q72 8 154.5 11.5t152.5 -29.5q6 55 6 112.5t4 110.5q0 29 2 57.5t6 57.5q2 14 -6 22.5t-20.5 13.5t-26.5 7t-27 4q-119 18 -245.5 1t-245.5 -42q-129 -27 -255 -60.5 t-249 -86.5q-23 -12 -46.5 -24.5t-43.5 -29.5q-20 -16 -24.5 -49t-8.5 -55q-8 -66 -8 -132.5v-133.5zM367 825q0 23 15 38.5t36 19.5q6 2 15 -2t5 -15q-12 -8 -22 -8q-12 -4 -16.5 -16.5t1.5 -22.5q4 -4 8.5 -5t8.5 -3q20 -2 33.5 11.5t22.5 34t13.5 41t8.5 34.5 q-27 -27 -62 -35q-27 -4 -43 12q-16 8 -16 37q0 27 12 51q27 61 86 99q12 6 25.5 12t27.5 10q10 4 21.5 12.5t21.5 10.5q12 -1 6 -13q12 0 21 -2q16 -2 27.5 -15t13.5 -32q6 -43 -23.5 -83t-66.5 -62q-18 -12 -27.5 -31.5t-18.5 -39t-20.5 -38t-34.5 -28.5q-23 -16 -53 -11 q-12 4 -20 14.5t-6 24.5zM405.5 937q2.5 -15 22.5 -15q31 0 49.5 19.5t30.5 47t18.5 58.5t10.5 51q-29 -6 -52.5 -23.5t-44.5 -38.5q-6 -6 -15 -25.5t-15.5 -39t-4 -34.5zM522 -133h45l19 -166q4 41 10 83t14 83h39l25 -166q2 41 7 83t11 83h41l-41 -223h-43q-8 37 -12 73.5 t-10 73.5q-4 -37 -10.5 -73.5t-12.5 -73.5h-43zM530 950q14 4 29.5 19.5t26 35t14.5 40t0 34.5q-6 23 -33 23q-14 -37 -20.5 -75t-16.5 -77zM582 138q2 34 2 61q0 20 -1 38.5t1 38.5q0 49 26.5 67.5t73.5 18.5q37 0 54.5 -20t23.5 -50t4 -63.5t-2 -60.5v-80 q0 -47 -26.5 -66.5t-71.5 -17.5q-39 0 -56.5 20.5t-23.5 50t-4 63.5zM628 952.5q-5 20.5 6 46t31.5 46t43.5 22.5q12 0 16 -10q8 -12 2 -29q-6 -23 -27.5 -40t-44.5 -21q2 -12 10.5 -13.5t17.5 3t17.5 10.5t12.5 10q25 20 36 46t21 52q2 2 -1 9.5t-8 15.5t-8 17t-1 16 q10 27 34 22q12 0 17 -12q4 -10 2 -22.5t-2 -24.5q20 2 28.5 -1t-4.5 -28q-8 -16 -17 -33.5t-11 -36.5q0 -10 6 -10q20 0 34.5 20.5t26 46t22.5 51t25 34.5q8 2 17 -2q2 -4 2 -13q-4 -12 -10.5 -21t-1.5 -24q6 -12 13 -25.5t5 -27.5h2q20 25 32.5 60.5t45.5 52.5 q37 14 49 -21q10 -14 6 -25.5t-2 -27.5q8 2 14 10q16 12 18.5 35t8.5 41q4 4 11 5t12 -1q10 -2 8 -12v-2q10 10 24 16q10 6 17.5 2t11.5 -14q4 -12 1 -22.5t-8 -21.5t-10 -22.5t-3 -23.5q14 12 24 26.5t18.5 29.5t17.5 28.5t26 23.5q20 10 51 0q4 6 17 8.5t9 -14.5 q-4 -18 -14 -38.5t-10 -41.5q0 -14 8 -2q20 20 30.5 48t19.5 55.5t23.5 53t43.5 42.5q14 8 24 -8q12 -23 4 -48.5t-24 -41.5q-14 -18 -43 -44t-25 -53q4 -16 23 -12q14 6 21 19.5t16 25.5q4 2 12 2t8 -10l-4 -12q-16 -39 -53 -54q-25 -14 -43 15q-4 4 -4 10 q-10 -8 -16.5 -15.5t-18.5 -11.5q-10 -4 -16.5 0t-12.5 8q-4 -4 -12 -8t-16 -6q-31 -6 -43 21v2q-8 -10 -17.5 -17.5t-23.5 -11.5q-14 -8 -25 12q-6 12 -3 23.5t8 22t9 21.5t2 23q-18 -8 -25 -19t-11.5 -25.5t-6.5 -29t-8 -28.5q-6 -16 -24 -8q-8 2 -9 10q0 4 1 9t1 7 q-14 -4 -19 -4t-15 -10t-24.5 -18.5t-31.5 -8.5q-10 2 -16 8.5t-10 14.5q-16 -16 -40 -32.5t-50 -12.5q-16 2 -25 18q-25 -29 -51 -36q-29 -12 -33 20q-4 27 8.5 44t22.5 38q2 4 -3 5t-7 -3q-8 -20 -18.5 -44t-26 -45.5t-36 -34.5t-46.5 -11q-31 2 -36 22.5zM638 163 q-1 -38 1 -75q0 -16 9 -26.5t21.5 -14.5t24 1t15.5 24q2 12 2 27.5v29.5v147q0 16 -10.5 27.5t-22.5 16t-23.5 -2t-15.5 -22.5q-2 -14 -1 -29.5t1 -27.5q0 -37 -1 -75zM653 416q12 14 15.5 36.5t2.5 48t-4 49t-3 42.5v125q0 16 1 30.5t-12 28.5h76q-14 -12 -12 -32.5 t2 -36.5v-142q0 -16 -2 -49t10 -47q14 -23 37.5 -8.5t28.5 33.5q8 27 2.5 54t-9.5 54q-4 14 -10 38t-8 48.5t2 46t21 33.5q10 10 31.5 10t29.5 -16q6 -16 -2 -21.5t-18.5 -4.5t-17.5 8.5t1 15.5q-16 -8 -17 -28.5t6 -44t17 -46.5t15 -35q12 -37 17 -87t-22 -85 q-10 -14 -33.5 -19t-50 -5t-53 3t-41.5 3zM655 987q12 -2 28.5 15.5t18.5 27.5q4 8 -2 12.5t-12 -2.5q-10 -10 -18.5 -24.5t-14.5 -28.5zM715 -328q0 14 9 22.5t21.5 8.5t21.5 -8t9 -23q0 -16 -9 -23t-21.5 -7t-21.5 7t-9 23zM776 1124q-2 -8 4 -20h4q0 8 1 13t-1 13 q-6 0 -8 -6zM780 4q10 14 13.5 34.5t2.5 44t-4.5 46.5t-3.5 39v172q0 10 -8 22h58q29 -12 51 -50t35 -66q0 25 2 59.5t-13 56.5h74q-12 -10 -11 -24t1 -29v-246q0 -14 -1 -31.5t11 -27.5h-207zM797 -356l59 223h64l59 -223h-51l-15 51h-53l-10 -51h-53zM844 47 q0 -14 11 -23.5t25.5 -11.5t28 3.5t15.5 19.5q-4 63 -21.5 127.5t-58.5 116.5v-232zM865 506.5q-3 19.5 7 32.5q10 12 33 13t27 -22q0 -10 -7 -15t-15.5 -5t-14.5 4t-6 14q-12 -4 -12 -14t7 -20.5t17 -19.5t17 -11q14 -4 34.5 -4t30.5 10q20 20 16 40.5t-19 38t-35.5 32 t-31.5 24.5q-18 16 -30.5 42t-12.5 52.5t13.5 48t44.5 27.5q27 6 54.5 4t51.5 -2l-6 -10q0 -14 7 -29.5t13.5 -31t5.5 -29.5t-16 -27q-14 -10 -33.5 -9t-21.5 22q0 12 7 17t15.5 5t14.5 -5t4 -13q14 2 14 12t-8 21.5t-18.5 20.5t-18.5 11q-14 4 -32.5 1t-24.5 -19 q-12 -25 -4 -43.5t24.5 -32.5t37 -27.5t32.5 -27.5q14 -20 22.5 -47t4.5 -52.5t-20.5 -44t-47.5 -22.5q-27 -2 -53.5 -1t-54.5 1q8 4 5 19.5t-8.5 33.5t-8.5 37.5zM866 -266h41q-4 23 -9 46t-11 46zM874 1014q4 -12 16.5 -10t14.5 14q2 18 -10 43q-6 -8 -14.5 -22.5 t-6.5 -24.5zM991 1059l4 -15q10 -14 25 -6q16 4 23.5 21.5t3.5 34.5q-2 10 -9.5 16t-21.5 -4q-20 -14 -25 -47zM997 4q12 14 15.5 36.5t2.5 47.5t-4 48.5t-3 39.5v127q0 16 1 29.5t-12 29.5h76q-10 -10 -13 -30.5t-2 -42t3 -43t2 -35.5v-166h104q23 0 55.5 -3t55.5 13 q-4 -8 -7 -29.5t-14 -21.5h-260zM1006 -135q29 4 64.5 6t62.5 -14q31 -23 22.5 -58t-37.5 -49q14 -6 21.5 -19.5t10.5 -28.5t5 -30.5t8 -27.5h-51q-6 12 -8 27.5t-6 28.5t-12.5 22.5t-26.5 7.5v-86h-53v221zM1057 -196.5q2 -24.5 2 -34.5h12q18 0 26.5 10t6.5 22.5 t-11.5 21.5t-27.5 7q-10 -2 -8 -26.5zM1065 416q10 12 11 25.5t1 27.5v248q0 14 -1 30.5t-11 28.5h127q25 -25 25.5 -59.5t-9.5 -67.5q-4 -8 -15 -29.5t-20.5 -45t-11.5 -45t10 -27.5q-6 12 4.5 13t21.5 -4t14 -14.5t-17 -17.5q-25 -10 -35 9.5t-8 35.5q0 16 6 32.5t8 31 t-4 22.5t-28 6v-155q16 0 41.5 -3t44.5 11q-6 -14 -8.5 -26.5t-6.5 -26.5h-139zM1098 362h78q-12 -29 2 -65.5t26 -60.5q12 29 22.5 62.5t0.5 63.5h80q-23 -12 -27 -38.5t-10 -47.5q-6 -20 -23.5 -47.5t-17.5 -48.5q0 -23 -3 -56.5t13 -51.5h-76q18 18 14.5 53.5t-3.5 58.5 q-12 23 -21.5 46.5t-17.5 45.5q-10 23 -14.5 46.5t-22.5 39.5zM1133 662q20 0 45.5 2t27.5 32q0 16 -7 23.5t-18.5 10.5t-24.5 3h-23v-71zM1192 -133h53v-223h-53v223zM1245 1092q-4 -10 1 -27.5t22 -3.5q12 12 21 33t11 39q-2 8 -4 13t-12 1q-16 -8 -25.5 -23.5 t-13.5 -31.5zM1274 -328q0 14 9 22.5t21.5 8.5t21.5 -8t9 -23q0 -16 -9 -23t-21.5 -7t-21.5 7t-9 23zM1294 813q-8 -6 4 -8q27 -10 57.5 -13.5t62.5 -3.5h62.5t59.5 -2t57.5 -5t57.5 -13q29 -8 51.5 -23.5t48.5 -27.5q0 61 -21.5 106t-80.5 68q35 31 69.5 58.5t75.5 43.5 q-49 47 -110.5 77t-126.5 46q-2 -57 -3.5 -112.5t-5.5 -112.5l-2 2v-6q-27 -2 -64.5 -4t-74.5 -9.5t-68.5 -21.5t-48.5 -39zM1364 -133h57l68 -152q-4 39 -4 77v75h47v-223h-51q-20 39 -37 78.5t-35 76.5q2 -39 2 -77.5v-77.5h-47v223zM1393 1157q16 20 31.5 40t19.5 46h-2 q-37 -37 -49 -86zM1562.5 -268q-8.5 37 14.5 80q12 29 40 43t62 14h10.5t17.5 -2t16.5 -4t7.5 -4l-9 -41q-27 12 -48 8t-36.5 -18.5t-20.5 -37t3 -46.5q16 -47 61 -41q10 2 8.5 21.5t-1.5 27.5h-27v41h76v-121q-41 -16 -79 -9t-62.5 29.5t-33 59.5z" />
<glyph unicode="9" d="M35 813q70 37 137.5 67.5t144.5 53.5q4 0 8.5 20.5t8.5 45t8 48t8 31.5q23 35 68 53.5t78 34.5q88 35 179 61.5t183 51.5q94 23 188.5 39t190.5 24q33 4 80 8.5t95 3.5t92 -12.5t71 -37.5q2 -4 -2 -29t-6 -33l-6 -98q0 -4 4 -4q78 -23 152.5 -58.5t123.5 -103.5v-2 q-16 4 -36.5 -3t-41 -20.5t-38 -28t-27.5 -26.5q31 -16 50 -47t27.5 -66.5t6.5 -72.5t-13 -68q-16 43 -49.5 66.5t-74.5 35t-85 14.5t-83 5q-45 4 -94.5 2t-92.5 14q-16 6 -22 25.5t-7 43t2 46.5t5 37q-184 -14 -363.5 -56t-351.5 -102q-8 -2 -8 -6q2 -10 8 -33.5t10 -50.5 t6 -49.5t-6 -28.5q-23 -18 -58.5 -21t-64.5 -7l-157 -25q-35 -8 -67 -17.5t-62 -21.5q-14 -8 -28.5 -13t-29.5 -16q-8 -8 -18 -20t-17 -16q10 35 24.5 67.5t27.5 63.5q2 6 13 25.5t21.5 41t18.5 39t6 21.5q-25 35 -58.5 67.5t-78.5 36.5zM86 -133h47q4 -41 7 -83t12 -83 q4 41 10 83t14 83h37l25 -166q4 41 9 83t9 83h43l-43 -223h-43q-6 37 -11 72.5t-9 70.5q-4 -35 -11.5 -70.5t-13.5 -72.5h-43zM90 819q68 -37 109 -108q2 -2 -4.5 -15.5t-14.5 -29t-15 -28.5t-9 -20q-25 -45 -41 -94q51 27 104 39t108.5 20.5t110 15.5t107.5 24 q-18 18 -47 25t-62 8t-65.5 -2t-55.5 -5v131t4 131q-59 -16 -116.5 -39.5t-112.5 -52.5zM305 -133h45q4 -41 8 -83t11 -83q4 41 10 83t14 83h39l23 -166q4 41 9 83t9 83h43l-43 -223h-41q-8 37 -13 72.5t-9 70.5q-4 -35 -10.5 -70.5t-12.5 -72.5h-45zM342 709q8 0 22.5 6 t29 15t27.5 18.5t23 13.5q37 16 75 29.5t77 27.5q78 23 155.5 43.5t159.5 38.5q78 16 155 31.5t157 21.5q72 8 154.5 11.5t152.5 -29.5q6 55 6 112.5t4 110.5q0 29 2 57.5t6 57.5q2 14 -6 22.5t-20.5 13.5t-26.5 7t-27 4q-119 18 -245.5 1t-245.5 -42q-129 -27 -255 -60.5 t-249 -86.5q-23 -12 -46.5 -24.5t-43.5 -29.5q-20 -16 -24.5 -49t-8.5 -55q-8 -66 -8 -132.5v-133.5zM367 825q0 23 15 38.5t36 19.5q6 2 15 -2t5 -15q-12 -8 -22 -8q-12 -4 -16.5 -16.5t1.5 -22.5q4 -4 8.5 -5t8.5 -3q20 -2 33.5 11.5t22.5 34t13.5 41t8.5 34.5 q-27 -27 -62 -35q-27 -4 -43 12q-16 8 -16 37q0 27 12 51q27 61 86 99q12 6 25.5 12t27.5 10q10 4 21.5 12.5t21.5 10.5q12 -1 6 -13q12 0 21 -2q16 -2 27.5 -15t13.5 -32q6 -43 -23.5 -83t-66.5 -62q-18 -12 -27.5 -31.5t-18.5 -39t-20.5 -38t-34.5 -28.5q-23 -16 -53 -11 q-12 4 -20 14.5t-6 24.5zM405.5 937q2.5 -15 22.5 -15q31 0 49.5 19.5t30.5 47t18.5 58.5t10.5 51q-29 -6 -52.5 -23.5t-44.5 -38.5q-6 -6 -15 -25.5t-15.5 -39t-4 -34.5zM522 -133h45l19 -166q4 41 10 83t14 83h39l25 -166q2 41 7 83t11 83h41l-41 -223h-43q-8 37 -12 73.5 t-10 73.5q-4 -37 -10.5 -73.5t-12.5 -73.5h-43zM530 950q14 4 29.5 19.5t26 35t14.5 40t0 34.5q-6 23 -33 23q-14 -37 -20.5 -75t-16.5 -77zM582 138q2 34 2 61q0 20 -1 38.5t1 38.5q0 49 26.5 67.5t73.5 18.5q37 0 54.5 -20t23.5 -50t4 -63.5t-2 -60.5v-80 q0 -47 -26.5 -66.5t-71.5 -17.5q-39 0 -56.5 20.5t-23.5 50t-4 63.5zM628 952.5q-5 20.5 6 46t31.5 46t43.5 22.5q12 0 16 -10q8 -12 2 -29q-6 -23 -27.5 -40t-44.5 -21q2 -12 10.5 -13.5t17.5 3t17.5 10.5t12.5 10q25 20 36 46t21 52q2 2 -1 9.5t-8 15.5t-8 17t-1 16 q10 27 34 22q12 0 17 -12q4 -10 2 -22.5t-2 -24.5q20 2 28.5 -1t-4.5 -28q-8 -16 -17 -33.5t-11 -36.5q0 -10 6 -10q20 0 34.5 20.5t26 46t22.5 51t25 34.5q8 2 17 -2q2 -4 2 -13q-4 -12 -10.5 -21t-1.5 -24q6 -12 13 -25.5t5 -27.5h2q20 25 32.5 60.5t45.5 52.5 q37 14 49 -21q10 -14 6 -25.5t-2 -27.5q8 2 14 10q16 12 18.5 35t8.5 41q4 4 11 5t12 -1q10 -2 8 -12v-2q10 10 24 16q10 6 17.5 2t11.5 -14q4 -12 1 -22.5t-8 -21.5t-10 -22.5t-3 -23.5q14 12 24 26.5t18.5 29.5t17.5 28.5t26 23.5q20 10 51 0q4 6 17 8.5t9 -14.5 q-4 -18 -14 -38.5t-10 -41.5q0 -14 8 -2q20 20 30.5 48t19.5 55.5t23.5 53t43.5 42.5q14 8 24 -8q12 -23 4 -48.5t-24 -41.5q-14 -18 -43 -44t-25 -53q4 -16 23 -12q14 6 21 19.5t16 25.5q4 2 12 2t8 -10l-4 -12q-16 -39 -53 -54q-25 -14 -43 15q-4 4 -4 10 q-10 -8 -16.5 -15.5t-18.5 -11.5q-10 -4 -16.5 0t-12.5 8q-4 -4 -12 -8t-16 -6q-31 -6 -43 21v2q-8 -10 -17.5 -17.5t-23.5 -11.5q-14 -8 -25 12q-6 12 -3 23.5t8 22t9 21.5t2 23q-18 -8 -25 -19t-11.5 -25.5t-6.5 -29t-8 -28.5q-6 -16 -24 -8q-8 2 -9 10q0 4 1 9t1 7 q-14 -4 -19 -4t-15 -10t-24.5 -18.5t-31.5 -8.5q-10 2 -16 8.5t-10 14.5q-16 -16 -40 -32.5t-50 -12.5q-16 2 -25 18q-25 -29 -51 -36q-29 -12 -33 20q-4 27 8.5 44t22.5 38q2 4 -3 5t-7 -3q-8 -20 -18.5 -44t-26 -45.5t-36 -34.5t-46.5 -11q-31 2 -36 22.5zM638 163 q-1 -38 1 -75q0 -16 9 -26.5t21.5 -14.5t24 1t15.5 24q2 12 2 27.5v29.5v147q0 16 -10.5 27.5t-22.5 16t-23.5 -2t-15.5 -22.5q-2 -14 -1 -29.5t1 -27.5q0 -37 -1 -75zM653 416q12 14 15.5 36.5t2.5 48t-4 49t-3 42.5v125q0 16 1 30.5t-12 28.5h76q-14 -12 -12 -32.5 t2 -36.5v-142q0 -16 -2 -49t10 -47q14 -23 37.5 -8.5t28.5 33.5q8 27 2.5 54t-9.5 54q-4 14 -10 38t-8 48.5t2 46t21 33.5q10 10 31.5 10t29.5 -16q6 -16 -2 -21.5t-18.5 -4.5t-17.5 8.5t1 15.5q-16 -8 -17 -28.5t6 -44t17 -46.5t15 -35q12 -37 17 -87t-22 -85 q-10 -14 -33.5 -19t-50 -5t-53 3t-41.5 3zM655 987q12 -2 28.5 15.5t18.5 27.5q4 8 -2 12.5t-12 -2.5q-10 -10 -18.5 -24.5t-14.5 -28.5zM715 -328q0 14 9 22.5t21.5 8.5t21.5 -8t9 -23q0 -16 -9 -23t-21.5 -7t-21.5 7t-9 23zM776 1124q-2 -8 4 -20h4q0 8 1 13t-1 13 q-6 0 -8 -6zM780 4q10 14 13.5 34.5t2.5 44t-4.5 46.5t-3.5 39v172q0 10 -8 22h58q29 -12 51 -50t35 -66q0 25 2 59.5t-13 56.5h74q-12 -10 -11 -24t1 -29v-246q0 -14 -1 -31.5t11 -27.5h-207zM797 -356l59 223h64l59 -223h-51l-15 51h-53l-10 -51h-53zM844 47 q0 -14 11 -23.5t25.5 -11.5t28 3.5t15.5 19.5q-4 63 -21.5 127.5t-58.5 116.5v-232zM865 506.5q-3 19.5 7 32.5q10 12 33 13t27 -22q0 -10 -7 -15t-15.5 -5t-14.5 4t-6 14q-12 -4 -12 -14t7 -20.5t17 -19.5t17 -11q14 -4 34.5 -4t30.5 10q20 20 16 40.5t-19 38t-35.5 32 t-31.5 24.5q-18 16 -30.5 42t-12.5 52.5t13.5 48t44.5 27.5q27 6 54.5 4t51.5 -2l-6 -10q0 -14 7 -29.5t13.5 -31t5.5 -29.5t-16 -27q-14 -10 -33.5 -9t-21.5 22q0 12 7 17t15.5 5t14.5 -5t4 -13q14 2 14 12t-8 21.5t-18.5 20.5t-18.5 11q-14 4 -32.5 1t-24.5 -19 q-12 -25 -4 -43.5t24.5 -32.5t37 -27.5t32.5 -27.5q14 -20 22.5 -47t4.5 -52.5t-20.5 -44t-47.5 -22.5q-27 -2 -53.5 -1t-54.5 1q8 4 5 19.5t-8.5 33.5t-8.5 37.5zM866 -266h41q-4 23 -9 46t-11 46zM874 1014q4 -12 16.5 -10t14.5 14q2 18 -10 43q-6 -8 -14.5 -22.5 t-6.5 -24.5zM991 1059l4 -15q10 -14 25 -6q16 4 23.5 21.5t3.5 34.5q-2 10 -9.5 16t-21.5 -4q-20 -14 -25 -47zM997 4q12 14 15.5 36.5t2.5 47.5t-4 48.5t-3 39.5v127q0 16 1 29.5t-12 29.5h76q-10 -10 -13 -30.5t-2 -42t3 -43t2 -35.5v-166h104q23 0 55.5 -3t55.5 13 q-4 -8 -7 -29.5t-14 -21.5h-260zM1006 -135q29 4 64.5 6t62.5 -14q31 -23 22.5 -58t-37.5 -49q14 -6 21.5 -19.5t10.5 -28.5t5 -30.5t8 -27.5h-51q-6 12 -8 27.5t-6 28.5t-12.5 22.5t-26.5 7.5v-86h-53v221zM1057 -196.5q2 -24.5 2 -34.5h12q18 0 26.5 10t6.5 22.5 t-11.5 21.5t-27.5 7q-10 -2 -8 -26.5zM1065 416q10 12 11 25.5t1 27.5v248q0 14 -1 30.5t-11 28.5h127q25 -25 25.5 -59.5t-9.5 -67.5q-4 -8 -15 -29.5t-20.5 -45t-11.5 -45t10 -27.5q-6 12 4.5 13t21.5 -4t14 -14.5t-17 -17.5q-25 -10 -35 9.5t-8 35.5q0 16 6 32.5t8 31 t-4 22.5t-28 6v-155q16 0 41.5 -3t44.5 11q-6 -14 -8.5 -26.5t-6.5 -26.5h-139zM1098 362h78q-12 -29 2 -65.5t26 -60.5q12 29 22.5 62.5t0.5 63.5h80q-23 -12 -27 -38.5t-10 -47.5q-6 -20 -23.5 -47.5t-17.5 -48.5q0 -23 -3 -56.5t13 -51.5h-76q18 18 14.5 53.5t-3.5 58.5 q-12 23 -21.5 46.5t-17.5 45.5q-10 23 -14.5 46.5t-22.5 39.5zM1133 662q20 0 45.5 2t27.5 32q0 16 -7 23.5t-18.5 10.5t-24.5 3h-23v-71zM1192 -133h53v-223h-53v223zM1245 1092q-4 -10 1 -27.5t22 -3.5q12 12 21 33t11 39q-2 8 -4 13t-12 1q-16 -8 -25.5 -23.5 t-13.5 -31.5zM1274 -328q0 14 9 22.5t21.5 8.5t21.5 -8t9 -23q0 -16 -9 -23t-21.5 -7t-21.5 7t-9 23zM1294 813q-8 -6 4 -8q27 -10 57.5 -13.5t62.5 -3.5h62.5t59.5 -2t57.5 -5t57.5 -13q29 -8 51.5 -23.5t48.5 -27.5q0 61 -21.5 106t-80.5 68q35 31 69.5 58.5t75.5 43.5 q-49 47 -110.5 77t-126.5 46q-2 -57 -3.5 -112.5t-5.5 -112.5l-2 2v-6q-27 -2 -64.5 -4t-74.5 -9.5t-68.5 -21.5t-48.5 -39zM1364 -133h57l68 -152q-4 39 -4 77v75h47v-223h-51q-20 39 -37 78.5t-35 76.5q2 -39 2 -77.5v-77.5h-47v223zM1393 1157q16 20 31.5 40t19.5 46h-2 q-37 -37 -49 -86zM1562.5 -268q-8.5 37 14.5 80q12 29 40 43t62 14h10.5t17.5 -2t16.5 -4t7.5 -4l-9 -41q-27 12 -48 8t-36.5 -18.5t-20.5 -37t3 -46.5q16 -47 61 -41q10 2 8.5 21.5t-1.5 27.5h-27v41h76v-121q-41 -16 -79 -9t-62.5 29.5t-33 59.5z" />
<glyph unicode=":" horiz-adv-x="307" d="M82 426q0 25 20.5 43t51.5 18q33 0 53 -18t20 -43q0 -27 -20.5 -46.5t-52.5 -19.5q-31 0 -51.5 19.5t-20.5 46.5zM92 594q0 25 20.5 43t51.5 18q33 0 53.5 -18.5t20.5 -42.5q0 -27 -20.5 -46.5t-53.5 -19.5q-31 0 -51.5 19.5t-20.5 46.5z" />
<glyph unicode=";" horiz-adv-x="307" d="M90 422q4 31 23.5 46t41 18t41 -6t25.5 -31q8 -29 2 -59t-17 -55.5t-25.5 -45t-22.5 -25.5q-27 -23 -40.5 -10.5t11.5 47.5q12 18 7 32.5t-16 29t-21.5 29t-8.5 30.5zM92 594q0 25 20.5 43t51.5 18q33 0 53.5 -18.5t20.5 -42.5q0 -27 -20.5 -46.5t-53.5 -19.5 q-31 0 -51.5 19.5t-20.5 46.5z" />
<glyph unicode="&#x3c;" horiz-adv-x="540" d="M127 518.5q2 22.5 14 42.5q8 14 40 38t70 47.5t72.5 43t51.5 27.5q18 8 33.5 4t21.5 -15.5t0 -25.5t-27 -27q-16 -10 -40.5 -26.5t-51 -38t-53.5 -45t-47 -45.5q43 -25 80 -51.5t47 -43.5q14 -25 15 -52t-6 -45.5t-19.5 -24t-24.5 15.5q-20 29 -62 67.5t-83 73.5 q-10 -2 -18.5 9.5t-11.5 30t-1 41z" />
<glyph unicode="=" horiz-adv-x="485" d="M88 398.5q2 19.5 13 45t34 41.5q14 10 44 16.5t63.5 9.5t64.5 5t49 2q20 0 32.5 -9t13.5 -22.5t-9 -24.5t-35 -13q-49 -4 -116.5 -22.5t-114.5 -51.5q-20 -14 -30.5 -5t-8.5 28.5zM88 562.5q2 19.5 13 45t34 41.5q14 10 44 16.5t63.5 9.5t64.5 5t49 2q20 0 32.5 -9 t13.5 -22.5t-9 -25t-35 -13.5q-49 -4 -116.5 -22.5t-114.5 -50.5q-20 -14 -30.5 -5t-8.5 28.5z" />
<glyph unicode="&#x3e;" horiz-adv-x="540" d="M114 342q5 14 27 27q16 8 41 25.5t50.5 38t52 44t47.5 45.5q-41 27 -78 53.5t-47 42.5q-14 25 -15.5 52.5t6 46t19.5 23.5t25 -15q20 -31 61 -69t84 -72q10 2 18.5 -9.5t11.5 -30t0.5 -41t-14.5 -42.5q-10 -14 -40.5 -38t-68.5 -47.5t-73 -43t-51 -27.5q-18 -8 -33.5 -4 t-21.5 15.5t-1 25.5z" />
<glyph unicode="?" horiz-adv-x="677" d="M2 879q0 55 38 103t96.5 84t131 56.5t141 20.5t128 -22.5t94.5 -73.5q33 -51 22.5 -93.5t-45.5 -77t-84 -64.5t-92 -58.5t-71.5 -58t-20.5 -62.5q8 -37 -11.5 -66.5t-47 -40t-53 4t-29.5 67.5q-4 55 22.5 93t67.5 65.5t86 48t77.5 44t43 51.5t-18.5 71q-33 49 -77 70.5 t-89 20.5t-85 -21.5t-63.5 -55.5t-25.5 -79t27 -93q16 -27 -8.5 -44t-59.5 -15t-65.5 29.5t-28.5 95.5zM154 365q0 29 24.5 50t59.5 21q39 0 63.5 -21.5t24.5 -49.5q0 -31 -25 -54.5t-63 -23.5q-35 0 -59.5 23.5t-24.5 54.5z" />
<glyph unicode="@" horiz-adv-x="827" d="M4 512q0 76 28.5 142.5t79 116.5t117 79t142.5 29q70 0 136 -26t117.5 -72t82 -111.5t30.5 -147.5q0 -61 -20.5 -105t-54 -66.5t-77.5 -20.5t-89 35q-31 23 -41 67q-4 -8 -17 -24q-23 -29 -51.5 -48.5t-58 -26.5t-58 -2t-53.5 23q-47 37 -50 102.5t42 125.5 q45 59 109.5 74.5t111.5 -19.5q31 -25 43 -64q4 8 7 12.5t7 8.5q23 16 53.5 5t43.5 -28q6 -8 5 -17t-4 -23.5t-6.5 -34t1.5 -45.5q4 -43 23.5 -54.5t40 1t36.5 43t16 71.5q0 68 -25.5 127t-69.5 103t-103.5 70t-126.5 26q-68 0 -127.5 -26t-103.5 -70t-69.5 -103t-25.5 -127 t25.5 -127t69.5 -103t103.5 -70t127.5 -26q66 0 118 21q16 6 26.5 4t12.5 -9t-5 -16.5t-21 -15.5q-61 -25 -131 -25q-76 0 -142.5 29t-117 79t-79 116.5t-28.5 142.5zM289 443q8 -42 39 -52q29 -10 61.5 18.5t48.5 75.5q14 41 3 72t-40 41t-57.5 -4t-44.5 -62 q-18 -47 -10 -89z" />
<glyph unicode="A" horiz-adv-x="2238" d="M22 389q0 5 -1 10q0 51 32 113q61 119 181 188.5t277 95.5q99 16 208 15q64 0 132 -5q183 -15 376 -67q68 37 147 74q131 59 234 139q23 166 74 285t107 181q55 63 105 68h8q44 0 62 -56q7 -22 8 -47q0 -57 -36 -131q-52 -108 -171 -224q-6 -61 -9 -129q-2 -41 -2 -83 q0 -28 1 -58q2 -84 12 -158q131 -24 221 -24q139 0 179 57q10 14 21.5 8t19.5 -22.5t9 -39t-7 -38.5q-16 -33 -54 -47q-35 -13 -87 -12h-7q-56 1 -128 15.5t-156 34.5q20 -119 58 -203.5t86 -139t104.5 -81t113.5 -26.5q29 0 44.5 -8t15.5 -18.5t-14.5 -20.5t-45.5 -15 q-15 -2 -32 -2q-49 0 -111 18q-82 24 -161 87t-142.5 174t-87.5 278q-78 20 -158 41t-166 41l-84 17q-162 -90 -262 -174t-154 -159t-68 -139q-6 -30 -7 -55q1 -30 9 -56q16 -48 53.5 -81t86.5 -45q29 -8 23.5 -27.5t-35 -33t-81.5 -14.5h-3q-51 0 -115 30q-59 28 -89 96 q-13 30 -13 65q0 47 22 103q39 100 169 227.5t390 272.5q-136 17 -270 17h-40q-154 -3 -287.5 -35.5t-233.5 -96t-150 -161.5q-18 -35 -18 -59q0 -17 9 -30q21 -28 57 -28h5q40 2 81.5 34.5t54.5 98.5q4 25 21.5 27t33.5 -9.5t24.5 -35t-5.5 -50.5q-31 -61 -79 -93 q-47 -32 -99 -37q-11 -1 -22 -1q-40 1 -77 15q-47 18 -75 56t-32 93zM1288 723q13 -4 17 -4q82 -25 155.5 -45.5t138.5 -36.5q-2 27 -3 53.5t-1 54.5q0 78 7 150q-47 -33 -97.5 -62.5t-107.5 -56.5zM1778 1106q84 96 118 177q28 66 29 104q0 9 -2 16q-6 33 -23.5 27.5 t-40 -45t-45 -110.5t-36.5 -169z" />
<glyph unicode="B" horiz-adv-x="1599" d="M28 716q15 38 52 65.5t90 35.5q12 2 25 2q42 0 90 -20q53 45 126.5 98t159.5 113q-61 59 -120 73q-51 12 -51 37q0 3 1 6q7 30 53 46q28 10 66 10q24 0 52 -4q72 -10 147 -74q135 82 277.5 154.5t267.5 114.5t222 44h6q92 0 134 -57q26 -35 26 -84q0 -24 -6 -51 q-20 -82 -80.5 -176.5t-152.5 -191.5t-199 -183q98 -43 169 -116t106 -162q30 -77 30 -162q-1 -14 -1 -28q-6 -100 -56 -194q-47 -84 -111.5 -127t-134.5 -57q-41 -8 -81 -8q-29 0 -59 4q-72 10 -131.5 34.5t-102.5 56.5t-58 62q-17 34 -17 69q-1 10 1 22q8 46 28.5 77 t44 38t33.5 -23q31 -92 98.5 -156.5t145.5 -90.5q43 -14 84 -14q34 -1 68 9q74 22 114 104q25 48 25 108q0 18 -2 36q-10 82 -50 162.5t-105.5 154.5t-141.5 123q-53 -37 -105.5 -68.5t-105.5 -54.5q-18 -92 -59 -169t-97 -124q-79 -68 -136 -68h-7q-59 4 -103 52.5 t-75 128.5t-59.5 163t-57.5 153.5t-67 103.5q-29 -18 -58.5 -43t-57.5 -40.5t-52.5 -14.5t-40.5 32q-8 16 -8 34q0 17 7 35zM324 778l26 -18q66 -51 102.5 -126t60.5 -151.5t38 -146.5t32.5 -112t46.5 -45h2q27 0 77 52q35 39 53 91.5t22 111.5q-55 -14 -99 -14 q-37 0 -67 10q-64 21 -73 64q-2 7 -2 15q0 37 41 80q49 52 172 91q-25 86 -66 164t-90 137q-74 -47 -143.5 -98.5t-132.5 -104.5zM675 534.5q3 -26.5 31 -42.5q19 -10 48 -10q15 0 32 3q-2 39 -6 78t-14 80q-49 -23 -71.5 -52.5t-19.5 -56zM752 1073q0 -4 4 -4 q68 -78 105.5 -168t47.5 -186q35 4 70 4q23 0 45 -2q56 -4 109 -17q74 74 137 159t104 164q40 79 56 143q7 27 7 50q0 29 -12 48q-23 35 -85 35q-1 -1 -2 -1q-64 0 -155 -27.5t-203 -78.5t-228 -119zM907 526q74 39 146 103q-70 35 -140 41q2 -21 2 -42q0 -16 -1 -31 q-3 -36 -7 -71z" />
<glyph unicode="C" horiz-adv-x="1368" d="M30 801q-9 36 -9 72q0 51 18 101q31 85 127 138q44 23 106 25h20q54 -1 118 -9q76 -10 161.5 -30.5t171.5 -40.5q92 72 187.5 126t188.5 83.5t179 33.5h16q77 0 144 -30q61 -27 85 -66q18 -29 18 -59q-1 -11 -3 -21q-8 -41 -46.5 -80.5t-103.5 -68.5t-154 -41 q-41 -6 -86 -6q-53 0 -111 8q-80 10 -155 25.5t-144 31.5l-60 -49q-55 -49 -105 -104.5t-93 -114.5q64 12 123 51q16 12 27.5 -5t11.5 -49t-13.5 -73t-44.5 -75t-81 -56q-42 -19 -102 -19q-11 0 -22 1q-12 0 -18 2q-36 -97 -36 -190v-14q3 -100 63 -187q66 -94 150 -121 q45 -14 90 -14q39 0 79 10q86 24 162 88.5t125 152.5q49 89 59 191q2 19 2 37q0 84 -37 166q-12 27 18 40q15 6 33 6q18 -1 39 -7q41 -14 77 -57q34 -42 34 -123v-9q-2 -98 -54 -191.5t-135 -169t-186.5 -132t-207.5 -82.5q-77 -19 -150 -18q-26 0 -50 2q-94 9 -157 65 q-59 49 -86 115q-26 63 -26 134v6q1 74 26 157t70 167q-98 37 -164.5 113t-88.5 164zM182 843q32 -48 92 -83t132 -41q121 160 278 291q-84 20 -158 38q-72 19 -134 26q-29 3 -55 3q-30 0 -57 -4q-50 -8 -85 -39q-46 -40 -46 -90q-1 -51 33 -101zM823 1038q99 -25 191 -40 q72 -12 133 -12q16 0 31 1q119 6 166 36q40 25 40 53q0 6 -2 10q-8 32 -60 56q-42 20 -103 20q-15 0 -31 -1q-78 -4 -172 -33.5t-193 -89.5z" />
<glyph unicode="D" horiz-adv-x="1581" d="M28 -62q-6 31 -7 62q1 36 9 68q16 62 50.5 113.5t67 79.5t53 26t8.5 -45q-12 -49 -12 -92q-1 -39 9 -74q20 -74 72 -119t124 -57q21 -4 41 -4q53 0 110 22q127 51 256 144.5t244.5 209t210 242.5t154 243.5t75.5 214.5q5 28 5 53q0 61 -28 101q-39 57 -140 80 q-93 21 -211 21h-21q-131 -2 -274.5 -25.5t-268.5 -59.5t-214 -80t-110 -87q-3 -6 -3 -13q0 -22 30 -51q39 -37 106.5 -87t153.5 -113.5t166 -143.5q-42 98 -58 178q-7 33 -6 64q0 42 13 78q16 43 52 87t71 71.5t59 29.5t16 -41q-12 -58 -16 -158q-2 -44 -1 -91 q0 -57 2 -117q5 -108 22.5 -208t52.5 -163q26 -50 26 -73q-1 -26 -23 -14q-20 11 -54.5 56t-73.5 125q-4 10 -10 19.5t-11 19.5q-104 113 -196 187.5t-167 124t-135.5 78t-102.5 49t-66.5 39t-28.5 46.5q-1 5 -1 9q0 35 54 71q60 41 164.5 80t241.5 75t284.5 63.5t295 44 t271.5 18.5h28q106 1 185 -13q89 -16 122 -53q17 -19 17 -54q0 -34 -16 -84q-32 -101 -109 -235.5t-190.5 -290t-247.5 -302t-279.5 -270.5t-285 -196.5t-263.5 -80.5q-11 -1 -20 -1q-111 0 -196 79q-62 56 -76 124z" />
<glyph unicode="E" horiz-adv-x="1191" d="M23 961q8 68 71.5 140.5t168 119.5t241.5 55q17 1 34 1q122 0 261 -50q113 -43 225 -61q84 -13 159 -13q26 0 50 2q96 6 171 34t114 73q16 20 25 16t5 -25.5t-26.5 -56.5t-67.5 -76q-53 -47 -148.5 -79.5t-215.5 -32.5q-104 -41 -196.5 -83t-176.5 -83q103 -22 196 -22 h22q103 3 169 52q43 31 51 18t-14.5 -48t-73.5 -80t-129 -78q-31 -13 -72 -13h-6q-45 1 -94 13t-99.5 34.5t-93.5 49.5q-2 0 -6 -4q-51 -135 -85 -268q-32 -134 -44 -246q-5 -52 -5 -97q1 -53 7 -97q14 -81 56 -113q30 -22 72 -22q29 1 63 11q84 26 182 106.5t201.5 211.5 t195.5 305q10 18 24.5 35.5t27 26t17.5 3t-2 -31t-31.5 -74.5t-74.5 -129q-102 -168 -215.5 -307t-223.5 -230q-112 -90 -210 -120q-39 -12 -73 -13q-53 0 -95 29q-43 30 -57 94q-10 47 -10 105q0 21 1 43q5 84 26.5 182t50 197.5t62.5 192.5t65 169q-119 -59 -197 -81 q-27 -7 -48 -7q-41 0 -61 27q-16 20 -16 43q0 20 13 42q28 46 87.5 80.5t137.5 52.5q39 9 76 8q38 0 75 -9q33 66 55.5 95.5t32.5 32.5t10 -15.5t-14 -47.5q-10 -20 -18.5 -39.5t-16.5 -40.5l41 -10q86 41 176 81t176 75q-72 8 -150.5 30.5t-156.5 65.5q-146 76 -258 83 q-15 1 -29 1q-92 0 -155 -40q-72 -46 -100 -133q-17 -51 -17 -111q0 -42 9 -87q4 -25 -18 -27.5t-46 14.5t-44 55q-14 28 -15 67q0 14 2 29zM240 709q4 -10 26.5 -8.5t59 15t86 34t106.5 47.5q-44 15 -89 15h-15q-54 -3 -96 -19.5t-64 -40t-14 -43.5z" />
<glyph unicode="F" horiz-adv-x="1298" d="M24 1153q-2 16 -2 31q0 33 8 56q12 34 33 26q16 -6 35 -29t46.5 -51.5t66.5 -58t95 -50t133 -25.5q17 -1 35 -1q65 0 144 14q-47 59 -114.5 112.5t-159.5 96.5q-29 12 -22.5 32.5t37 34t79.5 15.5h8q46 0 98 -20q56 -22 114.5 -74t109.5 -146l6 -14q141 39 240.5 77 t181.5 59.5t156.5 21.5t165.5 -35q37 -16 57 -35t21 -32t-16 -16t-56 13q-60 25 -130 25h-20q-82 -4 -174 -29t-191.5 -64.5t-197.5 -78.5q35 -108 35 -230q0 -28 -2 -57q96 -33 186 -34h3q88 0 141 54q33 33 39 18.5t-11.5 -50t-56.5 -82.5t-96 -80q-24 -14 -56 -14 q-21 1 -45 7q-60 16 -119 54q-12 -68 -30 -135q92 -31 168 -123q12 -16 14 -32.5t-5 -25t-22.5 -5.5t-35.5 26q-63 66 -142 92q-51 -147 -132 -276t-173 -214q-93 -85 -189 -114q-35 -10 -67 -10q-59 0 -113 33q-58 36 -58 104q0 65 37 143q38 80 108.5 161t159.5 143.5 t189 96.5q67 23 133 23q33 0 66 -6q10 43 15.5 86t5.5 86q-44 34 -91 34q-9 0 -19 -1q-56 -8 -91 -39q-18 -16 -30.5 -17t-17.5 7t1 23.5t25 33.5q41 40 101 62q34 12 67 13q25 0 49 -7q-12 109 -64 205q-84 -31 -163 -55t-149 -32q-26 -3 -52 -3q-42 -1 -80 7 q-62 12 -109 54q-55 45 -80 106.5t-31 114.5zM236 73q0 -3 -1 -6q0 -40 29 -67q35 -32 78 -31q16 -1 32 3q64 16 128.5 74t123 152.5t93.5 207.5q-25 4 -49 4q-44 0 -90 -12q-70 -18 -130.5 -53.5t-108.5 -83.5t-75.5 -96t-29.5 -92z" />
<glyph unicode="G" horiz-adv-x="1714" d="M24 620q-2 15 -2 30q0 57 18 118q21 76 67.5 144.5t115 124t160.5 87.5q82 29 206 31h42q105 0 223 -8q72 39 160 67.5t178 45t176 19.5q18 1 36 1q65 0 118 -9q69 -11 114 -38t54 -72q1 -9 1 -17q0 -47 -51 -66q-59 -23 -161.5 -23t-236.5 15t-271 30q-51 -33 -77 -71 q-16 -23 -16 -47q0 -16 7 -32q16 -43 65 -61.5t114.5 -18.5t141.5 13.5t146.5 34t128 44t86.5 42.5q38 24 55 24q13 0 14 -13q1 -3 1 -6q0 -35 -31 -139q76 16 154 24q43 4 87 4q36 0 72 -3q23 -2 31 -7t6 -10.5t-13.5 -9.5t-25.5 -4q-22 1 -43 1q-147 0 -281 -36 q-10 -33 -22 -70.5t-25 -80.5q-18 -57 -50 -145.5t-75 -189.5t-96 -210.5t-115.5 -210t-131 -185.5t-142.5 -139.5t-152 -70.5q-23 -5 -47 -5q-54 0 -108 25q-86 41 -107 133q-9 37 -9 78q0 61 19 132q31 120 112 256.5t199 264.5t268.5 236.5t324.5 173.5q0 14 -1 27.5 t-3 28.5q-158 -53 -291 -77q-128 -23 -225 -23h-8q-101 1 -162.5 25.5t-75.5 67.5q-9 27 -9 52q0 42 23 80q37 61 115 112q-68 5 -131 5q-47 0 -90 -3q-103 -6 -175 -37q-100 -43 -153 -110.5t-70 -142.5q-8 -38 -8 -76q0 -36 8 -72q15 -74 52.5 -128t93.5 -80 q33 -16 68 -16q25 0 50 7q31 8 40.5 -6.5t-2 -37t-41 -48t-71.5 -37.5q-25 -8 -55 -8q-20 0 -43 4q-55 8 -116 51t-94 106.5t-38 134.5zM700 -132q11 -73 62 -108q36 -25 78 -25q26 0 55 10q74 26 149.5 97.5t146.5 180t126 235.5t88 262t33 260q-145 -59 -266 -148 t-213.5 -190.5t-154 -208t-88.5 -199.5q-18 -67 -18 -123q0 -22 2 -43zM1026 1133q119 -12 230.5 -24.5t196.5 -14.5h25q68 0 110 9q46 10 46 41v5q-4 47 -70 65q-53 14 -124 14q-16 0 -33 -1q-92 -4 -195.5 -30t-185.5 -64z" />
<glyph unicode="H" horiz-adv-x="1579" d="M32 -25q-10 36 -11 76q-1 45 13 92q24 90 92.5 184.5t170.5 173.5t235.5 136t288.5 74q23 92 23 179q0 36 -4 72q-14 122 -95 218q-53 60 -115 74q-24 5 -46 6q-36 0 -69 -14q-54 -22 -93 -69t-46 -105q-1 -11 -1 -21q-1 -49 25 -99q32 -62 120 -110q39 -20 28 -49 t-50 -45q-23 -9 -52 -9q-20 1 -42 5q-56 10 -105 69q-44 52 -44 127q0 78 36 158q35 78 94 148.5t130 113.5t146 49q8 1 16 1q66 0 122 -44q59 -47 92 -117.5t42 -155.5q4 -36 3 -75q0 -50 -6 -106q-12 -96 -41 -197q16 2 31.5 2h31.5q21 -1 43 -1q86 0 174 13 q78 111 171.5 206t181.5 157t162 80q22 6 42 5q45 0 76 -30q39 -40 39 -87q1 -20 -7 -42q-24 -72 -108 -140.5t-218 -124t-298 -79.5q-41 -78 -63.5 -156t-22.5 -147.5t20.5 -128t65.5 -95.5q43 -37 112 -41q7 0 15 -1q61 0 119 30q64 33 109 105q40 63 40 160q0 13 -1 26 q-2 25 5 38t16 13t17.5 -14t12.5 -45q3 -25 3 -50q0 -56 -16 -111q-22 -79 -67 -143.5t-107 -110.5q-62 -45 -132 -65q-44 -12 -89 -13q-26 1 -53 5q-72 12 -135 64q-65 53 -85 129q-12 45 -12 94q0 34 6 71q14 89 55.5 186t102.5 192q-40 -4 -80 -6h-27q-27 0 -54 2h-47.5 t-45.5 -3q-37 -117 -92 -231.5t-119.5 -215.5t-135 -183t-141.5 -133q-70 -52 -136 -66q-19 -4 -38 -4q-44 0 -81 24q-75 47 -97 125zM190 110q8 -52 46 -79q19 -12 43 -12q15 0 33 5q46 13 100.5 52t111 100.5t109.5 137t98 162.5t74 177q-123 -16 -224.5 -61t-178 -105.5 t-126.5 -128.5t-72 -132q-16 -47 -17 -88q1 -15 3 -28zM1251 741q104 18 191.5 50t132.5 67q45 37 50 72q5 36 -15 56t-58 19h-4q-41 -1 -86 -36q-66 -49 -118 -107.5t-93 -120.5z" />
<glyph unicode="I" horiz-adv-x="745" d="M21.5 -31.5q-1.5 15.5 11 21.5t39.5 -6q47 -24 95 -24h4q50 1 102.5 16.5t103.5 39t102 45.5q-35 39 -67.5 94.5t-49.5 108.5q-10 38 -12 108v32q0 57 5 125q7 87 24.5 184.5t44.5 191.5q-35 -6 -69 -6q-35 1 -67 7q-64 12 -113.5 39.5t-80.5 67.5t-35 83q-3 26 -3 49 q0 47 14 83q20 54 45.5 81.5t45 25.5t9.5 -37q-8 -26 -8 -51q0 -30 12 -57q22 -51 65.5 -89t101.5 -61.5t116 -27.5q43 123 106 209q63 84 121 95q13 2 24 2q39 0 58 -29q13 -19 13 -48q0 -27 -12 -63q-24 -74 -124 -160q-29 -25 -55.5 -42.5t-55.5 -31.5q-18 -108 -19 -230 v-27q0 -108 7 -212q8 -117 20.5 -217t22.5 -164q48 14 93 14q12 0 24 -1q56 -5 111 -54q37 -35 55 -82t21 -87q1 -12 1 -23q0 -25 -5 -43q-7 -26 -21 -19q-16 8 -40 40t-68 60.5t-116 40.5q-18 3 -39 2q-61 0 -147 -24q-53 -16 -98 -28.5t-88 -17.5q-22 -2 -43 -2t-41 2 q-41 5 -86 28q-25 12 -39 32.5t-15.5 36zM549 1024q20 6 45 23q66 49 98.5 97t36.5 76q3 29 -17 31h-2q-20 0 -59 -37q-35 -35 -60.5 -83t-41.5 -107z" />
<glyph unicode="J" horiz-adv-x="1462" d="M20 1004.5q0 48.5 20.5 105.5t70.5 104q61 57 155 68q39 5 82 5q59 0 124 -9q112 -16 235.5 -49t244.5 -64l-46 40t-50 40q-23 16 1 37t73 28q14 2 29 2q38 0 85 -12q64 -18 127 -79q35 -37 70 -107q24 -1 47 -1q40 0 78 4q59 7 107 34q37 18 54 17t17 -13t-18.5 -30.5 t-52.5 -34.5q-106 -51 -199 -54q29 -80 49 -179t25 -209q1 -25 1 -52q0 -84 -11 -170q-15 -113 -56 -218.5t-111.5 -198.5t-177.5 -163q-115 -74 -239 -96q-51 -9 -99 -9q-65 0 -123 17q-98 31 -154 118q-44 68 -44 169q0 29 4 61q16 127 72.5 213.5t128 140.5t146.5 78.5 t127 30.5q21 2 36 2q23 0 32 -5q17 -9 -28 -25q-43 -16 -93 -44t-94 -68t-79 -95t-49 -127q-6 -34 -6 -65q0 -59 23 -109q34 -76 102 -117q67 -40 156 -40h4q91 1 185 56q113 68 181.5 196t81.5 286q2 31 2 62q0 128 -41 265q-51 170 -178 324q-78 16 -175.5 35.5 t-228.5 36.5q-66 8 -120 8q-42 0 -77 -5q-81 -10 -139.5 -32.5t-97.5 -54t-64.5 -61t-43 -53.5t-31.5 -32q-18 -10 -34 19.5t-16 78z" />
<glyph unicode="K" horiz-adv-x="1452" d="M22 765v10q0 47 18 90q20 48 52.5 89t62 63.5t48 23.5t12.5 -29q-8 -33 -15 -79q-2 -16 -2 -32q0 -29 8 -56q13 -43 59 -69q38 -22 110 -21q16 0 35 1q51 2 114.5 21.5t134.5 49.5q57 201 148.5 342.5t188 220t183.5 90.5q14 2 27 1q68 0 107 -51q25 -31 25 -70 q0 -10 -2 -20q-8 -50 -42 -105t-93.5 -113.5t-135.5 -116t-163 -111.5t-177 -101q-18 -66 -31 -138q51 -10 102.5 -34.5t98.5 -69.5q123 74 238.5 173t204.5 202q88 102 138 195q41 77 42 135q0 12 -2 22q-6 27 14 32t46 -10.5t45 -50.5q13 -25 14 -58q0 -14 -3 -30 q-12 -90 -75.5 -185t-157.5 -184.5t-210 -168t-235 -138.5q12 -16 24.5 -33.5t22.5 -35.5q180 -317 342 -434q97 -70 185 -70q58 0 112 31q43 27 58.5 15.5t7.5 -41.5t-38 -68.5t-77 -70.5t-109 -44q-22 -4 -44 -5q-42 0 -86 15q-94 31 -152.5 114t-104.5 186t-92.5 213 t-113.5 196q-115 -53 -219 -78v-34q0 -79 7 -161q9 -100 32 -207q5 -29 5 -49q0 -18 -4 -30q-8 -26 -23 -26.5t-33.5 23t-26.5 70.5q-33 187 -33 361v38q-36 -5 -67 -5q-33 -1 -61 5q-54 10 -81 50q-27 37 -27 74q0 8 2 17q8 46 43 81.5t92.5 58.5t125.5 23l18 88 q-96 -45 -187 -76q-90 -30 -166 -44q-49 -9 -91 -9q-23 1 -45 3q-58 8 -87 42q-39 45 -41 97zM509 492q-5 -30 15 -50q17 -17 56 -17q8 0 16 1q2 43 5 83t9 81q-43 -12 -69.5 -41t-31.5 -57zM670 442q2 2 3 1t3 1q39 12 78 30t80 40l-19 16q-70 54 -131 64l-8 -74t-6 -78z M748 870q94 49 182 109.5t148 120.5q62 59 84 111q9 20 8 37q0 28 -23 48t-52 20q-16 0 -33 -6q-50 -16 -106.5 -72t-112 -149.5t-95.5 -218.5z" />
<glyph unicode="L" horiz-adv-x="948" d="M24 594q14 78 63.5 178t126.5 205.5t164 184.5t173 113q39 15 75 15q43 0 81 -22q49 -31 75.5 -100.5t30.5 -163.5q1 -20 1 -41q0 -75 -12 -163q-14 -112 -45.5 -225.5t-76.5 -223t-102 -201.5q86 -37 166 -79q81 -41 160 -59q35 -8 70 -8q43 0 86 12q77 22 157 111 q18 20 28 8t9 -43t-14 -75t-43 -85t-78 -73.5t-118 -40.5q-26 -3 -51 -3q-49 0 -92 13q-65 20 -125.5 55t-118 78t-114.5 78q-35 -41 -73 -74t-79 -53q-71 -35 -125 -35h-11q-58 4 -92 36t-43 79q-3 14 -3 28q0 33 16 65q22 46 74.5 82t140.5 42q16 1 32 1q32 0 63 -5 q46 -8 94 -23q37 78 66.5 173.5t47.5 192.5q19 98 27 192q5 58 5 109q0 33 -2 63q-5 78 -26.5 132t-58.5 72q-18 8 -38 8q-23 0 -50 -11q-49 -21 -99.5 -65t-95.5 -104.5t-74.5 -120t-36.5 -111.5q-2 -12 -1 -23q0 -36 18 -58q14 -16 39 -10t52.5 23.5t53 41t39.5 41.5 q18 23 36 33t26 5t3 -23.5t-30 -53.5t-72 -76t-98 -72.5t-99 -47.5q-23 -7 -41 -7q-20 0 -34 9q-30 17 -30 64q-1 16 3 36zM146 1q4 -26 26 -41t60 -14h3q40 0 97 29q51 27 102 101q-35 16 -70.5 26.5t-74.5 10.5q-51 0 -84 -18.5t-48 -43t-11 -50.5z" />
<glyph unicode="M" horiz-adv-x="1843" d="M22 282q10 66 59.5 155t132.5 191.5t181 198.5q0 51 -11 89t-38 54q-14 8 -33 8q-17 0 -39 -8q-44 -14 -112 -67q-16 -14 -22.5 -1t-1.5 41t21.5 63.5t44 68.5t67.5 55.5t94 24.5q2 0 4 1q73 0 103 -66q25 -56 25 -138q0 -17 -1 -34q80 68 162.5 123t160.5 87 q79 31 149 36q10 1 18 1q59 0 108 -28q41 -25 63.5 -62t26.5 -82q98 82 193.5 149.5t178 107.5t149.5 48q11 1 22 1q52 0 83 -31q37 -35 41 -111q1 -12 1 -24q0 -67 -18 -152q-22 -100 -66 -218t-104 -236.5t-135 -230.5t-158 -201t-170 -147.5t-173 -70.5q-13 -2 -25 -2 q-29 1 -51 11q-32 14 -53.5 39.5t-32 55t-9.5 54t12.5 39t33.5 6.5q60 -21 119 -21q62 0 122 23q118 45 219 142.5t180 226.5t123 253q44 126 46 226v7q0 95 -49 134q-36 28 -87 28h-4q-54 -1 -117.5 -25.5t-133.5 -67.5t-139 -97q-12 -78 -54.5 -167t-100.5 -175 t-127 -161.5t-132 -129.5q-62 -54 -116 -78q-32 -15 -56 -14q-15 0 -27 6q-17 10 -17 35q0 19 10 47q24 64 86.5 153t155.5 195.5t202 210.5v15q0 44 -10 82q-12 46 -42 78q-35 37 -87 37l-1 -1q-53 0 -115.5 -26.5t-131 -72.5t-132.5 -101q-18 -117 -65 -243t-108.5 -225.5 t-129.5 -152.5q-44 -34 -84 -34q-22 0 -43 10q-36 16 -36 62q-1 11 1 23zM202 482q-7 -32 9 -46q23 -20 50.5 2.5t53 69.5t45 111.5t29.5 130.5q-49 -51 -90 -101.5t-65.5 -92.5t-31.5 -74zM744.5 439q-13.5 -34 0.5 -46q23 -18 58 6.5t71.5 76.5t69.5 124t49 145 q-63 -59 -115.5 -117.5t-86 -106.5t-47 -82z" />
<glyph unicode="N" horiz-adv-x="1060" d="M22 80q4 98 58.5 223t151 267.5t210.5 287.5q-10 94 -14 190q-1 25 -1 49q0 67 8 123q11 78 42 129.5t90 55.5h8q39 0 62 -36q20 -33 21 -87q0 -12 -2 -26q-6 -72 -41 -171.5t-109 -214.5q16 -125 44 -249.5t62 -222.5q33 -96 69 -154q31 -50 62 -50q5 0 9 1q25 6 38 89 t24 207.5t24.5 275.5t38 290t63.5 249.5t100 157.5q35 27 77 36q32 7 56 7q8 0 16 -1q30 -3 40 -17t-19 -35q-74 -51 -125 -139t-87.5 -199.5t-60.5 -237.5t-40 -252t-28.5 -244t-26 -211t-30.5 -156.5t-44 -80.5q-20 -12 -39 -12q-37 0 -71 46q-50 69 -92 198t-71.5 294 t-45.5 322q-121 -164 -183 -284q-60 -119 -80 -202q-11 -48 -12 -84q0 -27 6 -47q14 -48 47 -71.5t75 -23.5t77 14q37 14 44 -1t-9.5 -45t-50 -64.5t-78.5 -57t-95 -24.5q-3 0 -7 -1q-47 0 -91 35q-71 53 -71 145q1 5 1 9zM487 1092q2 -35 4.5 -72t6.5 -76q37 74 42 138 q2 22 2 39q0 33 -6 55q-10 32 -25 22t-22 -82v-6q0 -4 -1 -9t-1 -9z" />
<glyph unicode="O" horiz-adv-x="1050" d="M24 360q12 120 65.5 252.5t131.5 256.5t172 228.5t189 170.5q-38 8 -77 8q-69 0 -140 -25q-29 -10 -28 15.5t19.5 61.5t49 71t61.5 43q33 8 73 13q18 2 37 2q23 0 46 -3q43 -6 89 -26.5t93 -63.5q56 12 118 11h27q76 -3 144 -42q37 -23 51 -42t11 -30.5t-24.5 -11.5 t-54.5 19q-37 20 -93 32q-34 8 -73 8q-25 0 -53 -3q76 -96 104 -214q22 -92 22 -189q0 -27 -1 -54q-8 -125 -49 -250t-103.5 -234.5t-142.5 -198.5t-165 -144.5t-171 -67.5q-19 -3 -37 -3q-66 0 -125 34q-102 56 -140 156q-29 75 -29 162q0 28 3 58zM190 398 q10 -104 64.5 -166t127.5 -80q27 -7 56 -6q48 0 98 18q82 30 148 110q127 154 175 306q38 121 38 228q0 27 -2 53q-12 130 -74.5 229.5t-156.5 146.5q-68 -37 -135.5 -99.5t-133.5 -160.5q-125 -183 -170 -329q-36 -118 -37 -209q0 -21 2 -41z" />
<glyph unicode="P" horiz-adv-x="1472" d="M24.5 419.5q-8.5 26.5 5 40t54.5 5.5q100 -23 200 -30q46 -3 92 -4q53 0 105 5q-59 92 -105 168t-74 140t-36 120q-3 22 -3 44q0 32 7 63q12 45 74 88t155 79t208.5 63.5t237.5 44t240 21.5q41 2 79 1q73 0 136 -6q97 -10 163.5 -35t85.5 -70q10 -24 10 -50 q1 -29 -11 -61q-22 -62 -77 -131t-137 -141t-182.5 -141.5t-213 -132t-227.5 -113.5q0 -125 12.5 -251t46.5 -240q14 -50 14 -72q0 -20 -10 -20h-4q-30 8 -75 130q-61 104 -117.5 194.5t-108.5 168.5q-119 -35 -217 -47q-21 -3 -41 -3q-39 0 -77 11q-56 16 -100 43 t-72.5 59.5t-37 59zM464 711q28 -121 97 -267q57 6 117 19q-16 115 -18 208v13q0 83 18 121q18 43 56 84t72 65.5t55 23.5t9 -44q-16 -59 -33.5 -176t-23.5 -262q150 45 274.5 111.5t209.5 143t124 156.5q25 51 25 98q0 27 -8 52q-20 66 -92 97.5t-170 37.5q-23 1 -46 1 q-76 -1 -162 -15q-112 -20 -212.5 -56.5t-176 -89.5t-104.5 -114q-23 -50 -23 -112q0 -44 12 -95zM627 315q29 -53 58 -106.5t60 -108.5q-12 53 -25 114.5t-24 125.5z" />
<glyph unicode="Q" horiz-adv-x="1028" d="M25.5 800q9.5 7 34 7t61.5 -14q33 -12 59.5 -26.5t50.5 -31.5q66 123 150 236.5t172 206.5q-23 3 -47 3q-65 0 -131 -24q-25 -10 -24 18.5t16.5 68.5t42 77t55.5 43q49 13 110 13h9q65 -1 137 -48q25 16 46 29.5t44 23.5q77 31 141 31q37 0 70 -10q37 -12 53.5 -27.5 t15.5 -28t-22.5 -15.5t-60.5 14q-29 10 -65 10q-21 0 -43 -4q-62 -9 -136 -56l16 -16q72 -74 106 -165t39 -189q1 -19 1 -38q0 -80 -18 -162q-21 -101 -61 -197.5t-95.5 -181.5t-118.5 -150l24 -31q70 -90 133.5 -143.5t120 -80t104.5 -33.5q37 -5 69 -5h18q39 2 67.5 5 t44.5 -3q18 -6 8 -37t-43.5 -62.5t-86.5 -56.5q-46 -21 -102 -21q-10 0 -19 1q-61 4 -116.5 38.5t-106 89t-97.5 125t-92 148.5q-86 -66 -174 -86q-27 -6 -53 -6q-59 0 -113 31q-68 37 -97 100q-29 61 -29 138v5q1 80 30 172.5t76 188.5q-61 55 -121 78q-37 14 -49.5 27.5 t-3 20.5zM266 399q10 -77 45 -122.5t87 -59.5q23 -6 47 -6q31 0 63 10q-53 98 -108.5 191.5t-114.5 169.5q-22 -79 -22 -142q0 -21 3 -41zM309 666q31 -35 60.5 -76t61.5 -90t70 -108.5t87 -129.5q37 27 69 66q117 141 159 277q31 99 31 186q0 33 -5 63q-15 113 -77.5 193.5 t-152.5 113.5q-39 -43 -79.5 -97t-81.5 -122q-49 -78 -84 -146.5t-58 -129.5z" />
<glyph unicode="R" horiz-adv-x="1511" d="M188 9q12 75 37 160t44.5 177t24.5 186q1 14 1 27q0 80 -25 158q-14 37 -16 60.5t27 45.5q98 66 205.5 128.5t218.5 117.5q16 80 49.5 134t64.5 79q31 24 51 14q13 -7 12 -30q0 -12 -3 -29q-4 -18 -10.5 -43t-10.5 -55q100 43 192 73q92 32 168 44q46 8 85 7q25 0 47 -3 q56 -8 82 -41q29 -36 29 -79q-1 -6 -1 -12q-4 -50 -31.5 -99.5t-73.5 -100.5t-97.5 -95.5t-102.5 -79t-88 -55.5q76 -80 140.5 -168t128 -167.5t131 -144t149.5 -101.5q45 -19 83 -21h13q30 0 54 10q28 12 46.5 31t22.5 41q2 16 12.5 16.5t20.5 -10t18 -31t8 -44.5v-10 q0 -43 -16 -87q-18 -48 -56 -79t-98 -37q-8 -1 -16 0q-54 0 -123 30q-72 31 -128 81t-103 111.5t-88 132.5t-80 142.5t-79 140t-87 128.5q-92 -47 -168 -80t-139 -43q-31 -111 -65 -219.5t-71.5 -204t-76.5 -172t-80 -124.5q-41 -47 -83 -61q-12 -4 -24 -4q-30 0 -61 23 q-52 39 -64 98q-6 30 -6 63t6 71zM296 35q-3 -41 17 -55q24 -18 48 -17q23 -1 45 15q46 34 86 115t75 198t62 246q-47 8 -82 38t-62 89q-12 28 -12 55q0 13 2 23q8 36 36 64t72 46t99 22q4 29 6 59t6 58q-104 -53 -201.5 -110.5t-170.5 -104.5q33 -86 40 -174q3 -42 4 -84 q0 -45 -4 -88q-8 -84 -23 -158.5t-27.5 -135t-15.5 -101.5zM597 766q-10 -15 -10 -34q0 -26 19 -60q14 -25 41 -39q8 45 14.5 89t12.5 89q-53 -10 -77 -45zM735 621q33 4 68 16t66.5 26.5t58 28t43.5 23.5q-39 39 -89.5 62.5t-99.5 31.5zM795 866q53 -12 109.5 -39.5 t109.5 -74.5q23 14 55.5 36.5t66 49t63.5 57.5q29 31 47 63q17 30 17 59q0 33 -28 62q-40 42 -129 42q-12 0 -24 -1q-108 -6 -242 -63q-10 -43 -21.5 -91t-23.5 -100z" />
<glyph unicode="S" horiz-adv-x="2318" d="M26 597q-3 17 -3 34q0 43 19 91q26 66 85 132t154.5 116t225.5 74q83 16 180 16q56 0 116 -5q63 59 157.5 102t219.5 55q91 10 169 9q69 0 127 -7q124 -16 201.5 -50t111.5 -76q28 -34 27 -61q0 -7 -1 -13q-12 -45 -57.5 -73t-145.5 -36q-32 -3 -71 -3q-81 0 -193 12 q-164 16 -416 59l-72 10q-16 -31 -16 -65q0 -27 10 -56q16 -45 74.5 -62.5t144.5 -17.5t192.5 12.5t220.5 24.5q113 11 225 19q49 3 96 4q59 0 113 -6q97 -10 172 -40t112 -94q24 -41 25 -91q1 -26 -7 -54q-20 -82 -81.5 -169t-155 -174t-204 -162t-227.5 -130 q-118 -56 -229 -80q-75 -16 -142 -16q-33 0 -64 4q-95 12 -156 74q-63 63 -71 142q-2 16 -2 33q0 63 26 129q32 83 98.5 162t152.5 141t185.5 100t195.5 40q27 0 41.5 -5t14.5 -13t-16.5 -16.5t-49.5 -10.5q-98 -6 -176 -44t-134.5 -93t-89.5 -121q-32 -66 -38 -130 q-1 -15 -1 -28q-1 -48 15 -92q20 -56 72 -90q51 -34 126 -34q24 0 50 4q108 14 228 67t236 135t198.5 172t116.5 177q15 37 15 71q0 44 -26 82q-50 72 -152 87q-50 7 -105 7q-60 0 -127 -8q-130 -16 -275.5 -52t-278.5 -64q-132 -30 -240 -40q-26 -3 -50 -2q-72 0 -116 25 q-47 27 -72 67q-26 42 -31 90q-1 11 -1 22q0 38 12 78q16 52 54 101q-33 2 -63 2q-117 -1 -201 -25q-106 -30 -168 -78t-82 -104q-13 -35 -14 -66q0 -18 6 -35q12 -45 53 -69q24 -14 55 -13q23 0 49 7q37 10 41 -4t-13.5 -38.5t-53 -50t-81.5 -41.5q-38 -13 -80 -12h-16 q-51 3 -98 40q-46 33 -56 91zM911 1040l39 -6q212 -40 360 -58q137 -16 228 -17q8 1 16 1q96 2 140.5 19.5t48.5 46.5v6q0 34 -42 60q-46 28 -120 43.5t-168 17.5h-29q-80 0 -160 -9q-94 -11 -176.5 -37t-136.5 -67z" />
<glyph unicode="T" horiz-adv-x="1202" d="M22.5 1069q2.5 35 23 85t64.5 97t112.5 85t168.5 50q43 5 86 6q57 0 117 -10q104 -16 209.5 -45.5t209 -66.5t204 -66.5t195.5 -45.5q55 -10 108 -10q38 0 75 5q37 6 58.5 2t22.5 -13t-18.5 -19.5t-64.5 -18.5q-84 -14 -172 -14q-59 0 -121 6q-152 16 -305 45q0 -2 -2 -4 q-111 -160 -185 -307q-72 -148 -106 -269q-30 -108 -30 -192v-20q4 -91 47 -140t124 -52h8q79 0 193 52q25 10 17 -12.5t-38 -58.5t-79 -78t-106.5 -69.5t-119.5 -31.5h-12q-56 0 -108 35q-72 44 -92 120q-12 43 -12 93q0 37 6 77q16 94 61 203t106.5 221.5t131 226.5 t137.5 216q-127 23 -248 39q-88 12 -171 12q-31 0 -61 -2q-112 -6 -209 -43t-177 -123q-23 -27 -36.5 -13.5t-11 48.5z" />
<glyph unicode="U" horiz-adv-x="1259" d="M22 484q6 104 56.5 230t152.5 261q92 123 170 185q77 62 139 86q47 18 83 19q11 -1 21 -3q42 -8 64.5 -24.5t21.5 -34t-28 -15.5q-9 1 -18 1q-62 0 -134 -36q-82 -41 -156.5 -110.5t-135.5 -159.5q-61 -91 -90 -183q-20 -65 -21 -126q1 -27 5 -53q12 -87 84 -150 q59 -53 130 -53q14 0 28 2q88 12 184 71q27 131 77 271.5t113 271.5t135 243.5t140.5 190.5t130.5 112q35 19 65 18q23 0 41 -11q46 -30 46 -101q0 -66 -30 -155q-32 -92 -92.5 -201.5t-141.5 -221.5t-176 -219.5t-198 -195.5q-3 -35 -3 -68q1 -77 17 -144q24 -95 95 -148 q49 -39 103 -44q12 -1 23 -1q41 0 79 14q48 18 81 55t43 82t23.5 66.5t24 21.5t14.5 -21.5t-2 -60.5q-10 -57 -56.5 -124.5t-113.5 -117.5q-66 -51 -146 -71q-29 -7 -57 -7q-50 0 -98 23q-106 49 -139 169q-21 75 -21 164q0 54 8 114l-39 -27q-117 -76 -212 -91 q-29 -5 -56 -5q-60 0 -106 24q-66 34 -100 109q-29 64 -29 147q0 15 1 32zM696 481q76 66 146.5 147t132 167t107.5 170t73 153.5t30 119.5v9q0 42 -24 58q-12 7 -26 7q-21 0 -45 -14q-42 -26 -88 -83.5t-94 -141.5t-90 -181t-73.5 -203.5t-48.5 -207.5z" />
<glyph unicode="V" horiz-adv-x="1093" d="M24 280q-2 14 -1 29q-1 39 11 81q16 60 72 126q53 66 146.5 138.5t200.5 150.5q55 123 114.5 229.5t121 179t121.5 103.5q31 16 60 16q28 0 54 -14q38 -24 38 -83q0 -58 -50 -148q-50 -92 -161.5 -209t-297.5 -256q-75 -250 -75 -372v-9q3 -120 62 -120q60 1 162.5 116.5 t224.5 326.5q117 203 211.5 364t177 268.5t158.5 155.5q53 33 110 34q25 0 50 -7q45 -12 65.5 -44.5t23.5 -64.5t-9 -52.5t-33 -8.5q-14 8 -41 20q-22 10 -52 11q-6 0 -14 -1q-40 -3 -93.5 -29.5t-120 -94t-146.5 -186.5t-174 -305t-177 -318.5t-153.5 -220.5t-128 -137 t-103.5 -71.5t-79 -22.5t-53 12q-27 15 -30 77v21q0 57 12 135q16 94 48.5 210t75.5 239l-59 -39q-191 -127 -190 -255q0 -44 22 -89q14 -27 3 -31t-31.5 12.5t-43.5 49.5t-29 83zM545 872q90 68 172 140.5t141 146.5q44 57 44 88q0 7 -2 13q-7 17 -26 18q-16 0 -40 -12 q-52 -26 -131.5 -119.5t-157.5 -274.5z" />
<glyph unicode="W" horiz-adv-x="1751" d="M34 546q26 116 130 257q-57 25 -88 70q-27 40 -27 89v13q4 70 40 101.5t73 38.5t57.5 -3t-4.5 -22q-31 -14 -48 -41t-20 -57.5t7 -62.5t34 -57q4 -4 9.5 -7t9.5 -7q20 23 41.5 47.5t46.5 50.5q109 113 207 173.5t173 78.5q41 10 73 11q27 1 49 -7q47 -16 56 -57 q2 -8 2 -18q1 -35 -27 -81q-34 -58 -126 -124q-143 -106 -270 -137q-74 -18 -137 -18q-44 0 -82 9q-35 -49 -56.5 -99t-26.5 -98q-1 -12 -2 -23q0 -35 12 -68q16 -43 57 -78q39 -36 84 -50q42 -14 87 -13h6q48 1 97 16.5t98 40.5q39 102 104.5 199.5t136.5 170.5 q72 72 136 110q46 26 76 26q14 0 25 -5q27 -13 27 -44q0 -13 -4 -29q-16 -56 -72 -129.5t-142 -154.5t-184 -150q-1 -10 -1 -19q1 -51 19 -101q22 -59 78 -106q57 -47 136 -50q5 0 10 -1q75 0 161 41q92 43 193.5 133t206.5 225q102 135 137 256q24 84 24 152q0 30 -4 58 q-16 88 -74 136q-45 37 -104 38q-16 0 -33 -3q-41 -6 -44 6.5t18.5 31t61.5 38t87 27.5q20 3 41 4q27 0 53 -6q48 -10 84 -49q57 -62 56 -160q0 -99 -45 -217q-45 -116 -127 -237.5t-182.5 -233t-213 -203.5t-222.5 -146q-110 -53 -206 -59q-9 -1 -17 -1q-85 0 -149 54 q-66 57 -81 137q-6 32 -6 65q0 52 14 108q-49 -29 -96.5 -49.5t-94.5 -30.5q-59 -16 -109 -16q-49 0 -89 16q-82 30 -114 107q-18 42 -18 96q0 44 12 97zM252 838q33 -9 71 -8q42 0 90 10q91 20 164.5 62t111.5 92q20 26 20 50q0 22 -17 41q-18 20 -50 20q-12 0 -26 -3 q-51 -10 -113.5 -47t-129 -93.5t-121.5 -123.5zM684 483q57 41 105.5 87t80 87t43.5 72t-2 41q-16 12 -48 -6.5t-66.5 -60t-66.5 -99t-46 -121.5z" />
<glyph unicode="X" horiz-adv-x="1382" d="M30 -116q28 114 132 245t272 274.5t385 290.5l10 6q-49 176 -119 264q-72 88 -136 112q-30 11 -56 11q-30 0 -56 -15q-48 -28 -54 -81q-2 -25 -11.5 -26.5t-15.5 9.5t-8 33.5t9 46t37.5 44t76.5 30.5q21 4 41 4q44 0 84 -18q57 -26 106 -80.5t90 -129.5t78 -159 q98 66 175 122.5t140 103.5q20 96 67.5 174t137.5 125q29 14 62.5 23.5t57.5 6t31 -21.5t-17.5 -56t-87 -98.5t-177.5 -148.5q-25 -89 -31 -191q-4 -68 -4 -135q0 -33 1 -67q4 -100 10 -195q4 -64 4 -121q0 -26 -1 -50q-3 -77 -20.5 -132t-60.5 -76q-38 -20 -69 -20 q-15 0 -29 4q-42 14 -77.5 82.5t-72.5 202t-84 341.5q-4 10 -6 21.5t-4 22.5q-2 0 -4 -3q-254 -166 -417 -332.5t-225 -299.5q-38 -80 -39 -143q0 -41 17 -74q41 -84 193 -84q23 0 17.5 -15.5t-29 -34t-60.5 -37t-78 -22.5q-9 -1 -19 -1l-63 10q-41 14 -70 57 q-42 60 -42 132q0 33 9 69zM911 711q41 -98 76 -196.5t67.5 -173.5t64.5 -118q25 -33 51 -33q8 0 16 3q33 10 33 79.5t-9 171.5q-10 104 -18 226q-3 41 -3 81q0 80 11 158q-59 -43 -131 -93t-158 -105zM1311 1049q119 94 162 142q41 45 41 60q0 17 -36 -1q-32 -16 -65 -48 q-35 -33 -59.5 -71.5t-42.5 -81.5z" />
<glyph unicode="Y" horiz-adv-x="923" d="M12 -87q13 99 62 200.5t127 178.5t180 112q51 17 106 17q56 0 117 -18q35 111 76 232t94 256q-94 -143 -182 -242q-37 -43 -78 -80t-80 -59.5t-74 -26.5q-6 -1 -11 -1q-29 0 -52 20q-37 31 -41 90q-1 10 -1 21q0 51 17 112q19 74 57 153.5t83 152.5t94 130.5t90 83.5 q37 23 64.5 31t40 5t3 -17t-46.5 -37q-31 -20 -68.5 -62.5t-73.5 -96.5t-65.5 -114.5t-45.5 -115.5q-12 -47 -12 -87v-15q3 -46 32 -68q18 -15 39 -15q13 0 27 5q38 16 80 57t86 98t85 118.5t78 120t64 99.5q16 27 29.5 34t20.5 2t8 -20.5t-9 -36.5q-90 -186 -152.5 -376.5 t-111.5 -370.5q133 -55 204.5 -140t93.5 -179q11 -49 11 -97q0 -44 -9 -88q-20 -92 -69 -160q-39 -55 -88 -65q-25 -5 -46 -5t-39 5q-36 10 -49 28.5t19 22.5q23 2 54.5 39t58.5 92t41 125q8 38 8 75q0 32 -6 64q-12 68 -59.5 128.5t-141.5 101.5q-49 -180 -96 -332 t-104.5 -252t-132.5 -138q-34 -17 -75 -17q-50 0 -110 26q-76 35 -105 116q-19 56 -19 121q0 29 3 59zM123 -16q-3 -22 -3 -43q0 -48 16 -89q22 -61 81 -88q33 -14 61.5 -14t52.5 14q48 29 89 107t80 200t88 279q-42 10 -82 10q-48 0 -92 -15q-80 -28 -141.5 -83 t-100.5 -131t-49 -147z" />
<glyph unicode="Z" horiz-adv-x="1226" d="M26 -67q-6 18 -5 38q-1 23 7 51q14 52 50.5 111.5t87.5 110.5t111.5 89t123.5 48q27 4 53 4l87 -12q63 80 133.5 175t144.5 193.5t147.5 195.5t143.5 181q-100 -29 -206 -45q-84 -13 -164 -13q-20 0 -40 1q-94 2 -148 28.5t-77.5 63.5t-24.5 77v6q0 36 11 64 q12 30 31.5 44.5t35.5 -1.5q41 -45 116 -75t167 -44q73 -11 154 -11q21 1 43 1q104 4 204 25q88 96 157 142q43 29 74 29q19 0 34 -11q31 -25 22.5 -54.5t-45.5 -62.5t-98.5 -65.5t-136.5 -61.5q-61 -70 -134 -165t-153 -202.5t-164 -220t-166 -219.5q51 -25 96 -62.5 t84 -77.5t72 -76t64 -56q100 -72 176 -78q14 -1 27 -1q57 1 99 21q52 26 78.5 66.5t26.5 62.5q0 27 14.5 26t32 -20.5t31.5 -54.5q14 -34 16 -74v-10q0 -35 -13 -73q-15 -43 -60 -80q-66 -53 -148 -63q-15 -2 -30 -1q-69 0 -145 35q-93 43 -195.5 142.5t-206.5 265.5 q-29 41 -60 57q-74 -92 -142.5 -171t-130 -135.5t-113.5 -84.5q-41 -22 -73 -23q-9 0 -18 2q-46 10 -58 48zM251 170q-15 -33 3 -45q8 -4 17 -4q29 0 77 41q62 55 148 155h-8q-48 -1 -96 -23q-52 -24 -89 -57.5t-52 -66.5z" />
<glyph unicode="[" horiz-adv-x="456" d="M150 184v23q0 25 2 75t4 112.5t6 132t7 134t7 117.5t10 84q6 41 25.5 72t40.5 47q6 12 20 23q10 8 33 12t49.5 7t50 5t37.5 2q16 0 25.5 -8t10.5 -17.5t-7 -17.5t-27 -10q-35 -4 -80 -15.5t-79 -29.5q-12 -49 -27.5 -137t-31 -188.5t-28 -198t-18.5 -166.5l6 4 q10 8 33 12t48.5 7t50 4t36.5 1q16 0 25.5 -7t10.5 -17t-7 -18.5t-27 -10.5q-39 -4 -91 -18.5t-87 -38.5q-16 -12 -24.5 -3t-3.5 27z" />
<glyph unicode="\" horiz-adv-x="413" d="M-50.5 1027q1.5 52 12.5 85t27.5 38t26.5 -34q6 -27 30 -89t59.5 -145t79.5 -178.5t88 -188.5t86 -174t73 -134q14 -25 18.5 -44.5t0 -26.5t-16.5 2t-31 42q-16 27 -51 83t-77 127t-89 148.5t-89 151.5t-76 134.5t-48 97.5q-25 53 -23.5 105z" />
<glyph unicode="]" horiz-adv-x="456" d="M9 171q-1 9 7.5 17.5t26.5 10.5q35 4 79 14t79 31q12 49 27.5 137t30.5 187.5t28.5 197.5t19.5 168q-4 -4 -6 -4q-10 -8 -32.5 -12.5t-48 -7.5t-50.5 -4t-37 -1q-16 0 -25.5 7.5t-10.5 17.5t7.5 18t26.5 10q39 4 91 18.5t87 39.5q16 10 23.5 3t5.5 -24v-26q-2 -25 -3 -75 t-4 -112.5t-6 -132t-6.5 -134t-8.5 -119t-9 -83.5q-8 -41 -26.5 -71.5t-38.5 -48.5q-8 -12 -21 -21q-10 -8 -32.5 -12t-49.5 -7t-50.5 -5.5t-37.5 -2.5q-16 0 -25.5 8.5t-10.5 17.5z" />
<glyph unicode="^" horiz-adv-x="499" d="M90 692q8 12 25.5 28.5t38 35t41 36t32.5 29.5q6 6 20.5 16.5t31 17.5t35 5t34.5 -20q37 -45 37 -85t-16.5 -66.5t-36 -34t-21.5 15.5q-2 29 -17 56.5t-38 53.5q-23 -16 -38 -38.5t-28 -49.5q-10 -18 -29.5 -26.5t-38 -6t-29.5 10.5t-3 22z" />
<glyph unicode="_" horiz-adv-x="471" d="M68 236.5q2 19.5 13 45.5t34 42q14 10 43.5 16t63.5 9t64.5 5t49.5 2q20 0 32.5 -9t13.5 -22.5t-9.5 -24.5t-34.5 -13q-49 -4 -116.5 -22.5t-115.5 -51.5q-20 -14 -30 -5t-8 28.5z" />
<glyph unicode="`" horiz-adv-x="405" d="M82 872q-6 12 2 24.5t23.5 23t35 15.5t35.5 1t39 -16.5t46.5 -27.5t45 -30.5t33.5 -27.5q25 -23 19.5 -37.5t-58.5 2.5q-27 8 -62.5 15t-68.5 16.5t-58.5 19.5t-31.5 22z" />
<glyph unicode="a" horiz-adv-x="536" d="M-9 456v9q0 61 42 117q45 59 109 75q20 5 38 4q41 0 74 -24q31 -25 43 -64q4 8 7 12.5t7 8.5q23 16 53.5 5t43.5 -28q6 -8 5 -17t-4 -23.5t-6.5 -34t0.5 -45.5q2 -23 11.5 -35.5t20.5 -15.5t23.5 2.5t22.5 15.5q18 23 33.5 49.5t22.5 46.5q8 23 25.5 19.5t8.5 -31.5 q-8 -29 -20 -52.5t-39 -58.5q-29 -35 -82 -48q-14 -4 -29 -4q-40 0 -82 26q-31 20 -40 67q-4 -8 -17 -24q-23 -29 -51.5 -48.5t-58 -26.5t-58 -2t-53.5 23q-47 36 -50 102zM113 443q8 -42 39 -52q8 -3 15 -3q23 0 47 22q32 28 48 75q8 23 8 43q0 16 -5 29q-11 31 -40 41 t-57.5 -4t-44.5 -62q-12 -33 -12 -63q0 -13 2 -26z" />
<glyph unicode="b" horiz-adv-x="458" d="M-20 707.5q0 103.5 17 211t48 210t73 180t92 121.5q40 35 83 34q11 0 22 -2q37 -8 49 -55q6 -25 5 -56q-1 -29 -5 -64q-10 -73 -35.5 -163t-62.5 -184t-78 -185t-82 -165q2 -14 12.5 -48t29 -68t46.5 -60q24 -22 53 -22q5 0 9 1q16 0 24.5 16.5t8.5 38t-6.5 47 t-18.5 44.5q-18 4 -33.5 11t-19.5 17q-10 20 8.5 45t52.5 27h7q23 -2 43 -14.5t36 -32.5l7 -12q53 0 88.5 12t58.5 20q29 10 18.5 -11t-36.5 -36q-14 -8 -47 -18t-74 -10q0 -27 -8.5 -57.5t-23.5 -59.5t-38.5 -51.5t-52.5 -32.5q-24 -9 -48 -9q-14 0 -28 3q-39 8 -73.5 33.5 t-61.5 67.5t-39 93q-20 80 -20 183.5zM87 880q-1 -27 -1 -53q0 -86 8 -163q25 49 53.5 118.5t54 144t44.5 146.5q18 71 24 129q2 20 2 38q0 32 -7 54q-11 34 -44 35q-43 -2 -71.5 -68.5t-44 -165.5t-18.5 -215z" />
<glyph unicode="c" horiz-adv-x="372" d="M-1 504q3 58 21 90q28 48 90 68q35 12 69 11q26 0 52 -7q47 -14 72 -41t23 -52q-2 -29 -23.5 -48t-44 -26t-39 -1t-8.5 26q8 25 8 46q0 19 -7 35q-15 32 -42 16q-16 -10 -28.5 -30t-18.5 -44.5t-5 -50t7 -45.5q8 -25 28.5 -42.5t47 -22.5t56.5 2t54 32q45 41 62 94 q2 10 10 15.5t14 3t10.5 -9.5t0.5 -21q-14 -57 -50 -94q-29 -35 -71.5 -58.5t-88.5 -27.5q-10 -1 -20 -1q-36 1 -70 13q-44 16 -75 59q-34 49 -34 102v9z" />
<glyph unicode="d" horiz-adv-x="573" d="M-9 458q0 66 44 124q20 29 48 47t58.5 26.5t59 3t53.5 -21.5q-5 54 -5 113q0 36 2 74q5 100 21.5 198t44 189.5t63.5 161t81 110.5t98 41q63 0 75 -77q3 -22 3 -48q-1 -65 -21 -155q-28 -126 -93.5 -286.5t-157.5 -330.5q14 -94 38.5 -154.5t65.5 -64.5h4q27 0 55 28 q30 30 45 78q10 35 26.5 28t10.5 -38q-4 -18 -18 -46t-38 -54.5t-56.5 -45t-75.5 -18.5q-49 0 -83 39t-54 102q-16 -25 -41 -56.5t-57.5 -55t-69.5 -31.5q-9 -2 -19 -2l-55 18q-52 34 -52 104zM106 448q3 -30 23 -36q7 -2 15 -2q24 0 52 24q36 32 74 94l-8 45q-14 14 -35 25 q-29 10 -59.5 -7.5t-48.5 -64.5q-13 -40 -13 -67v-11zM349 925q-1 -28 -1 -56q0 -91 8 -173q31 70 62 153t54.5 164t39.5 155t18 130v15q0 45 -11 71q-13 30 -46 23q-37 -10 -63.5 -82t-42 -175t-18.5 -225z" />
<glyph unicode="e" horiz-adv-x="337" d="M-1 509q3 32 10.5 59.5t17.5 43.5q18 35 45.5 59.5t56.5 37t56.5 11.5t47.5 -18q28 -24 28 -60q1 -32 -17 -64q-18 -34 -54 -61.5t-81 -35.5q6 -16 12 -29.5t16 -23.5q25 -35 53.5 -42t56 6.5t51.5 45t40 76.5q8 23 26.5 19.5t8.5 -31.5q-23 -66 -66 -115t-92 -69 q-29 -12 -58 -11q-20 -1 -41 5q-50 14 -89 71q-19 27 -25 61q-4 23 -4 45q0 10 1 20zM96 602q-2 -15 -2 -32q0 -27 6 -56q39 18 55.5 45t16.5 51.5t-13.5 37.5t-33.5 5q-23 -10 -29 -51z" />
<glyph unicode="f" horiz-adv-x="239" d="M-706 855q-1 6 -1 11q0 31 21 54q18 20 80 25q27 2 60 2q40 0 87 -3q86 -6 189.5 -20.5t210.5 -28.5q-4 44 -4 82q0 49 6 90q10 74 51 113q36 33 101 33q5 0 9 -1q72 -2 154 -29.5t164 -73.5t144.5 -99.5t93.5 -107.5q20 -33 20 -61q0 -18 -8 -34q-14 -29 -78 -35 q-26 -2 -56 -2q-45 0 -101 5q-93 9 -205.5 26.5t-225.5 34.5l12 -50q68 -10 125.5 -23t75.5 -18q16 -4 21.5 -17t2.5 -27.5t-12.5 -28t-19.5 -19.5q-6 -3 -15 -3q-20 0 -52 14q-48 22 -107 49q23 -88 50.5 -176t53 -166t45 -140.5t25.5 -99.5q3 -18 3 -35q0 -45 -22 -81 q-32 -50 -70 -75q-34 -23 -58 -23h-6q-25 3 -3 40q19 32 19 94q0 13 -1 28q-5 83 -24.5 191.5t-46.5 232.5t-45 240q-31 10 -63.5 15.5t-63.5 1.5q-53 -4 -54 18.5t40 26.5q16 1 34 1q45 0 101 -7l-6 47l-49 6q-78 10 -144 10q-41 0 -76 -4q-94 -10 -156.5 -32.5t-95 -47 t-38.5 -37.5q-12 -18 -34 -1.5t-38 47t-20 68.5zM-14 1044q-1 -13 -1 -26q0 -59 13 -131q96 -14 185 -25.5t159 -16.5q39 -3 70 -3q24 0 44 2q44 4 52 22q4 9 4 19q0 21 -18 48q-25 40 -70 81t-105.5 77.5t-118 58t-107.5 24.5h-8q-44 0 -67 -27q-29 -35 -32 -103z" />
<glyph unicode="g" horiz-adv-x="487" d="M-487 45q18 31 67 43q39 10 104 10q16 0 34 -1q89 -3 220.5 -19.5t313.5 -42.5q-12 86 -20 173q-2 32 -2 63q0 54 8 106q-45 -41 -100 -48q-9 -1 -19 -1q-42 0 -76 26q-47 37 -50 102v9q0 61 42 117q45 59 109 74q20 5 38 5q41 0 74 -24q29 -25 41 -59q6 24 20 34 q6 6 27 3t41.5 -12t35.5 -21.5t13 -24.5q-2 -14 -10 -21.5t-20.5 -17.5t-25.5 -28.5t-24 -51.5q-10 -39 -10 -87t7 -102t18.5 -113.5t23.5 -119.5q120 -16 226 -16q78 0 148 9q165 20 280.5 52.5t182.5 61.5q50 22 71 22q6 0 10 -2q14 -8 12 -32.5t-14.5 -54t-29.5 -58.5 t-36 -41q-39 -29 -124 -35q-43 -3 -92.5 -3t-106.5 3q-115 6 -250 21.5t-271 33.5q12 -68 19 -131q6 -45 6 -86q0 -17 -1 -32q-3 -56 -19.5 -100t-53.5 -70q-52 -39 -123 -39q-15 0 -31 2q-92 10 -191 54t-195.5 112.5t-168 138.5t-109.5 130q-25 40 -25 66q0 13 6 23z M-346 2q-7 -14 -7 -30q0 -24 15 -53q25 -50 77 -102.5t121.5 -101.5t140.5 -80.5t132 -38.5q12 -2 23 -2q45 0 75 25q29 25 40.5 63.5t11.5 88t-7.5 106.5t-17.5 119q-115 14 -218 25.5t-184 14.5q-24 1 -46 1q-51 0 -88 -5q-54 -7 -68 -30zM116 443q9 -42 38 -52 q8 -3 15 -3q22 0 47 22q32 28 48 75q8 24 8 44q0 15 -4 28q-10 31 -41 41q-29 10 -57.5 -4t-44.5 -62q-12 -31 -12 -60q0 -15 3 -29z" />
<glyph unicode="h" horiz-adv-x="532" d="M2 524q-1 22 -1 46q1 90 11 196q14 133 42 272.5t70 254t95 188t117 73.5q46 0 64 -51q15 -42 15 -105q0 -14 -1 -28q-4 -82 -25.5 -183.5t-58.5 -200.5t-86.5 -186.5t-104.5 -140.5q-18 -18 -26 -24q0 -68 6 -125q23 33 54.5 65.5t64 55t64.5 32t54 -3.5q23 -12 29 -51 q4 -23 4 -47q0 -16 -2 -31q-4 -30 -3 -53q0 -29 5 -47q10 -32 26.5 -40.5t34 -2.5t27.5 16q20 20 34.5 55.5t20.5 55.5q8 23 25.5 19.5t9.5 -31.5q-6 -29 -19 -59.5t-40 -65.5q-14 -16 -35.5 -30.5t-48.5 -19.5t-54.5 -1t-52.5 24q-41 31 -49 76q-5 30 -5 59q0 15 1 29 q4 47 -11 53t-39 -10t-47.5 -49t-37.5 -64q2 -25 10 -51q6 -23 -9 -36t-36.5 -16t-42 2t-26.5 19q-19 53 -23 162zM111 692q41 31 75.5 98.5t62 149.5t43 168t16.5 154v9q0 63 -14 100q-12 33 -40 33q-6 0 -12 -1q-31 -8 -56.5 -77t-42 -171t-25.5 -224q-7 -100 -7 -196v-43 z" />
<glyph unicode="i" horiz-adv-x="260" d="M0 517q2 48 12.5 87t20.5 47q23 16 53.5 5t42.5 -27q6 -8 5 -27.5t-4 -46.5t-7 -56.5t0 -56.5q2 -23 12 -34t22.5 -12t25 5.5t22.5 16.5q18 23 32.5 49.5t22.5 46.5q6 23 23.5 19.5t11.5 -31.5q-8 -29 -20.5 -52.5t-41.5 -58.5q-14 -16 -34.5 -29.5t-46 -17.5t-54 0 t-55.5 21q-29 16 -37 60q-6 35 -6 73v19zM23 874q-2 12 6 33t21 40.5t30 34.5t33 15h5q26 -1 56 -19q32 -20 29 -50q-4 -14 -15.5 -31.5t-27 -33t-28.5 -28t-19 -14.5q-16 -10 -33 -7t-29 12.5t-19 22.5t-9 25z" />
<glyph unicode="j" horiz-adv-x="235" d="M-754 125q8 43 84 62.5t188 20.5h15q105 0 231 -12q136 -14 263 -36q-10 72 -18.5 142.5t-9.5 133.5v15q0 53 6 99q7 52 30 85q8 12 26.5 13t37 -6t30.5 -22.5t8 -35.5q-8 -35 -8 -84t5 -108.5t12.5 -125t13.5 -133.5q117 -25 201.5 -53.5t107.5 -52.5q37 -41 43 -91 q2 -18 2 -35q0 -27 -6 -49q-10 -36 -27.5 -51.5t-27.5 11.5q-27 66 -103 121t-180 98q4 -59 4 -112t-4 -101q-8 -97 -53 -137q-41 -35 -114 -35h-15q-84 4 -184.5 37.5t-204 89t-185.5 118t-130 125.5q-40 51 -40 92q0 9 2 17zM-623 141q-5 -8 -5 -19q0 -22 22 -55 q33 -49 95 -105t143 -112.5t159 -96.5t143 -55q23 -6 42 -6q33 0 51 17q18 18 26 54q7 32 7 74v11q-1 48 -7 107t-14 123q-109 35 -219.5 58.5t-203.5 31.5q-53 5 -97 5q-33 0 -61 -3q-66 -6 -81 -29zM27 881q0 27 26.5 57.5t48.5 40.5q15 7 29 7q18 0 33 -12q26 -20 31 -42 q2 -12 -5.5 -32.5t-19.5 -41t-27.5 -36t-29.5 -15.5t-29.5 8t-28 19.5t-20.5 23.5t-8 23z" />
<glyph unicode="k" horiz-adv-x="534" d="M0 557q2 117 14.5 246t35 257t58 230.5t85 166t112.5 63.5q41 0 61 -43q19 -41 18 -107v-7q-1 -71 -21.5 -163t-55.5 -191.5t-85 -198.5t-109 -183v-57.5t2 -55.5q27 59 67.5 112.5t83.5 90.5t83 53q21 9 39 9q15 0 28 -7q12 -6 19 -29.5t0 -58.5t-34.5 -80t-85.5 -96 q-14 -12 -12 -23.5t21 -27.5q18 -14 40.5 -26.5t46 -18.5t45 -2t36.5 22q16 20 25 41t18 41q6 23 23 19.5t11 -31.5q-8 -29 -20 -53.5t-41 -57.5q-44 -49 -108 -53q-11 -1 -22 -1q-52 1 -98 17q-56 20 -90 52q-27 24 -27 43q0 6 3 12q6 10 32.5 29.5t54.5 40t48.5 39 t13.5 26.5q-10 12 -40.5 -3t-63.5 -45t-60.5 -68t-33.5 -68q0 -4 1 -9.5t2 -9.5q0 -23 -17 -36t-38.5 -17t-40 2t-20.5 20q-4 58 -4 139v56zM113 700q35 59 65.5 134t54 153t37 151.5t14.5 129.5v7q0 53 -14 81q-16 30 -49 22q-31 -8 -51 -72.5t-32.5 -160.5t-18.5 -214 t-6 -231z" />
<glyph unicode="l" horiz-adv-x="296" d="M-16 727q0 109 15 222.5t44 222t70 193.5t91 137t107 52q43 0 61 -51q16 -44 16 -111v-22q-3 -82 -25.5 -183.5t-59.5 -200.5t-86 -186t-104 -141l-13 -12q10 -100 34 -167.5t59 -71.5h7q26 0 52 26q30 30 45 80q12 39 27.5 31t9.5 -41q-4 -18 -17.5 -46t-37 -54.5 t-57.5 -45t-77 -18.5q-57 2 -93 54t-52 138t-16 195zM92 927q-1 -40 -1 -79q0 -77 5 -148q39 35 73 103.5t59.5 149.5t40 164t14.5 149q1 67 -15 106q-13 32 -40 32q-5 0 -11 -1q-37 -8 -63.5 -79t-42 -174t-19.5 -223z" />
<glyph unicode="m" horiz-adv-x="675" d="M-7 397v17q0 34 3 71q4 47 14 89t23 55q16 14 50 17t50 -7q14 -10 9 -29.5t-15 -62.5q18 29 48 59.5t61.5 55t62.5 39t53 12.5q14 -4 19.5 -19.5t4.5 -35t-7.5 -41t-14.5 -35.5q38 40 90 64q30 14 54 14q17 0 30 -7q23 -12 26 -49v-12q0 -33 -13 -78q-15 -53 -15 -84v-11 q4 -32 18.5 -40t36 3t40.5 34q18 23 33.5 49t21.5 49q8 20 25.5 17t9.5 -31q-6 -29 -20.5 -52.5t-39.5 -58.5q-31 -41 -80 -63q-37 -17 -70 -18q-10 0 -20 2q-41 6 -61 52q-9 20 -10 51q0 37 14 87q12 43 8 57t-17.5 8t-33 -26.5t-36.5 -46t-28.5 -52t-11.5 -43.5 q2 -25 -11 -35t-30.5 -9t-32 9.5t-14.5 20.5q-2 27 4 59.5t13.5 61t10.5 48t-5 23.5q-12 4 -37 -14t-51.5 -50t-48 -73t-29.5 -82q-4 -25 -30 -28.5t-42 18.5q-8 10 -9 51z" />
<glyph unicode="n" horiz-adv-x="530" d="M2 543q2 51 10.5 94t22.5 51q12 8 28.5 6t32 -9t25.5 -18.5t10 -21.5q0 -23 -11 -61q-9 -33 -10 -73q0 -7 1 -15q12 29 33.5 60.5t49 56t59.5 37t62 1.5q37 -12 52.5 -55t23.5 -90t14.5 -84t24.5 -37t33.5 13.5t28 34t21.5 43t17 38.5q14 35 32 31t3 -41 q-6 -18 -19.5 -52t-32.5 -67t-48 -57.5t-68 -26.5h-11q-50 0 -76 33q-28 37 -40 85t-15 91t-13 53t-24.5 3t-28 -21.5t-23.5 -33.5t-16 -34q-14 -45 -15 -73.5t-12 -47.5q-12 -20 -48 -13t-59 40q-10 13 -13 61q-2 28 -2 59q0 20 1 40z" />
<glyph unicode="o" horiz-adv-x="464" d="M0 522q2 36 18.5 71.5t45 63t67.5 39.5q18 5 35.5 5t35.5 -5q36 -10 52 -32q10 -16 10 -37q18 12 41 12h4q20 0 39 -10.5t29 -34.5l4 -14q49 0 85 12t56 20q29 10 18.5 -11t-36.5 -36q-14 -8 -46 -18t-73 -10q-2 -53 -37 -100.5t-94 -69.5q-37 -13 -76 -15q-4 0 -9 -1 q-35 1 -63 11q-32 12 -57.5 35t-38.5 56q-10 28 -10 59v10zM125 518q8 -50 42 -78q28 -24 61 -23q7 0 14 1q36 4 58 39q20 31 19 70v10q-29 -2 -54 9t-27 34q-4 18 8 30q-4 16 -25.5 28.5t-44.5 2.5q-29 -12 -44 -47q-10 -23 -9 -48q-1 -14 2 -28z" />
<glyph unicode="p" horiz-adv-x="532" d="M-179 -188q11 88 40.5 190t75 208.5t102.5 201.5q-12 78 -27.5 136t-31.5 81q-12 16 -8.5 36.5t18 37t34 23.5t37.5 -1q25 -12 43.5 -58t32.5 -116q59 70 122 109q57 34 114 34h12q53 -4 73 -34q16 -22 16 -53q0 -8 -1 -18q-6 -42 -34.5 -89t-71.5 -88t-96.5 -69 t-108.5 -30v-46q0 -80 -5 -163q-7 -106 -29 -200t-57.5 -168t-86.5 -107q-54 -34 -90 -34q-11 0 -21 3q-39 15 -51 70q-6 29 -6 67q0 35 5 77zM-67 -278q7 -43 29 -43q7 0 15 4q37 18 56.5 83.5t28.5 155.5q5 59 5 124q0 34 -1 70q-5 105 -15 201q-43 -109 -73.5 -227.5 t-41.5 -214.5q-7 -54 -7 -95q0 -33 4 -58zM147 494q8 -57 13 -129q53 0 99 34.5t71 76.5q23 38 23 71v8q-3 37 -46 41q-5 1 -11 1q-37 0 -73 -25q-41 -27 -76 -78z" />
<glyph unicode="q" horiz-adv-x="479" d="M-151 124.5q1 18.5 24 22.5q86 18 174 27.5t193 13.5q4 106 18 211q-45 -53 -106 -67q-18 -5 -34 -5q-41 0 -75 27q-47 37 -50 102v9q0 61 42 117q45 59 109 74q20 5 38 5q41 0 74 -24q29 -23 41 -57q10 39 25 71q6 14 26.5 12.5t41 -12t33.5 -26t5 -27.5 q-74 -100 -98 -204q-22 -88 -22 -176q0 -14 1 -28q47 0 96.5 0.5t104.5 2.5q39 0 60.5 -6.5t23.5 -14.5t-18.5 -15t-63.5 -10q-59 -2 -107.5 -5t-91.5 -7q12 -106 42 -203.5t53 -177.5q6 -23 -9.5 -45t-38 -37.5t-46 -19.5t-33.5 12q-8 12 -16.5 53t-14.5 103.5t-10 140.5 q-3 52 -3 108q0 27 1 56q-61 -10 -106.5 -22.5t-79.5 -22.5t-59.5 -19.5t-47.5 -13.5q-29 -4 -51.5 9.5t-34 31.5t-10.5 36.5zM115 443q8 -42 39 -52q8 -3 15 -3q22 0 47 22q32 28 48 75q8 23 8 43q0 15 -5 29q-11 31 -40 41t-57.5 -4t-44.5 -62q-12 -33 -12 -63 q0 -13 2 -26z" />
<glyph unicode="r" horiz-adv-x="411" d="M-33 707q4 25 18.5 43t33 28t36 12.5t29.5 -8.5q23 -20 18.5 -55t-18.5 -76q6 -6 30 -9q5 -1 10 -1q23 0 60 10q47 10 58.5 -6.5t-11.5 -30.5q-16 -10 -29.5 -32.5t-21.5 -49t-8 -53t8 -47.5q6 -16 24.5 -27.5t44 -14.5t54.5 4t53 32q39 37 56 88q2 10 10 15.5t14 3 t10.5 -9.5t-0.5 -21q-8 -29 -20 -50.5t-29 -43.5q-31 -41 -77 -71t-92 -42q-29 -8 -56 -8q-16 0 -31 3q-41 7 -63 38q-16 20 -20 54q-1 9 0 18q0 24 6 52q10 36 30.5 74.5t50.5 69.5q-25 -4 -45 -3t-37 3q-8 -27 -15 -52.5t-11 -37.5q-10 -25 -27.5 -22t-9.5 30q6 20 12 45 t13 47q-39 16 -50.5 45t-7.5 56z" />
<glyph unicode="s" horiz-adv-x="464" d="M-1 468q-1 9 -1 18q0 22 8 48q12 36 41 78q53 74 115 113q60 39 116 48q22 4 42 4q31 0 56 -9q42 -14 54 -47q9 -21 8 -41q0 -17 -6 -34q-14 -36 -37.5 -59.5t-45 -30t-19.5 16.5v11q0 48 -31 66q-27 16 -60 16q-9 0 -19 -2q-44 -6 -86 -30t-50 -56q-10 -37 10 -50 q20 -14 54 -16q23 -1 50 -1h28h14q36 0 67 -4q37 -5 61 -25q23 -18 23 -56v-6q-2 -31 -23.5 -69t-56.5 -69.5t-80 -51.5q-38 -17 -77 -18q-8 0 -15 1q-47 4 -70.5 30.5t-29.5 54.5t4 44t29 2q17 -13 58 -13h6q46 1 93 11t83 27.5t34 40.5q-2 20 -25.5 21t-59.5 -7t-80 -18 q-36 -8 -69 -7h-14q-47 2 -70.5 20.5t-28.5 48.5z" />
<glyph unicode="t" horiz-adv-x="331" d="M-430 997q56 19 108 27q37 5 75 6q15 0 30 -1q53 -3 113.5 -12t140.5 -22q20 80 51 154t70 129t83 88t93 33q40 0 56 -38q11 -27 11 -65q1 -16 -1 -34q-6 -62 -31 -140t-64 -157q30 -1 58 -1q87 0 146 14q77 19 123 46t68.5 53.5t40.5 32.5q16 6 28.5 -12.5t12.5 -48 t-17 -65.5t-58 -64q-68 -46 -173 -46h-12q-114 3 -250 25q-35 -66 -74.5 -124t-84.5 -105q10 -106 37.5 -181t74.5 -81h7q26 0 52 26q30 30 48 80q10 35 27.5 30t9.5 -40q-4 -18 -18.5 -46t-38 -54.5t-57.5 -45t-77 -18.5q-70 0 -112 54q-42 55 -58 142q-13 67 -12 146 q0 24 1 48q5 108 30 216q-133 25 -253 36q-31 3 -59 3q-83 0 -147 -24q-32 -12 -46 -12q-12 0 -12 8q0 20 60 40zM106 830q0 -12 -1 -24q0 -39 4 -77q63 76 110 180q-29 4 -54 9.5t-54 11.5q-3 -48 -5 -100zM117 983l127 -14q25 61 39 118.5t15 100.5v6q0 38 -12 60 q-13 24 -46 16q-47 -12 -79 -94t-44 -193z" />
<glyph unicode="u" horiz-adv-x="526" d="M-26 416.5q-1 21.5 6 40.5q12 43 38.5 95t28.5 116q0 20 15.5 26t34 1t34.5 -22.5t23 -43.5q6 -29 -6.5 -58.5t-25.5 -56.5t-20.5 -48.5t7.5 -29.5q10 -8 29.5 -1t42 25.5t44 45t37.5 59.5l12 23q10 53 25 63q23 16 53.5 5t42.5 -27q6 -8 5 -27.5t-4 -46.5t-7 -56.5 t0 -56.5q2 -23 12.5 -34t22.5 -12t24.5 5.5t22.5 16.5q18 23 32.5 49.5t22.5 46.5q6 23 23.5 19.5t11.5 -31.5q-8 -29 -20 -52.5t-41 -58.5q-14 -16 -35 -29.5t-46.5 -17.5t-54 0t-55.5 21q-25 14 -34 50t-11 77q-18 -27 -44.5 -52.5t-54.5 -45t-55.5 -33t-50.5 -15.5 q-31 -4 -49 6t-26.5 26.5t-9.5 38z" />
<glyph unicode="v" horiz-adv-x="495" d="M2 610q6 25 29.5 44.5t48 26.5t41 1t8.5 -35q-5 -20 -6 -54q0 -7 1 -13q1 -44 11 -86q11 -43 33 -74q20 -27 49 -28q4 0 8 1q14 0 28.5 19.5t24 48t12.5 60.5t-1 59q-16 10 -29.5 24t-17.5 27q-8 20 8 34.5t45 16.5h8q20 -2 43 -11.5t39 -29.5q10 -16 10 -41q19 -2 36 -2 q39 0 71 10q46 14 67 23q29 10 19 -11.5t-37 -35.5q-17 -10 -63 -22q-28 -8 -59 -8q-20 0 -40 3q-6 -31 -20.5 -64.5t-35 -64.5t-45 -54.5t-50.5 -33.5q-15 -6 -33 -6q-23 0 -51 12q-48 20 -86 60q-36 40 -58 94q-13 33 -14 67q0 21 6 43z" />
<glyph unicode="w" horiz-adv-x="612" d="M4 500q-3 22 -3 44q0 33 7 66q6 25 30.5 44.5t49.5 26.5t41 1t8 -35q-8 -23 -14 -66.5t-6 -85.5t8 -73t27 -29q20 2 35.5 31t23.5 68q-6 29 -6 67.5t20 79.5q8 20 29.5 30.5t42 10.5t34 -8t9.5 -25q-8 -23 -16.5 -66.5t-8.5 -86.5t13.5 -74t48.5 -27q16 0 28.5 21.5 t19.5 52.5t8 64.5t-7 58.5q-16 8 -29.5 18t-17.5 23q-8 23 9.5 37t47.5 14q18 0 45 -9t43 -32q10 -16 11 -37h15q46 0 79 10q39 12 61 23q29 10 18.5 -11.5t-36.5 -35.5q-16 -10 -54 -22q-28 -9 -62 -8q-12 0 -24 1q-4 -31 -17 -65.5t-31.5 -65.5t-42 -55.5t-50.5 -34.5 q-16 -6 -32 -6q-24 0 -46 14q-37 22 -65 62q-18 -23 -40 -41.5t-44 -28.5q-15 -6 -31 -6q-21 0 -41 12q-35 20 -57.5 60t-30.5 94z" />
<glyph unicode="x" horiz-adv-x="413" d="M-123 281.5q0 17.5 21.5 35t81.5 19.5q43 29 79.5 62.5t71.5 70.5q-47 39 -83 80q-32 37 -32 72v8q6 41 34 63.5t57.5 29.5t50 -0.5t12.5 -25.5q-14 -36 -14 -78v-10q2 -47 18 -88q47 57 88 114.5t81 102.5t83 74t96 33q10 1 20 0q52 0 86 -18q40 -22 58.5 -47t15 -43.5 t-25.5 -6.5q-35 19 -74 23q-6 1 -12 0q-35 0 -81 -20q-54 -24 -131 -83t-183 -168q23 -35 63 -61q66 -43 96 -86q19 -28 19 -49q0 -11 -6 -21q-12 -20 -58.5 -9t-110 25.5t-137 14.5t-139.5 -43q-14 -10 -29.5 1t-15.5 28.5zM57 336q21 2 40 2q23 0 43 -3q36 -5 62.5 -10.5 t43 -6t22.5 11.5q10 16 -25.5 46t-82.5 68q-25 -25 -49.5 -52t-53.5 -56z" />
<glyph unicode="y" horiz-adv-x="544" d="M-463 90q20 29 89 32q15 1 32 1q60 0 140 -9q104 -10 236 -28t281 -33q-6 35 -14 83t-12 83q-8 75 -8 127q0 15 1 28q3 58 7 111q-39 -53 -97.5 -93t-103.5 -46q-7 -1 -14 -1q-32 0 -50 25q-20 31 -24 74q-1 14 -1 29q0 29 5 59q8 46 21 70q12 27 40.5 41t54 17.5t43 -3 t9.5 -18.5q-18 -31 -30.5 -65.5t-16.5 -65.5t-3 -54.5t9 -31.5q8 -10 28.5 -1t45 30.5t47 51t39.5 62.5q10 23 26.5 52.5t26.5 41.5q18 20 40 15.5t38 -23t23.5 -42t-3.5 -42.5q-29 -47 -37 -109q-5 -36 -5 -75q0 -27 2 -55q6 -68 19 -140.5t28 -144.5q100 -7 183 -7 q69 0 125 5q124 10 203.5 27.5t119.5 32t55 8.5q14 -6 14 -29t-15.5 -50.5t-46 -56t-75.5 -45.5q-31 -12 -86.5 -12t-128 6t-157.5 18.5t-175 26.5q24 -120 24 -211q0 -90 -53 -137q-58 -48 -149 -48h-11q-98 3 -208.5 43t-218 104.5t-186.5 134t-118 133.5q-22 36 -22 64 q0 23 14 40zM-297 45q-6 -8 -6 -21q0 -20 13 -50q24 -52 84.5 -113.5t155.5 -124t222 -101.5q41 -14 71 -14q26 0 43 10q38 21 50 72q8 34 8 79q0 22 -2 47q-6 75 -18 161q-113 18 -218.5 35.5t-190.5 27.5q-77 9 -131 9h-10q-57 -1 -71 -17z" />
<glyph unicode="z" horiz-adv-x="536" d="M0 514q37 135 71.5 185.5t69.5 50.5t69 -33t69 -64q45 47 90 76q31 20 59 20q13 0 25 -4q33 -10 33.5 -38.5t-20.5 -54.5q-22 -26 -63 -44q-26 -11 -58 -12q-18 0 -38 4q-37 -35 -65.5 -66.5t-61.5 -72.5q35 -8 71 -24.5t67.5 -32t57 -27.5t42.5 -12q18 0 55 30.5 t64 118.5q6 23 23.5 19.5t10.5 -31.5q-12 -49 -35.5 -93t-52 -78t-61.5 -55.5t-66 -25.5h-10q-36 0 -70 26q-40 30 -76 63.5t-67 56t-51 5.5q-18 -14 -30.5 -15t-17.5 7t0 20.5t19 24.5q31 29 82 29q16 23 45 64.5t66 86.5q-51 14 -84 14.5t-55.5 -13t-39 -43t-32.5 -76.5 q-12 -31 -27.5 -24t-7.5 38z" />
<glyph unicode="{" horiz-adv-x="385" d="M108.5 374q4.5 42 20.5 82t28.5 70.5t13.5 49t-26 16.5q-18 -2 -26 7t-6 21.5t12 23.5t29 13q18 2 22 28t4 63.5v85t11.5 91.5t39 80.5t82.5 57.5q63 23 79.5 9.5t-36.5 -58.5q-31 -27 -44 -63t-19 -76.5t-9 -81.5t-12.5 -75t-29 -59.5t-58.5 -33.5q37 -12 49.5 -39 t12.5 -60.5t-8.5 -72.5t-13.5 -76t-2 -71t24 -56q14 -16 19 -30.5t-1 -22t-25.5 -4t-54.5 25.5q-51 31 -65.5 72t-10 83z" />
<glyph unicode="|" horiz-adv-x="552" d="M193 119q2 33 4 98.5t5 147t7 173t9 175.5t11.5 153.5t12.5 108.5q10 57 38.5 100t56.5 64.5t45 16.5t3 -42q-10 -25 -23.5 -90.5t-30 -154.5t-31.5 -193.5t-29.5 -205.5t-24.5 -191.5t-15 -151.5q-2 -31 -8 -49.5t-14 -21.5t-13.5 11.5t-2.5 51.5z" />
<glyph unicode="}" horiz-adv-x="385" d="M16.5 183.5q-16.5 13.5 36.5 58.5q45 39 56.5 99t17.5 120.5t22.5 108.5t75.5 61q-37 12 -49 38.5t-12 60.5t8 73t13 75.5t2 69.5t-23 58q-14 16 -19.5 30.5t1 21.5t25.5 3t54 -25q49 -31 64.5 -71.5t11.5 -82.5t-20.5 -82t-28.5 -71t-13 -49t25 -16q18 2 26.5 -7.5 t6.5 -21.5t-12.5 -23.5t-28.5 -13.5t-22.5 -27.5t-4.5 -63.5v-85t-11 -91t-38.5 -81t-83.5 -57q-63 -23 -79.5 -9.5z" />
<glyph unicode="~" horiz-adv-x="493" d="M98.5 455.5q-16.5 15.5 20.5 64.5t66.5 65.5t53 12.5t41 -20.5t33 -31t27.5 -19.5t25 14q18 27 32.5 34t20.5 -0.5t3 -25t-18 -37.5q-27 -35 -50 -45t-45.5 -6t-43 16t-40 21.5t-37 10.5t-33.5 -20q-39 -49 -55.5 -33.5z" />
<glyph unicode="&#xa1;" horiz-adv-x="352" d="M80 211q-2 16 13.5 76.5t36 129t40 129.5t25.5 77q12 31 27.5 30.5t19.5 -53.5q2 -29 2 -97.5t-3 -143t-10.5 -136t-15.5 -71.5t-29.5 -8.5t-44 11t-41 25t-20.5 31.5zM147 848q0 31 25 54.5t64 23.5q35 0 59 -23.5t24 -54.5q0 -29 -24.5 -50.5t-58.5 -21.5 q-39 0 -64 21.5t-25 50.5z" />
<glyph unicode="&#xa2;" d="M35 813q70 37 137.5 67.5t144.5 53.5q4 0 8.5 20.5t8.5 45t8 48t8 31.5q23 35 68 53.5t78 34.5q88 35 179 61.5t183 51.5q94 23 188.5 39t190.5 24q33 4 80 8.5t95 3.5t92 -12.5t71 -37.5q2 -4 -2 -29t-6 -33l-6 -98q0 -4 4 -4q78 -23 152.5 -58.5t123.5 -103.5v-2 q-16 4 -36.5 -3t-41 -20.5t-38 -28t-27.5 -26.5q31 -16 50 -47t27.5 -66.5t6.5 -72.5t-13 -68q-16 43 -49.5 66.5t-74.5 35t-85 14.5t-83 5q-45 4 -94.5 2t-92.5 14q-16 6 -22 25.5t-7 43t2 46.5t5 37q-184 -14 -363.5 -56t-351.5 -102q-8 -2 -8 -6q2 -10 8 -33.5t10 -50.5 t6 -49.5t-6 -28.5q-23 -18 -58.5 -21t-64.5 -7l-157 -25q-35 -8 -67 -17.5t-62 -21.5q-14 -8 -28.5 -13t-29.5 -16q-8 -8 -18 -20t-17 -16q10 35 24.5 67.5t27.5 63.5q2 6 13 25.5t21.5 41t18.5 39t6 21.5q-25 35 -58.5 67.5t-78.5 36.5zM86 -133h47q4 -41 7 -83t12 -83 q4 41 10 83t14 83h37l25 -166q4 41 9 83t9 83h43l-43 -223h-43q-6 37 -11 72.5t-9 70.5q-4 -35 -11.5 -70.5t-13.5 -72.5h-43zM90 819q68 -37 109 -108q2 -2 -4.5 -15.5t-14.5 -29t-15 -28.5t-9 -20q-25 -45 -41 -94q51 27 104 39t108.5 20.5t110 15.5t107.5 24 q-18 18 -47 25t-62 8t-65.5 -2t-55.5 -5v131t4 131q-59 -16 -116.5 -39.5t-112.5 -52.5zM305 -133h45q4 -41 8 -83t11 -83q4 41 10 83t14 83h39l23 -166q4 41 9 83t9 83h43l-43 -223h-41q-8 37 -13 72.5t-9 70.5q-4 -35 -10.5 -70.5t-12.5 -72.5h-45zM342 709q8 0 22.5 6 t29 15t27.5 18.5t23 13.5q37 16 75 29.5t77 27.5q78 23 155.5 43.5t159.5 38.5q78 16 155 31.5t157 21.5q72 8 154.5 11.5t152.5 -29.5q6 55 6 112.5t4 110.5q0 29 2 57.5t6 57.5q2 14 -6 22.5t-20.5 13.5t-26.5 7t-27 4q-119 18 -245.5 1t-245.5 -42q-129 -27 -255 -60.5 t-249 -86.5q-23 -12 -46.5 -24.5t-43.5 -29.5q-20 -16 -24.5 -49t-8.5 -55q-8 -66 -8 -132.5v-133.5zM367 825q0 23 15 38.5t36 19.5q6 2 15 -2t5 -15q-12 -8 -22 -8q-12 -4 -16.5 -16.5t1.5 -22.5q4 -4 8.5 -5t8.5 -3q20 -2 33.5 11.5t22.5 34t13.5 41t8.5 34.5 q-27 -27 -62 -35q-27 -4 -43 12q-16 8 -16 37q0 27 12 51q27 61 86 99q12 6 25.5 12t27.5 10q10 4 21.5 12.5t21.5 10.5q12 -1 6 -13q12 0 21 -2q16 -2 27.5 -15t13.5 -32q6 -43 -23.5 -83t-66.5 -62q-18 -12 -27.5 -31.5t-18.5 -39t-20.5 -38t-34.5 -28.5q-23 -16 -53 -11 q-12 4 -20 14.5t-6 24.5zM405.5 937q2.5 -15 22.5 -15q31 0 49.5 19.5t30.5 47t18.5 58.5t10.5 51q-29 -6 -52.5 -23.5t-44.5 -38.5q-6 -6 -15 -25.5t-15.5 -39t-4 -34.5zM522 -133h45l19 -166q4 41 10 83t14 83h39l25 -166q2 41 7 83t11 83h41l-41 -223h-43q-8 37 -12 73.5 t-10 73.5q-4 -37 -10.5 -73.5t-12.5 -73.5h-43zM530 950q14 4 29.5 19.5t26 35t14.5 40t0 34.5q-6 23 -33 23q-14 -37 -20.5 -75t-16.5 -77zM582 138q2 34 2 61q0 20 -1 38.5t1 38.5q0 49 26.5 67.5t73.5 18.5q37 0 54.5 -20t23.5 -50t4 -63.5t-2 -60.5v-80 q0 -47 -26.5 -66.5t-71.5 -17.5q-39 0 -56.5 20.5t-23.5 50t-4 63.5zM628 952.5q-5 20.5 6 46t31.5 46t43.5 22.5q12 0 16 -10q8 -12 2 -29q-6 -23 -27.5 -40t-44.5 -21q2 -12 10.5 -13.5t17.5 3t17.5 10.5t12.5 10q25 20 36 46t21 52q2 2 -1 9.5t-8 15.5t-8 17t-1 16 q10 27 34 22q12 0 17 -12q4 -10 2 -22.5t-2 -24.5q20 2 28.5 -1t-4.5 -28q-8 -16 -17 -33.5t-11 -36.5q0 -10 6 -10q20 0 34.5 20.5t26 46t22.5 51t25 34.5q8 2 17 -2q2 -4 2 -13q-4 -12 -10.5 -21t-1.5 -24q6 -12 13 -25.5t5 -27.5h2q20 25 32.5 60.5t45.5 52.5 q37 14 49 -21q10 -14 6 -25.5t-2 -27.5q8 2 14 10q16 12 18.5 35t8.5 41q4 4 11 5t12 -1q10 -2 8 -12v-2q10 10 24 16q10 6 17.5 2t11.5 -14q4 -12 1 -22.5t-8 -21.5t-10 -22.5t-3 -23.5q14 12 24 26.5t18.5 29.5t17.5 28.5t26 23.5q20 10 51 0q4 6 17 8.5t9 -14.5 q-4 -18 -14 -38.5t-10 -41.5q0 -14 8 -2q20 20 30.5 48t19.5 55.5t23.5 53t43.5 42.5q14 8 24 -8q12 -23 4 -48.5t-24 -41.5q-14 -18 -43 -44t-25 -53q4 -16 23 -12q14 6 21 19.5t16 25.5q4 2 12 2t8 -10l-4 -12q-16 -39 -53 -54q-25 -14 -43 15q-4 4 -4 10 q-10 -8 -16.5 -15.5t-18.5 -11.5q-10 -4 -16.5 0t-12.5 8q-4 -4 -12 -8t-16 -6q-31 -6 -43 21v2q-8 -10 -17.5 -17.5t-23.5 -11.5q-14 -8 -25 12q-6 12 -3 23.5t8 22t9 21.5t2 23q-18 -8 -25 -19t-11.5 -25.5t-6.5 -29t-8 -28.5q-6 -16 -24 -8q-8 2 -9 10q0 4 1 9t1 7 q-14 -4 -19 -4t-15 -10t-24.5 -18.5t-31.5 -8.5q-10 2 -16 8.5t-10 14.5q-16 -16 -40 -32.5t-50 -12.5q-16 2 -25 18q-25 -29 -51 -36q-29 -12 -33 20q-4 27 8.5 44t22.5 38q2 4 -3 5t-7 -3q-8 -20 -18.5 -44t-26 -45.5t-36 -34.5t-46.5 -11q-31 2 -36 22.5zM638 163 q-1 -38 1 -75q0 -16 9 -26.5t21.5 -14.5t24 1t15.5 24q2 12 2 27.5v29.5v147q0 16 -10.5 27.5t-22.5 16t-23.5 -2t-15.5 -22.5q-2 -14 -1 -29.5t1 -27.5q0 -37 -1 -75zM653 416q12 14 15.5 36.5t2.5 48t-4 49t-3 42.5v125q0 16 1 30.5t-12 28.5h76q-14 -12 -12 -32.5 t2 -36.5v-142q0 -16 -2 -49t10 -47q14 -23 37.5 -8.5t28.5 33.5q8 27 2.5 54t-9.5 54q-4 14 -10 38t-8 48.5t2 46t21 33.5q10 10 31.5 10t29.5 -16q6 -16 -2 -21.5t-18.5 -4.5t-17.5 8.5t1 15.5q-16 -8 -17 -28.5t6 -44t17 -46.5t15 -35q12 -37 17 -87t-22 -85 q-10 -14 -33.5 -19t-50 -5t-53 3t-41.5 3zM655 987q12 -2 28.5 15.5t18.5 27.5q4 8 -2 12.5t-12 -2.5q-10 -10 -18.5 -24.5t-14.5 -28.5zM715 -328q0 14 9 22.5t21.5 8.5t21.5 -8t9 -23q0 -16 -9 -23t-21.5 -7t-21.5 7t-9 23zM776 1124q-2 -8 4 -20h4q0 8 1 13t-1 13 q-6 0 -8 -6zM780 4q10 14 13.5 34.5t2.5 44t-4.5 46.5t-3.5 39v172q0 10 -8 22h58q29 -12 51 -50t35 -66q0 25 2 59.5t-13 56.5h74q-12 -10 -11 -24t1 -29v-246q0 -14 -1 -31.5t11 -27.5h-207zM797 -356l59 223h64l59 -223h-51l-15 51h-53l-10 -51h-53zM844 47 q0 -14 11 -23.5t25.5 -11.5t28 3.5t15.5 19.5q-4 63 -21.5 127.5t-58.5 116.5v-232zM865 506.5q-3 19.5 7 32.5q10 12 33 13t27 -22q0 -10 -7 -15t-15.5 -5t-14.5 4t-6 14q-12 -4 -12 -14t7 -20.5t17 -19.5t17 -11q14 -4 34.5 -4t30.5 10q20 20 16 40.5t-19 38t-35.5 32 t-31.5 24.5q-18 16 -30.5 42t-12.5 52.5t13.5 48t44.5 27.5q27 6 54.5 4t51.5 -2l-6 -10q0 -14 7 -29.5t13.5 -31t5.5 -29.5t-16 -27q-14 -10 -33.5 -9t-21.5 22q0 12 7 17t15.5 5t14.5 -5t4 -13q14 2 14 12t-8 21.5t-18.5 20.5t-18.5 11q-14 4 -32.5 1t-24.5 -19 q-12 -25 -4 -43.5t24.5 -32.5t37 -27.5t32.5 -27.5q14 -20 22.5 -47t4.5 -52.5t-20.5 -44t-47.5 -22.5q-27 -2 -53.5 -1t-54.5 1q8 4 5 19.5t-8.5 33.5t-8.5 37.5zM866 -266h41q-4 23 -9 46t-11 46zM874 1014q4 -12 16.5 -10t14.5 14q2 18 -10 43q-6 -8 -14.5 -22.5 t-6.5 -24.5zM991 1059l4 -15q10 -14 25 -6q16 4 23.5 21.5t3.5 34.5q-2 10 -9.5 16t-21.5 -4q-20 -14 -25 -47zM997 4q12 14 15.5 36.5t2.5 47.5t-4 48.5t-3 39.5v127q0 16 1 29.5t-12 29.5h76q-10 -10 -13 -30.5t-2 -42t3 -43t2 -35.5v-166h104q23 0 55.5 -3t55.5 13 q-4 -8 -7 -29.5t-14 -21.5h-260zM1006 -135q29 4 64.5 6t62.5 -14q31 -23 22.5 -58t-37.5 -49q14 -6 21.5 -19.5t10.5 -28.5t5 -30.5t8 -27.5h-51q-6 12 -8 27.5t-6 28.5t-12.5 22.5t-26.5 7.5v-86h-53v221zM1057 -196.5q2 -24.5 2 -34.5h12q18 0 26.5 10t6.5 22.5 t-11.5 21.5t-27.5 7q-10 -2 -8 -26.5zM1065 416q10 12 11 25.5t1 27.5v248q0 14 -1 30.5t-11 28.5h127q25 -25 25.5 -59.5t-9.5 -67.5q-4 -8 -15 -29.5t-20.5 -45t-11.5 -45t10 -27.5q-6 12 4.5 13t21.5 -4t14 -14.5t-17 -17.5q-25 -10 -35 9.5t-8 35.5q0 16 6 32.5t8 31 t-4 22.5t-28 6v-155q16 0 41.5 -3t44.5 11q-6 -14 -8.5 -26.5t-6.5 -26.5h-139zM1098 362h78q-12 -29 2 -65.5t26 -60.5q12 29 22.5 62.5t0.5 63.5h80q-23 -12 -27 -38.5t-10 -47.5q-6 -20 -23.5 -47.5t-17.5 -48.5q0 -23 -3 -56.5t13 -51.5h-76q18 18 14.5 53.5t-3.5 58.5 q-12 23 -21.5 46.5t-17.5 45.5q-10 23 -14.5 46.5t-22.5 39.5zM1133 662q20 0 45.5 2t27.5 32q0 16 -7 23.5t-18.5 10.5t-24.5 3h-23v-71zM1192 -133h53v-223h-53v223zM1245 1092q-4 -10 1 -27.5t22 -3.5q12 12 21 33t11 39q-2 8 -4 13t-12 1q-16 -8 -25.5 -23.5 t-13.5 -31.5zM1274 -328q0 14 9 22.5t21.5 8.5t21.5 -8t9 -23q0 -16 -9 -23t-21.5 -7t-21.5 7t-9 23zM1294 813q-8 -6 4 -8q27 -10 57.5 -13.5t62.5 -3.5h62.5t59.5 -2t57.5 -5t57.5 -13q29 -8 51.5 -23.5t48.5 -27.5q0 61 -21.5 106t-80.5 68q35 31 69.5 58.5t75.5 43.5 q-49 47 -110.5 77t-126.5 46q-2 -57 -3.5 -112.5t-5.5 -112.5l-2 2v-6q-27 -2 -64.5 -4t-74.5 -9.5t-68.5 -21.5t-48.5 -39zM1364 -133h57l68 -152q-4 39 -4 77v75h47v-223h-51q-20 39 -37 78.5t-35 76.5q2 -39 2 -77.5v-77.5h-47v223zM1393 1157q16 20 31.5 40t19.5 46h-2 q-37 -37 -49 -86zM1562.5 -268q-8.5 37 14.5 80q12 29 40 43t62 14h10.5t17.5 -2t16.5 -4t7.5 -4l-9 -41q-27 12 -48 8t-36.5 -18.5t-20.5 -37t3 -46.5q16 -47 61 -41q10 2 8.5 21.5t-1.5 27.5h-27v41h76v-121q-41 -16 -79 -9t-62.5 29.5t-33 59.5z" />
<glyph unicode="&#xa3;" horiz-adv-x="1028" d="M15.5 -8q-9.5 47 12 93t75 82t141.5 42q29 2 58.5 -1t57.5 -7q-18 33 -33.5 66.5t-31.5 70.5q-29 -10 -56.5 -21.5t-50.5 -27.5q-20 -14 -30.5 -5t-8 28.5t13.5 45t34 41.5q10 6 26.5 11.5t38.5 9.5l-18 57q-16 -6 -30.5 -11t-25.5 -13q-20 -14 -30.5 -5t-8 28.5t13.5 45 t34 41.5l8 4t10 4q-31 113 -44 222.5t-8 201.5t31.5 161t75.5 99q51 31 113.5 19t128.5 -55t130.5 -111t120.5 -143.5t99 -154.5t67.5 -146.5t25.5 -116.5t-29 -66q-29 -16 -76 -0.5t-98.5 47t-98.5 72.5t-71 76q-25 35 -30 53.5t3 23.5t25.5 -5.5t35.5 -32.5q14 -18 39 -42 t52.5 -41.5t53 -23.5t40.5 10q25 29 17.5 81.5t-37 111.5t-74.5 119.5t-95.5 104.5t-100.5 65.5t-87 3.5t-60.5 -67.5t-35 -120t-11.5 -156.5t13 -178q45 2 85 1t58 1q20 0 32.5 -9.5t13.5 -22.5t-9 -24.5t-35 -13.5q-23 -4 -58.5 -7t-74.5 -9q4 -16 7 -35t7 -35q18 2 35 2 t27 2q20 0 32.5 -9t13.5 -22.5t-9.5 -24.5t-34.5 -14l-45 -6q25 -92 65 -176q66 -23 128.5 -53.5t122 -59t117.5 -48t115.5 -17.5t115 29.5t116.5 95.5q18 20 28.5 8t9.5 -43t-14.5 -75t-43 -85t-77.5 -73.5t-118 -40.5q-78 -10 -143.5 10t-126 55t-117.5 78t-115 78 q-35 -41 -72.5 -74t-78.5 -53q-78 -39 -136.5 -35t-92 36t-43 79zM85 1q3 -26 25.5 -41t62.5 -14.5t97 29.5q27 14 53.5 40t49.5 61q-35 16 -71 26.5t-75 10.5q-51 0 -83.5 -18.5t-47 -43t-11.5 -50.5z" />
<glyph unicode="&#xa4;" horiz-adv-x="569" d="M28 681q3 11 17 22.5t35.5 18.5t40.5 3q10 -2 25.5 -13.5t31 -24.5t29.5 -28.5t22 -23.5q12 4 24.5 6t27.5 2q6 0 13 -1t13 -1q2 0 3 1t3 1q37 10 77 36t63 48q12 12 25.5 9t22.5 -12t12 -21.5t-7 -22.5q-8 -8 -21.5 -22.5t-30 -29t-31.5 -26.5t-28 -16q14 -23 15 -45 q0 -27 -17 -49q25 -14 54.5 -44t44.5 -45q10 -10 7 -23t-12.5 -22.5t-22.5 -11.5t-26 10q-23 23 -61.5 47.5t-73.5 34.5h-22q-10 0 -20.5 1t-20.5 3q-20 -20 -53.5 -50t-51.5 -34t-39.5 3.5t-36 18.5t-17.5 21.5t13 14.5q29 8 62 26.5t57 38.5q-20 23 -20 60q0 29 16 51 q-25 23 -60.5 44t-68.5 32q-16 2 -13 13zM211 545q0 -23 21.5 -38t50.5 -15q31 0 53 15t22 38t-22.5 39t-52.5 16q-29 0 -50.5 -16t-21.5 -39z" />
<glyph unicode="&#xa5;" horiz-adv-x="1093" d="M25.5 -95q-13.5 81 17.5 180t98.5 201.5t159.5 178.5t201.5 110.5t224.5 -0.5q53 111 116.5 232t141.5 256q-121 -143 -227 -242q-45 -43 -92.5 -79.5t-90.5 -59.5t-78.5 -27t-60.5 19q-33 31 -25.5 90t41 133t86 153.5t111 152.5t117.5 130.5t106 83.5q39 23 69 31t40 5 t-1 -17t-52 -37q-35 -20 -80 -62.5t-91 -96.5t-86 -114.5t-65.5 -116t-31 -101.5t19.5 -68q25 -25 64.5 -9.5t89 56.5t103.5 98t106.5 118.5t99.5 120t82 99.5q20 27 35.5 34t22.5 2t5 -20.5t-16 -35.5q-123 -186 -220.5 -377t-181.5 -371q123 -55 179.5 -140t61.5 -179.5 t-32 -185.5t-98 -159q-49 -55 -100.5 -65t-85 0t-44 28.5t24.5 22.5q23 4 60.5 40t74.5 91t63.5 125t28 138.5t-34.5 129t-122 101.5l-39 -84q8 0 15 1t12 1q20 0 32.5 -9.5t13.5 -22.5t-9.5 -24.5t-34.5 -13.5q-14 -2 -31 -4t-35 -6q-8 -16 -15 -34.5t-18 -35.5h4 q20 0 32.5 -9t13.5 -22.5t-9 -24.5t-35 -13l-43 -6q-59 -117 -115.5 -209t-116.5 -148.5t-127 -71t-144 22.5q-72 35 -85.5 116zM154.5 23.5q11.5 -60.5 66.5 -86.5q82 -39 150.5 25.5t150.5 209.5q-59 -20 -96 -45q-20 -14 -30.5 -5t-8.5 28.5t13.5 45t33.5 42.5 q16 12 56 18t81 10q6 12 12.5 24.5t14.5 24.5q-23 -8 -43 -18t-37 -21q-20 -14 -30.5 -4.5t-8.5 28.5t13 45t34 42q16 10 49 16.5t70 10.5l55 108q-90 23 -176 -3.5t-157.5 -83t-125 -131.5t-76 -147.5t-11 -133z" />
<glyph unicode="&#xa6;" horiz-adv-x="505" d="M193 119l10 291q2 68 19.5 114.5t34.5 65t28.5 2t1.5 -77.5q-6 -43 -12.5 -97.5t-10.5 -108.5t-7 -101t-5 -78t-12.5 -49.5t-20.5 -22.5t-19.5 10.5t-6.5 51.5zM217 700l2 31q4 78 10.5 142.5t12.5 101.5q10 57 36.5 101t53 65.5t44 16.5t9.5 -44q-47 -205 -80 -311.5 t-53.5 -144t-29.5 -19.5t-5 61z" />
<glyph unicode="&#xa7;" horiz-adv-x="710" d="M129 423q-6 34 8.5 76t46.5 89l9 12q-16 12 -24.5 30.5t-6.5 47.5q2 33 26.5 77t63.5 80.5t90 60.5t104 17q55 -6 82 -35.5t33 -60.5t-5 -50t-32 -3q-23 14 -74 14t-105 -12t-94 -31.5t-38 -44.5t28.5 -25.5t67.5 7.5t90.5 19t94.5 9q51 -4 79.5 -24.5t34.5 -54t-8 -75.5 t-47 -87l-10 -15q35 -27 32 -77q-2 -35 -26.5 -77t-64.5 -79t-91 -60.5t-104 -17.5q-55 6 -82 36t-33 60.5t5 50t34 3.5q14 -10 43 -13.5t64.5 -1.5t72.5 10.5t66.5 20.5t48 26.5t16.5 30.5q-2 25 -28.5 26t-67.5 -8t-90 -20.5t-94 -9.5q-53 2 -81 23.5t-34 55.5zM227 547 q-12 -43 11.5 -57.5t65.5 -17.5t93.5 -1t94.5 -6q8 8 11 15t7 18q12 43 -12.5 57t-66.5 17t-93 1t-94 7q-13 -17 -17 -33z" />
<glyph unicode="&#xa8;" horiz-adv-x="421" d="M45 842q0 27 20.5 45t51.5 18q33 0 53 -18.5t20 -44.5q0 -27 -20 -45.5t-53 -18.5q-31 0 -51.5 18.5t-20.5 45.5zM221 850q0 25 20.5 43t51.5 18q33 0 53.5 -18.5t20.5 -42.5q0 -27 -20.5 -46.5t-53.5 -19.5q-31 0 -51.5 19.5t-20.5 46.5z" />
<glyph unicode="&#xa9;" horiz-adv-x="851" d="M82 479.5q-2 67.5 22.5 137t73.5 131.5q51 61 114.5 99t131.5 49t132.5 -3t117.5 -57q51 -43 77.5 -103.5t28.5 -128t-22.5 -138.5t-73.5 -132t-113.5 -98t-131 -49.5t-132 3t-117.5 58.5q-53 43 -79.5 103.5t-28.5 128zM128 472.5q3 -58.5 26.5 -106t63.5 -82t87 -48.5 q49 -16 103.5 -6t105.5 40.5t94 78.5t72 112q27 63 30 125.5t-14.5 115t-51.5 90t-81 54.5q-47 16 -107.5 2t-118.5 -49t-108.5 -88.5t-76.5 -116.5q-27 -63 -24 -121.5zM232.5 540.5q3.5 57.5 21.5 90.5q29 47 90.5 67.5t120.5 3.5q47 -14 71.5 -40.5t22.5 -51.5 q-2 -29 -23.5 -48t-44 -26.5t-39 -1t-8.5 26.5q16 49 1 81t-42 15q-16 -10 -28.5 -29.5t-18.5 -44t-5 -50t7 -46.5q8 -25 29 -42t47.5 -22t56 2t54.5 32q45 41 61 94q2 10 10.5 15t14.5 3t10 -9t0 -21q-14 -57 -49 -95q-29 -35 -72 -58.5t-89 -27.5t-90 12.5t-75 59.5 q-37 53 -33.5 110.5z" />
<glyph unicode="&#xaa;" horiz-adv-x="536" d="M-9 702.5q-3 65.5 42 124.5t109.5 75t111.5 -19q31 -25 43 -64q4 8 7 12.5t7 8.5q23 16 53.5 5t43.5 -28q6 -8 5 -17t-4 -23.5t-6.5 -34t0.5 -46.5q2 -23 11.5 -35t20.5 -15t23.5 2t22.5 16q18 23 33.5 49t22.5 47q8 23 25.5 19.5t8.5 -31.5q-8 -29 -20 -52.5t-39 -58.5 q-29 -35 -82 -48.5t-111 21.5q-31 20 -40 68q-4 -8 -17 -25q-23 -29 -51.5 -48t-58 -26.5t-58 -2t-53.5 23.5q-47 37 -50 102.5zM113 689q8 -42 39 -52q29 -10 61.5 18.5t48.5 75.5q14 41 3 72t-40 41t-57.5 -4.5t-44.5 -61.5q-18 -47 -10 -89z" />
<glyph unicode="&#xab;" horiz-adv-x="716" d="M127 518.5q2 22.5 14 42.5q8 14 40 38t70 47.5t72.5 43t51.5 27.5q18 8 33.5 4t21.5 -15.5t0 -25.5t-27 -27q-16 -10 -40.5 -26.5t-51 -38t-53.5 -45t-47 -45.5q43 -25 80 -51.5t47 -43.5q14 -25 15 -52t-6 -45.5t-19.5 -24t-24.5 15.5q-20 29 -62 67.5t-83 73.5 q-10 -2 -18.5 9.5t-11.5 30t-1 41zM332 518.5q2 22.5 14 42.5q8 14 40 38t70 47.5t72.5 43t51.5 27.5q18 8 33.5 4t21.5 -15.5t0 -25.5t-27 -27q-16 -10 -40.5 -26.5t-51.5 -38t-53.5 -45t-46.5 -45.5q43 -25 79.5 -51.5t47.5 -43.5q14 -25 15 -52t-6 -45.5t-19.5 -24 t-24.5 15.5q-20 29 -62.5 67.5t-83.5 73.5q-10 -2 -18 9.5t-11 30t-1 41z" />
<glyph unicode="&#xac;" horiz-adv-x="571" d="M108.5 480.5q2.5 19.5 13.5 45t34 41.5q10 8 33.5 13.5t52 8.5t58.5 5t54 4q-4 4 -4 10q-8 25 3.5 31t30.5 0t40 -23.5t31 -44.5q6 -16 3 -40.5t-9.5 -51t-14.5 -52.5t-12 -44q-4 -20 -17.5 -29.5t-25.5 -7.5t-20.5 15.5t-4.5 37.5q4 29 9.5 61t3.5 66q-53 -8 -117 -24.5 t-103 -44.5q-20 -14 -30.5 -5t-8 28.5z" />
<glyph unicode="&#xad;" horiz-adv-x="485" d="M88 480.5q2 19.5 13 45t34 41.5q14 10 44 16.5t63.5 9.5t64.5 5t49 2q20 0 32.5 -9t13.5 -22.5t-9 -25t-35 -13.5q-49 -4 -116.5 -22.5t-114.5 -50.5q-20 -14 -30.5 -5t-8.5 28.5z" />
<glyph unicode="&#xae;" horiz-adv-x="851" d="M82 511q4 60 28.5 120.5t67.5 116.5q51 61 114.5 99t131.5 49t132.5 -3t117.5 -57q51 -41 77.5 -100.5t27.5 -127t-21.5 -137.5t-69.5 -131q2 0 4 -1t4 -1q35 -16 57.5 -5t26.5 27q2 12 12.5 2t10.5 -28t-6 -36.5t-21.5 -30t-38 -13.5t-53.5 10q-25 8 -43 25 q-90 -84 -202.5 -103.5t-207.5 33.5q-29 -37 -59 -12q-20 14 -25.5 35.5t-1.5 50.5q-35 45 -51 101.5t-12 116.5zM128 466q5 -60 34 -110q12 49 22.5 103.5t-6.5 107.5q-4 14 -5 23.5t9 17.5q39 25 80 48.5t84 45.5q6 31 18.5 51.5t24.5 30t19.5 6t3.5 -21.5l-6 -39 q78 35 138.5 46.5t80.5 -15.5q18 -25 7 -54.5t-37 -57t-57.5 -51.5t-52.5 -36q41 -47 76 -96t72 -84q31 41 47 80q27 63 30 125.5t-14.5 115t-51.5 90t-81 54.5q-47 16 -107.5 2t-118.5 -49t-108.5 -88.5t-76.5 -116.5q-29 -68 -24 -128zM188 315q14 -18 35 -36 q29 12 52.5 75.5t39.5 143.5q-37 6 -53 49q-14 31 9.5 54.5t66.5 27.5l4 45q-41 -20 -78 -43t-65 -41q14 -39 15 -79t-4 -77t-12.5 -67.5t-9.5 -51.5zM258 256q10 -6 22.5 -11t24.5 -9q70 -23 148.5 5.5t142.5 94.5q-37 47 -64.5 105.5t-64.5 105.5q-35 -18 -64.5 -31.5 t-54.5 -17.5q-20 -70 -42.5 -134.5t-47.5 -107.5zM304.5 585.5q-9.5 -12.5 2.5 -34.5q7 -14 17 -16q4 16 6 33.5t4 33.5q-20 -4 -29.5 -16.5zM356 530q27 4 53.5 16.5t39.5 18.5q-31 31 -74 37zM381 625q20 -4 40.5 -14.5t43.5 -28.5q12 8 33.5 22t38 30.5t22.5 36t-10 36.5 q-16 18 -57.5 16t-94.5 -25q-4 -16 -8 -34.5t-8 -38.5z" />
<glyph unicode="&#xaf;" horiz-adv-x="485" d="M88 807.5q2 19.5 13 45.5t34 42q14 10 44 16.5t63.5 9.5t64.5 5t49 2q20 0 32.5 -9.5t13.5 -22.5t-9 -24.5t-35 -13.5q-49 -4 -116.5 -22.5t-114.5 -51.5q-20 -14 -30.5 -5t-8.5 28.5z" />
<glyph unicode="&#xb0;" horiz-adv-x="364" d="M51 1032q0 43 37 73t90 30t91 -30t38 -73t-38 -72.5t-91 -29.5t-90 29.5t-37 72.5zM109 1036q0 -23 21.5 -38t49.5 -15q31 0 53.5 15.5t22.5 37.5q0 23 -22.5 39.5t-53.5 16.5q-29 0 -50 -16.5t-21 -39.5z" />
<glyph unicode="&#xb1;" horiz-adv-x="534" d="M65.5 286.5q4.5 20.5 19.5 43.5t40 35q14 8 56 9t88 -2t88 -6.5t61 -5.5q20 -4 30.5 -15t10.5 -23.5t-12.5 -22.5t-36.5 -8q-25 2 -67 1t-88 -5t-88 -11.5t-67 -19.5q-23 -10 -31 0t-3.5 30.5zM86 552.5q4 20.5 19.5 43t39.5 35.5q10 4 35 6t56 2q-2 20 -6.5 37.5 t-8.5 34.5q-8 25 3.5 31t30.5 -0.5t40 -24.5t31 -45q4 -16 4 -37q35 -2 64.5 -4t43.5 -4q20 -4 30.5 -15.5t10.5 -24t-12 -22.5t-37 -8q-18 0 -47 1t-64 -1l-22 -106q-4 -20 -17.5 -28.5t-25.5 -6.5t-20.5 14t-4.5 37q4 16 6.5 37.5t2.5 44.5q-35 -4 -66 -10.5t-51 -16.5 q-23 -10 -31 0t-4 30.5z" />
<glyph unicode="&#xb2;" horiz-adv-x="571" d="M16.5 776q-6.5 35 21.5 71t95 42q57 2 117 -21q39 51 73.5 116t58.5 127.5t31 114.5t-12 79q-25 33 -75 17.5t-97 -54.5t-75.5 -88.5t-8.5 -85.5q6 -10 22.5 -15.5t39 -5.5t46 8.5t44.5 26.5q25 20 36 13t-22 -36q-31 -29 -70.5 -47t-77.5 -24t-71 -2t-47 20 q-25 31 -7.5 77t59.5 93t101.5 89t118 65.5t108.5 22.5t75 -40q20 -41 11 -101t-40 -128t-77 -137.5t-99 -124.5q39 -18 78 -37.5t75.5 -26t74.5 7t75 56.5q14 16 18.5 -4.5t-6 -53t-40 -64.5t-83.5 -38q-37 -4 -69.5 5t-62 25.5t-58.5 38t-55 40.5q-23 -18 -44.5 -33.5 t-41.5 -26.5q-59 -31 -96 -13.5t-43.5 52.5zM52 782.5q3 -18.5 26.5 -27t66.5 14.5q14 6 29.5 18.5t32.5 28.5q-41 23 -82 23q-39 0 -57.5 -19.5t-15.5 -38z" />
<glyph unicode="&#xb3;" horiz-adv-x="657" d="M16.5 1060q1.5 48 40.5 107.5t103.5 112.5t132.5 68q68 14 97.5 -25t23.5 -98q35 10 71.5 10t73.5 -16q61 -29 59 -91.5t-44 -137.5t-113.5 -151.5t-146 -130t-143.5 -75t-105 15.5q-27 25 -30 68t9 89t35.5 88t52.5 64q20 16 32.5 10.5t-3.5 -32.5q-41 -66 -40 -116 t30.5 -76.5t79 -21.5t106.5 52q63 53 104 110.5t59.5 108.5t16.5 91t-22 59q-23 20 -48.5 23t-50.5 -5q-16 -41 -49 -79t-80 -60q-49 -23 -58 -6.5t9.5 50.5t59 75t94.5 67q2 14 4 34t-4 37t-21.5 26.5t-48.5 3.5t-62.5 -27.5t-52 -48.5t-37 -55.5t-15.5 -47t12.5 -23.5 t46.5 15q10 6 7 -11t-18.5 -40.5t-44 -44t-67.5 -18.5q-57 4 -55.5 52z" />
<glyph unicode="&#xb4;" horiz-adv-x="374" d="M25.5 805q-5.5 14 19.5 37q12 12 33.5 27.5t45 30.5t46.5 27.5t39 16.5t35.5 -1t35 -15t23.5 -22.5t2 -24.5t-31.5 -22.5t-58.5 -20t-68.5 -16.5t-62.5 -15q-53 -16 -58.5 -2z" />
<glyph unicode="&#xb5;" horiz-adv-x="526" d="M-123 186q12 57 39 119t54.5 123t50 121.5t26.5 118.5q0 20 15.5 26t34 1t34.5 -22.5t23 -43.5q6 -29 -6.5 -58.5t-25.5 -56.5t-20.5 -48.5t7.5 -29.5q10 -8 29.5 -1t42 25.5t44 45t37.5 59.5l12 23q10 53 25 63q23 16 53.5 5t42.5 -27q6 -8 5 -27.5t-4 -46.5t-7 -56.5 t0 -56.5q2 -23 12.5 -34t22.5 -12t24.5 5.5t22.5 16.5q18 23 32.5 49.5t22.5 46.5q6 23 23.5 19.5t11.5 -31.5q-8 -29 -20.5 -52.5t-40.5 -58.5q-14 -16 -35 -29.5t-46.5 -17.5t-54 0t-55.5 21q-25 14 -34 50t-11 77q-18 -27 -44.5 -52.5t-54.5 -45t-55.5 -33t-50.5 -15.5 q-41 -6 -61 14q-10 -45 -19.5 -91t-15.5 -85t-9 -67.5t-1 -40.5q2 -23 -11.5 -18t-28.5 23.5t-27.5 47t-8.5 57.5z" />
<glyph unicode="&#xb6;" horiz-adv-x="677" d="M123 789.5q4 54.5 46 114t126 93.5q23 8 62.5 15.5t83.5 11.5t86 6t71 2q31 0 49.5 -9t21.5 -22.5t-12.5 -25.5t-50.5 -17q-10 -33 -24.5 -100t-29.5 -156.5t-30.5 -189.5t-29 -197.5t-22.5 -184.5t-13 -146q-2 -31 -8.5 -49.5t-14.5 -21.5t-13 11.5t-3 50.5q2 33 4 98.5 t5 147.5t7 173t9.5 175t11.5 153.5t12 108.5q6 35 20.5 66t30.5 53q-29 -4 -60.5 -9t-64.5 -11q-12 -43 -25.5 -115t-27.5 -158t-28.5 -181t-27 -185t-20.5 -171t-12 -136q-2 -31 -8 -49.5t-14.5 -21.5t-13.5 11.5t-3 50.5q2 37 4 119t6 181.5t10.5 206t12.5 192.5 q-63 -10 -95 25.5t-28 90z" />
<glyph unicode="&#xb7;" horiz-adv-x="309" d="M82 549q0 25 20.5 43t51.5 18q33 0 53 -18.5t20 -42.5q0 -27 -20.5 -46.5t-52.5 -19.5q-31 0 -51.5 19.5t-20.5 46.5z" />
<glyph unicode="&#xb8;" horiz-adv-x="344" d="M20.5 139.5q2.5 30.5 16.5 49t20 -4.5t30 -36t49.5 -13t46 14.5t22.5 43.5t-12.5 31.5t-33 -1.5t-38 -8t-29.5 12t-8 35t11 37t23.5 33.5t28.5 25.5t30 13.5t28 3.5q14 0 28 -2l-57 -49q-23 -20 -38 -38t-7 -28q4 -6 23.5 -1t41 7t40 -7t22.5 -44q2 -25 -4 -53.5 t-21.5 -52t-41 -40t-60.5 -16.5q-68 -2 -90.5 28t-20 60.5z" />
<glyph unicode="&#xb9;" horiz-adv-x="352" d="M8 1116q-2 12 17 14q25 2 52 17.5t55 38t54.5 48.5t46.5 48q12 27 31 49q25 33 38 34t12 -20.5t-19.5 -61.5t-54.5 -85q-8 -57 -10.5 -123.5t-0.5 -130t6.5 -117t8.5 -84.5q4 -29 -8.5 -27.5t-31 20t-38 49t-27.5 59.5q-6 18 -6 48t5 68.5t14.5 82.5t21.5 87l-37 -30 q-35 -18 -64.5 -17.5t-46 11t-18.5 22.5z" />
<glyph unicode="&#xba;" horiz-adv-x="536" d="M13 1022q-1 47 16.5 96t52.5 92t80 70t92 36t92 -1t82 -41t56.5 -73t20.5 -90t-16.5 -97t-52.5 -92t-80 -70t-92 -35t-92 2t-82 41t-56.5 73t-20.5 89zM111.5 938.5q13.5 -58.5 70.5 -78.5q29 -10 58.5 -2t56.5 31.5t49.5 59.5t38.5 79q33 86 20.5 154.5t-69.5 91.5 q-29 10 -58.5 -2t-57 -40t-51.5 -67t-38 -82q-33 -86 -19.5 -144.5z" />
<glyph unicode="&#xbb;" horiz-adv-x="716" d="M114 342q5 14 27 27q16 8 41 25.5t50.5 38t52 44t47.5 45.5q-41 27 -78 53.5t-47 42.5q-14 25 -15.5 52.5t6 46t19.5 23.5t25 -15q20 -31 61 -69t84 -72q10 2 18.5 -9.5t11.5 -30t0.5 -41t-14.5 -42.5q-10 -14 -40.5 -38t-68.5 -47.5t-73 -43t-51 -27.5q-18 -8 -33.5 -4 t-21.5 15.5t-1 25.5zM318.5 342q5.5 14 27.5 27q16 8 41 25.5t50.5 38t52 44t47.5 45.5q-41 27 -78 53.5t-47 42.5q-14 25 -15.5 52.5t6 46t19.5 23.5t24 -15q20 -31 61.5 -69t84.5 -72q10 2 18 -9.5t11.5 -30t1 -41t-14.5 -42.5q-10 -14 -40.5 -38t-68.5 -47.5t-73 -43 t-51 -27.5q-18 -8 -33.5 -4t-22 15.5t-1 25.5z" />
<glyph unicode="&#xbc;" horiz-adv-x="1042" d="M145 856q-2 12 17 14q25 2 53.5 17.5t56 39t53 49t46.5 48.5l30 47q25 33 38.5 34t12.5 -20.5t-19.5 -61.5t-55.5 -85q-8 -57 -10 -123.5t-1 -130t5 -117t8 -84.5q4 -29 -8.5 -27.5t-30.5 20t-37.5 49t-28.5 59.5q-4 18 -4 48t5.5 68.5t14.5 82.5t21 87l-37 -30 q-35 -18 -64.5 -17.5t-46 11t-18.5 22.5zM342.5 292q-14.5 -1 5.5 40q14 25 46 88t69 135t72 137t53 94q20 29 47 45.5t47 21.5t28.5 -2t-8.5 -24q-18 -18 -62 -79.5t-94 -139.5t-98.5 -155.5t-74.5 -126.5q-16 -33 -30.5 -34zM446.5 275.5q2.5 19.5 29 34t81.5 -0.5 q20 31 34.5 68t19.5 76t0 77.5t-25 71.5q-10 16 -1 22.5t26.5 3.5t36 -17.5t26.5 -39.5q6 -20 5 -54t-10.5 -71.5t-26.5 -76.5t-44 -70q35 -8 67.5 -11t61.5 -3q8 68 22.5 138.5t32 135t38 117.5t42.5 84q35 49 78 64.5t75 12.5t43 -19t-16 -32q-43 -27 -81.5 -80 t-70.5 -120.5t-56.5 -143t-40.5 -147.5q45 12 59 43q12 23 19.5 9.5t6.5 -41t-15.5 -58.5t-47.5 -41q-10 -4 -20.5 -4h-20.5q-8 -49 -9 -88t5 -62q10 -41 -5 -47t-32 31q-10 27 -13 74t1 106q-35 14 -73 31.5t-77 25.5q-8 -8 -16 -13t-18 -9q-47 -20 -70 -8t-20.5 31.5z" />
<glyph unicode="&#xbd;" horiz-adv-x="1171" d="M152 831.5q-2 12.5 16 14.5q25 2 53.5 17.5t56 39t53 49t46.5 47.5l31 48q25 33 38 33.5t12 -21t-19.5 -61.5t-55.5 -85q-8 -57 -10 -123.5t-1 -130t5 -117t8 -83.5q4 -29 -8 -28t-30.5 19.5t-38 49t-27.5 59.5q-4 18 -4.5 48t5 69t14.5 83t21 87l-36 -31 q-35 -18 -65 -17t-46 11t-18 22.5zM342.5 292q-14.5 -1 5.5 40q14 25 46 88t69 135t72 137t53 94q20 29 47 45.5t47 21.5t28.5 -2t-8.5 -24q-18 -18 -62 -79.5t-94 -139.5t-98.5 -155.5t-74.5 -126.5q-16 -33 -30.5 -34zM452.5 96q-6.5 35 21.5 71t95 42q31 2 58.5 -4 t56.5 -17q39 51 75 116t59.5 127.5t30.5 114.5t-11 79q-16 20 -45 20t-62 -15.5t-65.5 -42t-56 -57t-33 -61.5t5.5 -55q6 -10 22.5 -16.5t39 -5.5t46 9.5t43.5 26.5q25 20 36 13t-21 -35q-31 -31 -71 -49.5t-78 -24.5t-70.5 -1t-47.5 21q-25 31 -7 76t59.5 92t101 90 t118 66.5t108.5 22.5t75 -40q20 -41 11 -101t-39.5 -128t-77 -137.5t-99.5 -124.5q39 -18 78 -37.5t76 -26t74.5 6t74.5 55.5q14 16 18.5 -4.5t-6 -52t-40 -63.5t-82.5 -38q-37 -4 -70 5.5t-62.5 25.5t-57 37.5t-56.5 40.5q-43 -41 -86 -62q-59 -31 -96 -12.5t-43.5 53.5z M488.5 102.5q3.5 -18.5 27 -27t66.5 14.5q14 6 29.5 18.5t31.5 28.5q-41 23 -82 23q-39 0 -57.5 -19.5t-15 -38z" />
<glyph unicode="&#xbe;" horiz-adv-x="1349" d="M262 836.5q2 48.5 41 108t103.5 112.5t132.5 67t97.5 -24.5t22.5 -98.5q35 10 71 10.5t73 -16.5q61 -29 59 -91t-44 -137t-112.5 -151.5t-146.5 -130t-144.5 -75t-105.5 15.5q-27 25 -30 68t9.5 89t36 88t52.5 64q20 16 32.5 10t-3.5 -32q-41 -66 -39 -116t30.5 -76.5 t77.5 -21.5t107 52q63 53 104 110.5t60.5 108.5t17.5 91t-23 59q-23 20 -48 23t-50 -5q-16 -41 -50 -79t-81 -60q-47 -23 -57.5 -6.5t8 50.5t59.5 74.5t94 67.5q2 14 4.5 33.5t-3 37t-21.5 27t-49 2.5q-31 -6 -60.5 -27.5t-52 -48t-37 -55t-15.5 -47t11 -23.5t45 15 q12 6 9 -11.5t-19 -41t-44 -44t-67 -18.5q-57 4 -55 52.5zM648.5 292q-13.5 -1 6.5 40l25.5 51t40 79t47.5 93t48.5 94t44 81t34.5 56q20 29 47 45.5t46.5 21.5t27.5 -2t-8 -24q-16 -18 -60.5 -79.5t-95.5 -139.5t-99 -155.5t-75 -126.5q-16 -33 -29.5 -34zM747.5 277.5 q2.5 19.5 29 34t81.5 -0.5q20 31 34.5 68t20 76t0 77.5t-25.5 71.5q-10 16 -1 23.5t26.5 4.5t36 -17.5t26.5 -39.5q6 -20 5 -55t-10 -72.5t-26.5 -76.5t-44.5 -70q72 -16 129 -12q8 68 22.5 138.5t32 135t38 116.5t42.5 83q35 49 78 65.5t75 13.5t43 -20t-16 -33 q-43 -27 -81.5 -80t-70.5 -120.5t-56.5 -143t-40.5 -145.5q45 12 59 43q12 23 19.5 8.5t6.5 -42t-15.5 -58.5t-47.5 -41q-10 -4 -20.5 -4h-20.5q-8 -49 -9 -88t5 -62q10 -41 -5 -47t-32 33q-10 27 -13 73t1 105q-35 14 -72 31.5t-76 25.5q-14 -10 -36 -22q-47 -20 -70 -8 t-20.5 31.5z" />
<glyph unicode="&#xbf;" horiz-adv-x="677" d="M-36 318q11 42 46 77t84 64.5t92 58.5t72 57.5t21 63.5q-8 37 11 66.5t47 40t53.5 -4t29.5 -67.5q4 -55 -22.5 -93t-67.5 -66t-86 -48.5t-78 -44t-43 -52t18 -69.5q33 -51 77 -71.5t89 -19.5t85 21.5t63.5 55.5t25.5 79t-26 93q-16 27 8 44t59 15t65.5 -29.5t28.5 -95.5 q-2 -55 -38.5 -103t-95 -84t-131 -56.5t-141.5 -20.5t-129.5 22.5t-92.5 73.5q-35 51 -24 93zM293 907q0 31 24.5 54.5t63.5 23.5q35 0 59.5 -23.5t24.5 -54.5q0 -29 -24.5 -50t-59.5 -21q-39 0 -63.5 21.5t-24.5 49.5z" />
<glyph unicode="&#xc0;" horiz-adv-x="2238" d="M21.5 389q-3.5 55 31.5 123q61 119 181 188.5t277 95t340 10.5t376 -67q68 37 147 74q131 59 234 139q23 166 74 285t107 181.5t105.5 67.5t69.5 -56q23 -70 -28.5 -178.5t-170.5 -223.5q-6 -61 -9 -129t-1 -141q2 -84 12 -158q334 -61 400 33q10 14 21.5 8t19.5 -22.5 t9 -39t-7 -38.5q-16 -33 -54 -46.5t-94.5 -12.5t-128 15.5t-155.5 34.5q20 -119 58 -203.5t86 -139t104.5 -81t113.5 -26.5q29 0 44.5 -8t15.5 -18.5t-14.5 -20.5t-45.5 -15q-61 -8 -143 15.5t-161 87t-142.5 174.5t-87.5 278q-78 20 -158 41t-166 41l-84 17 q-162 -90 -262 -174t-154.5 -159t-68 -138.5t2 -111.5t53.5 -81t87 -45q29 -8 23.5 -27.5t-35 -33t-81.5 -14.5t-118 30q-59 27 -89 95.5t9 168t169 227.5t390 273q-156 20 -310.5 17t-287.5 -35.5t-233 -96t-150 -161.5q-31 -59 -9 -89t62 -28t81.5 34.5t54.5 98.5 q4 25 21.5 27t33.5 -9.5t24.5 -35t-5.5 -50.5q-31 -61 -79 -93t-99.5 -37t-98.5 13.5t-75.5 56.5t-32 93zM1288 723q13 -4 17 -4q82 -25 155.5 -45.5t138.5 -36.5q-2 27 -3 53.5t-1 54.5q0 78 7 150q-47 -33 -97.5 -62.5t-107.5 -56.5zM1741 1608q-6 12 2 24.5t23.5 22.5 t35 15t35.5 1t38.5 -16.5t46.5 -27.5t45.5 -30.5t33.5 -27.5q25 -23 19.5 -37t-58.5 2q-27 8 -62.5 15t-68.5 16.5t-58.5 19.5t-31.5 23zM1778 1106q84 96 118.5 177t26.5 120q-6 33 -23.5 27.5t-40 -45t-45 -110.5t-36.5 -169z" />
<glyph unicode="&#xc1;" horiz-adv-x="2238" d="M21.5 389q-3.5 55 31.5 123q61 119 181 188.5t277 95t340 10.5t376 -67q68 37 147 74q131 59 234 139q23 166 74 285t107 181.5t105.5 67.5t69.5 -56q23 -70 -28.5 -178.5t-170.5 -223.5q-6 -61 -9 -129t-1 -141q2 -84 12 -158q334 -61 400 33q10 14 21.5 8t19.5 -22.5 t9 -39t-7 -38.5q-16 -33 -54 -46.5t-94.5 -12.5t-128 15.5t-155.5 34.5q20 -119 58 -203.5t86 -139t104.5 -81t113.5 -26.5q29 0 44.5 -8t15.5 -18.5t-14.5 -20.5t-45.5 -15q-61 -8 -143 15.5t-161 87t-142.5 174.5t-87.5 278q-78 20 -158 41t-166 41l-84 17 q-162 -90 -262 -174t-154.5 -159t-68 -138.5t2 -111.5t53.5 -81t87 -45q29 -8 23.5 -27.5t-35 -33t-81.5 -14.5t-118 30q-59 27 -89 95.5t9 168t169 227.5t390 273q-156 20 -310.5 17t-287.5 -35.5t-233 -96t-150 -161.5q-31 -59 -9 -89t62 -28t81.5 34.5t54.5 98.5 q4 25 21.5 27t33.5 -9.5t24.5 -35t-5.5 -50.5q-31 -61 -79 -93t-99.5 -37t-98.5 13.5t-75.5 56.5t-32 93zM1288 723q13 -4 17 -4q82 -25 155.5 -45.5t138.5 -36.5q-2 27 -3 53.5t-1 54.5q0 78 7 150q-47 -33 -97.5 -62.5t-107.5 -56.5zM1778 1106q84 96 118.5 177t26.5 120 q-6 33 -23.5 27.5t-40 -45t-45 -110.5t-36.5 -169zM1801.5 1507q-5.5 14 19.5 37q12 12 33.5 27.5t45 31t46 27.5t39.5 17q16 4 35.5 -1.5t35 -15.5t23.5 -22.5t2 -24.5t-32 -22.5t-58.5 -19.5t-68.5 -16t-62 -16q-53 -16 -58.5 -2z" />
<glyph unicode="&#xc2;" horiz-adv-x="2238" d="M21.5 389q-3.5 55 31.5 123q61 119 181 188.5t277 95t340 10.5t376 -67q68 37 147 74q131 59 234 139q23 166 74 285t107 181.5t105.5 67.5t69.5 -56q23 -70 -28.5 -178.5t-170.5 -223.5q-6 -61 -9 -129t-1 -141q2 -84 12 -158q334 -61 400 33q10 14 21.5 8t19.5 -22.5 t9 -39t-7 -38.5q-16 -33 -54 -46.5t-94.5 -12.5t-128 15.5t-155.5 34.5q20 -119 58 -203.5t86 -139t104.5 -81t113.5 -26.5q29 0 44.5 -8t15.5 -18.5t-14.5 -20.5t-45.5 -15q-61 -8 -143 15.5t-161 87t-142.5 174.5t-87.5 278q-78 20 -158 41t-166 41l-84 17 q-162 -90 -262 -174t-154.5 -159t-68 -138.5t2 -111.5t53.5 -81t87 -45q29 -8 23.5 -27.5t-35 -33t-81.5 -14.5t-118 30q-59 27 -89 95.5t9 168t169 227.5t390 273q-156 20 -310.5 17t-287.5 -35.5t-233 -96t-150 -161.5q-31 -59 -9 -89t62 -28t81.5 34.5t54.5 98.5 q4 25 21.5 27t33.5 -9.5t24.5 -35t-5.5 -50.5q-31 -61 -79 -93t-99.5 -37t-98.5 13.5t-75.5 56.5t-32 93zM1288 723q13 -4 17 -4q82 -25 155.5 -45.5t138.5 -36.5q-2 27 -3 53.5t-1 54.5q0 78 7 150q-47 -33 -97.5 -62.5t-107.5 -56.5zM1763 1540q8 12 25.5 28.5t38 35 t41 36t33.5 29.5q6 6 20 16.5t30.5 17.5t35 5t34.5 -20q37 -45 37 -85t-16.5 -67t-35.5 -34t-21 16q-2 29 -17.5 56.5t-38.5 53.5q-23 -16 -38 -38.5t-27 -49.5q-10 -18 -29.5 -26.5t-38 -6.5t-30 10.5t-3.5 22.5zM1778 1106q84 96 118.5 177t26.5 120q-6 33 -23.5 27.5 t-40 -45t-45 -110.5t-36.5 -169z" />
<glyph unicode="&#xc3;" horiz-adv-x="2238" d="M21.5 389q3.5 -55 32 -93t75.5 -56.5t98.5 -13.5t99.5 37t79 93q14 27 5.5 50.5t-24.5 35t-33.5 9.5t-21.5 -27q-12 -66 -54 -98.5t-82 -34.5t-61.5 27.5t8.5 89.5q49 98 149.5 161.5t233.5 96t288 36t310 -17.5q-260 -145 -390 -273t-169 -227.5t-9 -168t89 -95.5 q66 -31 118 -30t81.5 14.5t35 33t-23.5 27.5q-49 12 -87 45t-53.5 81t-2 111.5t68 138.5t154.5 159t262 174l84 -17q86 -20 166 -40.5t158 -41.5q25 -168 88 -278.5t142 -174t161 -87t143 -15.5q31 4 45.5 14.5t14.5 21t-15.5 18.5t-44.5 8q-57 0 -113.5 26.5t-104.5 81 t-86 139.5t-58 203q84 -20 155.5 -34.5t128 -15.5t94 12.5t54.5 46.5q8 16 7 38.5t-9 39t-19.5 22.5t-21.5 -8q-66 -94 -400 -33q-10 74 -12 158q-2 74 1 141.5t9 128.5q119 115 170.5 223.5t28.5 178.5q-20 61 -69.5 56t-105.5 -67.5t-107.5 -181.5t-73.5 -285 q-102 -80 -234 -139q-80 -37 -147 -74q-193 51 -376 66.5t-340 -10t-276.5 -95t-181.5 -188.5q-35 -68 -31.5 -123zM1288 723l109 53q57 27 107 56.5t98 62.5q-6 -72 -7 -150q0 -29 1 -55t3 -53q-66 16 -139 36.5t-155 45.5q-4 0 -17 4zM1765.5 1498.5q-16.5 15.5 20.5 64.5 t66.5 65.5t53 12t41 -20.5t33 -30.5t27.5 -19.5t25 13q18 27 32.5 34t20.5 0t3 -24.5t-17 -38.5q-27 -35 -50.5 -45t-46 -6t-43 16.5t-40 21.5t-37 10t-33.5 -19q-39 -49 -55.5 -33.5zM1778 1106q14 98 36.5 169t45 110.5t40 45t23.5 -27.5q8 -39 -26.5 -120t-118.5 -177z " />
<glyph unicode="&#xc4;" horiz-adv-x="2238" d="M21.5 389q-3.5 55 31.5 123q61 119 181 188.5t277 95t340 10.5t376 -67q68 37 147 74q131 59 234 139q23 166 74 285t107 181.5t105.5 67.5t69.5 -56q23 -70 -28.5 -178.5t-170.5 -223.5q-6 -61 -9 -129t-1 -141q2 -84 12 -158q334 -61 400 33q10 14 21.5 8t19.5 -22.5 t9 -39t-7 -38.5q-16 -33 -54 -46.5t-94.5 -12.5t-128 15.5t-155.5 34.5q20 -119 58 -203.5t86 -139t104.5 -81t113.5 -26.5q29 0 44.5 -8t15.5 -18.5t-14.5 -20.5t-45.5 -15q-61 -8 -143 15.5t-161 87t-142.5 174.5t-87.5 278q-78 20 -158 41t-166 41l-84 17 q-162 -90 -262 -174t-154.5 -159t-68 -138.5t2 -111.5t53.5 -81t87 -45q29 -8 23.5 -27.5t-35 -33t-81.5 -14.5t-118 30q-59 27 -89 95.5t9 168t169 227.5t390 273q-156 20 -310.5 17t-287.5 -35.5t-233 -96t-150 -161.5q-31 -59 -9 -89t62 -28t81.5 34.5t54.5 98.5 q4 25 21.5 27t33.5 -9.5t24.5 -35t-5.5 -50.5q-31 -61 -79 -93t-99.5 -37t-98.5 13.5t-75.5 56.5t-32 93zM1288 723q13 -4 17 -4q82 -25 155.5 -45.5t138.5 -36.5q-2 27 -3 53.5t-1 54.5q0 78 7 150q-47 -33 -97.5 -62.5t-107.5 -56.5zM1763 1585q0 27 20.5 45.5t51.5 18.5 q33 0 53.5 -18.5t20.5 -45.5t-20.5 -45t-53.5 -18q-31 0 -51.5 18t-20.5 45zM1778 1106q84 96 118.5 177t26.5 120q-6 33 -23.5 27.5t-40 -45t-45 -110.5t-36.5 -169zM1939 1593q0 25 20.5 43.5t51.5 18.5q33 0 53.5 -18.5t20.5 -43.5q0 -27 -20.5 -46t-53.5 -19 q-31 0 -51.5 19t-20.5 46z" />
<glyph unicode="&#xc5;" horiz-adv-x="2238" d="M21.5 389q-3.5 55 31.5 123q61 119 181 188.5t277 95t340 10.5t376 -67q68 37 147 74q131 59 234 139q23 166 74 285t107 181.5t105.5 67.5t69.5 -56q23 -70 -28.5 -178.5t-170.5 -223.5q-6 -61 -9 -129t-1 -141q2 -84 12 -158q334 -61 400 33q10 14 21.5 8t19.5 -22.5 t9 -39t-7 -38.5q-16 -33 -54 -46.5t-94.5 -12.5t-128 15.5t-155.5 34.5q20 -119 58 -203.5t86 -139t104.5 -81t113.5 -26.5q29 0 44.5 -8t15.5 -18.5t-14.5 -20.5t-45.5 -15q-61 -8 -143 15.5t-161 87t-142.5 174.5t-87.5 278q-78 20 -158 41t-166 41l-84 17 q-162 -90 -262 -174t-154.5 -159t-68 -138.5t2 -111.5t53.5 -81t87 -45q29 -8 23.5 -27.5t-35 -33t-81.5 -14.5t-118 30q-59 27 -89 95.5t9 168t169 227.5t390 273q-156 20 -310.5 17t-287.5 -35.5t-233 -96t-150 -161.5q-31 -59 -9 -89t62 -28t81.5 34.5t54.5 98.5 q4 25 21.5 27t33.5 -9.5t24.5 -35t-5.5 -50.5q-31 -61 -79 -93t-99.5 -37t-98.5 13.5t-75.5 56.5t-32 93zM1288 723q13 -4 17 -4q82 -25 155.5 -45.5t138.5 -36.5q-2 27 -3 53.5t-1 54.5q0 78 7 150q-47 -33 -97.5 -62.5t-107.5 -56.5zM1778 1106q84 96 118.5 177t26.5 120 q-6 33 -23.5 27.5t-40 -45t-45 -110.5t-36.5 -169zM1872 1614q0 43 37 72.5t90 29.5t91 -29.5t38 -72.5t-38 -73t-91 -30t-90 30t-37 73zM1929 1618q0 -23 21.5 -38t50.5 -15q31 0 53.5 15t22.5 38t-22.5 39t-53.5 16q-29 0 -50.5 -16t-21.5 -39z" />
<glyph unicode="&#xc6;" horiz-adv-x="2355" d="M91 244.5q-11 56.5 15 130.5q47 137 165 227t282 136t361.5 50.5t406.5 -28.5l72 -12q150 72 253 160.5t169 174.5q10 16 18 29.5t14 24.5q-133 59 -234.5 57t-166 -49t-89 -132t-5.5 -190q4 -25 -17.5 -27.5t-46 14.5t-44 55t-13.5 96q8 68 71.5 140.5t168 119.5 t241.5 55t295 -49q113 -43 225.5 -60.5t208.5 -11.5t171 34t114 73q16 20 25.5 16t5.5 -25.5t-27 -56.5t-68 -76q-47 -41 -126.5 -71.5t-180 -37.5t-217.5 14.5t-235 84.5h-2l-9 -20q-41 -94 -76.5 -190.5t-64.5 -192.5q381 -29 438 86q8 18 20.5 13t24 -21.5t15.5 -39 t-2 -40.5q-14 -41 -57.5 -59.5t-111 -23t-155.5 3t-190 19.5q-29 -106 -45.5 -203.5t-18.5 -176.5t11.5 -136t48.5 -82q45 -35 116.5 -18.5t155.5 78t176 164t178 243.5q25 43 45.5 60.5t29.5 14.5t6 -25.5t-26 -59.5q-102 -174 -217.5 -317.5t-226.5 -236.5t-210 -125 t-169 17q-49 37 -60 123t2 200t47 242t73 248q-66 8 -135.5 16.5t-141.5 16.5q-207 -102 -339 -199.5t-206.5 -183.5t-98 -159.5t-10.5 -131t53 -95.5t93 -52q29 -8 24 -27.5t-35 -34t-82 -14.5t-120 31q-41 20 -69.5 62t-29.5 101.5t34 137.5t120 168t226 192.5t356 212.5 q-172 12 -347 -6t-324.5 -70.5t-258 -136.5t-147.5 -202q-20 -66 4.5 -92.5t64 -19.5t76.5 47t41 108q2 25 18.5 29.5t34 -4.5t28.5 -30.5t1 -52.5q-23 -68 -66.5 -106.5t-94 -52t-99.5 -1t-83 47t-45 91zM1466 737q55 -8 105.5 -13t97.5 -9q23 66 44.5 123t39.5 104 q-59 -53 -130 -105.5t-157 -99.5z" />
<glyph unicode="&#xc7;" horiz-adv-x="1368" d="M29.5 801q-21.5 88 9.5 173t127 138q43 23 105.5 25t138 -8.5t161.5 -31t172 -40.5q92 72 187.5 126t188.5 83.5t179 33t160 -29.5q61 -27 85 -66t15.5 -80t-47 -80.5t-103.5 -68.5t-154 -41t-197 2q-80 10 -155 25.5t-144 31.5l-60 -49q-55 -49 -105 -104.5t-93 -114.5 q64 12 123 51q16 12 27.5 -5t11.5 -49t-13.5 -73t-44.5 -74.5t-81 -56t-124 -18.5q-12 0 -18 2q-39 -104 -36 -204.5t63 -186.5q66 -94 149.5 -121t169.5 -3.5t162 88t125 152.5t59 190.5t-35 203.5q-12 27 18.5 40t71.5 -0.5t77 -57.5t34 -132q-2 -106 -61.5 -204.5 t-151.5 -177.5t-205.5 -133t-224.5 -71q-12 -10 -27.5 -23.5t-28 -26.5t-19.5 -25.5t-1 -18.5q4 -6 23.5 -1t41 7t40 -7t22.5 -44q2 -25 -4 -53.5t-21.5 -52t-41 -40t-60.5 -16.5q-68 -2 -90 28t-20 60.5t16 49t20 -4.5t30 -36t49.5 -13t46 14.5t22.5 43.5t-12.5 31.5 t-33 -1.5t-37.5 -8t-30 12q-16 29 -1.5 63t38.5 56q-66 -2 -122 14.5t-97 51.5q-59 49 -86 114.5t-26 140t26 157.5t70 167q-98 37 -165 113t-88.5 164zM149 942q1 -51 33.5 -99t92 -83t131.5 -41q121 160 278 291q-84 20 -157.5 38.5t-135 25.5t-111.5 -1t-85 -39 q-47 -41 -46 -92zM823 1038q100 -25 191.5 -40t163.5 -11q119 6 166 36t38.5 62.5t-60.5 57t-134 18.5q-78 -4 -172 -33.5t-193 -89.5z" />
<glyph unicode="&#xc8;" horiz-adv-x="1191" d="M23 961q8 68 71.5 140.5t168 119.5t241.5 55t295 -49q113 -43 225.5 -60.5t208.5 -11.5t171 34t114 73q16 20 25 16t5 -25.5t-26.5 -56.5t-67.5 -76q-53 -47 -148.5 -79.5t-215.5 -32.5q-104 -41 -196.5 -83t-176.5 -83q115 -25 218 -22t169 52q43 31 51 18t-14.5 -48 t-73.5 -80t-129 -78q-33 -14 -78 -13t-94 13t-99.5 34.5t-93.5 49.5q-2 0 -6 -4q-51 -135 -84.5 -268.5t-45 -246t2 -193.5t56.5 -113q51 -37 135 -11.5t182 106.5t201.5 212t195.5 305q10 18 24.5 35.5t27 26t17.5 3t-2 -31t-31.5 -74.5t-74.5 -129q-102 -168 -215.5 -307 t-224 -229.5t-209 -121t-168.5 16.5q-43 31 -57 94.5t-9 147.5t26.5 182t50 197.5t62.5 192.5t65 169q-119 -59 -197 -80.5t-109 19.5q-31 39 -3 85t87.5 80.5t138 52t150.5 -0.5q33 66 55.5 95.5t32.5 32.5t10 -15.5t-14 -47.5q-10 -20 -18.5 -39.5t-16.5 -40.5l41 -10 q86 41 176 81t176 75q-72 8 -150.5 30.5t-156.5 65.5q-147 76 -258.5 83t-183.5 -39t-100.5 -133t-8.5 -198q4 -25 -17.5 -27.5t-46 14.5t-44 55t-12.5 96zM240 709q4 -10 26.5 -8.5t59 15t86 34t106.5 47.5q-51 18 -104.5 15t-95.5 -19.5t-64 -40t-14 -43.5zM725 1378 q-6 12 2 24.5t23.5 23t35 15.5t35.5 1t39 -16.5t46.5 -28t45 -31t33.5 -27.5q25 -23 19.5 -37t-58.5 3q-27 8 -62.5 15t-68.5 16.5t-58.5 19.5t-31.5 22z" />
<glyph unicode="&#xc9;" horiz-adv-x="1191" d="M23 961q8 68 71.5 140.5t168 119.5t241.5 55t295 -49q113 -43 225.5 -60.5t208.5 -11.5t171 34t114 73q16 20 25 16t5 -25.5t-26.5 -56.5t-67.5 -76q-53 -47 -148.5 -79.5t-215.5 -32.5q-104 -41 -196.5 -83t-176.5 -83q115 -25 218 -22t169 52q43 31 51 18t-14.5 -48 t-73.5 -80t-129 -78q-33 -14 -78 -13t-94 13t-99.5 34.5t-93.5 49.5q-2 0 -6 -4q-51 -135 -84.5 -268.5t-45 -246t2 -193.5t56.5 -113q51 -37 135 -11.5t182 106.5t201.5 212t195.5 305q10 18 24.5 35.5t27 26t17.5 3t-2 -31t-31.5 -74.5t-74.5 -129q-102 -168 -215.5 -307 t-224 -229.5t-209 -121t-168.5 16.5q-43 31 -57 94.5t-9 147.5t26.5 182t50 197.5t62.5 192.5t65 169q-119 -59 -197 -80.5t-109 19.5q-31 39 -3 85t87.5 80.5t138 52t150.5 -0.5q33 66 55.5 95.5t32.5 32.5t10 -15.5t-14 -47.5q-10 -20 -18.5 -39.5t-16.5 -40.5l41 -10 q86 41 176 81t176 75q-72 8 -150.5 30.5t-156.5 65.5q-147 76 -258.5 83t-183.5 -39t-100.5 -133t-8.5 -198q4 -25 -17.5 -27.5t-46 14.5t-44 55t-12.5 96zM240 709q4 -10 26.5 -8.5t59 15t86 34t106.5 47.5q-51 18 -104.5 15t-95.5 -19.5t-64 -40t-14 -43.5zM826.5 1251 q-5.5 14 19.5 37q12 12 33.5 27.5t45 31t46 27.5t39.5 17q16 4 35.5 -1.5t35 -15.5t23.5 -22.5t2 -24.5t-31.5 -22.5t-58.5 -19.5t-69 -16t-62 -16q-53 -16 -58.5 -2z" />
<glyph unicode="&#xca;" horiz-adv-x="1191" d="M23 961q8 68 71.5 140.5t168 119.5t241.5 55t295 -49q113 -43 225.5 -60.5t208.5 -11.5t171 34t114 73q16 20 25 16t5 -25.5t-26.5 -56.5t-67.5 -76q-53 -47 -148.5 -79.5t-215.5 -32.5q-104 -41 -196.5 -83t-176.5 -83q115 -25 218 -22t169 52q43 31 51 18t-14.5 -48 t-73.5 -80t-129 -78q-33 -14 -78 -13t-94 13t-99.5 34.5t-93.5 49.5q-2 0 -6 -4q-51 -135 -84.5 -268.5t-45 -246t2 -193.5t56.5 -113q51 -37 135 -11.5t182 106.5t201.5 212t195.5 305q10 18 24.5 35.5t27 26t17.5 3t-2 -31t-31.5 -74.5t-74.5 -129q-102 -168 -215.5 -307 t-224 -229.5t-209 -121t-168.5 16.5q-43 31 -57 94.5t-9 147.5t26.5 182t50 197.5t62.5 192.5t65 169q-119 -59 -197 -80.5t-109 19.5q-31 39 -3 85t87.5 80.5t138 52t150.5 -0.5q33 66 55.5 95.5t32.5 32.5t10 -15.5t-14 -47.5q-10 -20 -18.5 -39.5t-16.5 -40.5l41 -10 q86 41 176 81t176 75q-72 8 -150.5 30.5t-156.5 65.5q-147 76 -258.5 83t-183.5 -39t-100.5 -133t-8.5 -198q4 -25 -17.5 -27.5t-46 14.5t-44 55t-12.5 96zM240 709q4 -10 26.5 -8.5t59 15t86 34t106.5 47.5q-51 18 -104.5 15t-95.5 -19.5t-64 -40t-14 -43.5zM764 1300 q8 12 25.5 29t38 35t41 35.5t32.5 30.5q6 6 20.5 16t31 17t35 5t34.5 -20q37 -45 37 -85t-16.5 -66.5t-36 -34t-21.5 15.5q-2 29 -17.5 56.5t-37.5 54.5q-23 -16 -38 -39t-28 -50q-10 -18 -29.5 -26t-38 -6t-29.5 10t-3 22z" />
<glyph unicode="&#xcb;" horiz-adv-x="1191" d="M23 961q8 68 71.5 140.5t168 119.5t241.5 55t295 -49q113 -43 225.5 -60.5t208.5 -11.5t171 34t114 73q16 20 25 16t5 -25.5t-26.5 -56.5t-67.5 -76q-53 -47 -148.5 -79.5t-215.5 -32.5q-104 -41 -196.5 -83t-176.5 -83q115 -25 218 -22t169 52q43 31 51 18t-14.5 -48 t-73.5 -80t-129 -78q-33 -14 -78 -13t-94 13t-99.5 34.5t-93.5 49.5q-2 0 -6 -4q-51 -135 -84.5 -268.5t-45 -246t2 -193.5t56.5 -113q51 -37 135 -11.5t182 106.5t201.5 212t195.5 305q10 18 24.5 35.5t27 26t17.5 3t-2 -31t-31.5 -74.5t-74.5 -129q-102 -168 -215.5 -307 t-224 -229.5t-209 -121t-168.5 16.5q-43 31 -57 94.5t-9 147.5t26.5 182t50 197.5t62.5 192.5t65 169q-119 -59 -197 -80.5t-109 19.5q-31 39 -3 85t87.5 80.5t138 52t150.5 -0.5q33 66 55.5 95.5t32.5 32.5t10 -15.5t-14 -47.5q-10 -20 -18.5 -39.5t-16.5 -40.5l41 -10 q86 41 176 81t176 75q-72 8 -150.5 30.5t-156.5 65.5q-147 76 -258.5 83t-183.5 -39t-100.5 -133t-8.5 -198q4 -25 -17.5 -27.5t-46 14.5t-44 55t-12.5 96zM240 709q4 -10 26.5 -8.5t59 15t86 34t106.5 47.5q-51 18 -104.5 15t-95.5 -19.5t-64 -40t-14 -43.5zM772 1348 q0 27 20.5 45t51.5 18q33 0 53.5 -18.5t20.5 -44.5q0 -27 -20.5 -45.5t-53.5 -18.5q-31 0 -51.5 18.5t-20.5 45.5zM948 1356q0 25 20.5 43t51.5 18q33 0 53.5 -18.5t20.5 -42.5q0 -27 -20.5 -46.5t-53.5 -19.5q-31 0 -51.5 19.5t-20.5 46.5z" />
<glyph unicode="&#xcc;" horiz-adv-x="745" d="M21.5 -31.5q-1.5 15.5 11 21.5t39.5 -6q49 -25 99 -24t102.5 16.5t103.5 39t102 45.5q-35 39 -67.5 94.5t-49.5 108.5q-10 39 -12 108.5t5 156.5t24.5 184.5t44.5 191.5q-72 -12 -136.5 0.5t-113.5 40t-80 67.5t-35 83q-10 78 10.5 132t46 81.5t45 25.5t9.5 -37 q-18 -57 3.5 -108t65.5 -89t102 -61.5t116 -27.5q43 123 106 209q63 84 120.5 95t82.5 -27t1 -111.5t-124 -159.5q-29 -25 -55.5 -42.5t-55.5 -31.5q-18 -109 -19 -230.5t7 -238.5t20.5 -217t22.5 -164q61 18 117.5 13t110.5 -54q37 -35 55 -82t21 -87t-4 -65.5t-21 -19.5 q-16 8 -40 40t-68 60.5t-115.5 40t-186.5 -21.5q-53 -16 -98 -28.5t-88 -17.5t-84 0t-86 28q-25 12 -39 32.5t-15.5 36zM440 1475q-6 12 2.5 24t23.5 22.5t34.5 15.5t36.5 1q16 -4 38.5 -16.5t46 -27.5t45 -30.5t33.5 -27.5q25 -23 20 -37.5t-58 2.5q-27 8 -63 15 t-68.5 16.5t-58.5 19.5t-32 23zM549 1024q20 6 45 23q66 49 98.5 97t36.5 76.5t-16.5 30.5t-61.5 -37q-35 -35 -60.5 -83t-41.5 -107z" />
<glyph unicode="&#xcd;" horiz-adv-x="745" d="M21.5 -31.5q-1.5 15.5 11 21.5t39.5 -6q49 -25 99 -24t102.5 16.5t103.5 39t102 45.5q-35 39 -67.5 94.5t-49.5 108.5q-10 39 -12 108.5t5 156.5t24.5 184.5t44.5 191.5q-72 -12 -136.5 0.5t-113.5 40t-80 67.5t-35 83q-10 78 10.5 132t46 81.5t45 25.5t9.5 -37 q-18 -57 3.5 -108t65.5 -89t102 -61.5t116 -27.5q43 123 106 209q63 84 120.5 95t82.5 -27t1 -111.5t-124 -159.5q-29 -25 -55.5 -42.5t-55.5 -31.5q-18 -109 -19 -230.5t7 -238.5t20.5 -217t22.5 -164q61 18 117.5 13t110.5 -54q37 -35 55 -82t21 -87t-4 -65.5t-21 -19.5 q-16 8 -40 40t-68 60.5t-115.5 40t-186.5 -21.5q-53 -16 -98 -28.5t-88 -17.5t-84 0t-86 28q-25 12 -39 32.5t-15.5 36zM519.5 1370q-5.5 14 19.5 37q12 12 33.5 27.5t45 31t46 27.5t38.5 16t36 -1t35 -15t23.5 -22.5t2.5 -24.5t-32 -22.5t-58.5 -19.5t-68.5 -16.5 t-62 -15.5q-53 -16 -58.5 -2zM549 1024q20 6 45 23q66 49 98.5 97t36.5 76.5t-16.5 30.5t-61.5 -37q-35 -35 -60.5 -83t-41.5 -107z" />
<glyph unicode="&#xce;" horiz-adv-x="745" d="M21.5 -31.5q-1.5 15.5 11 21.5t39.5 -6q49 -25 99 -24t102.5 16.5t103.5 39t102 45.5q-35 39 -67.5 94.5t-49.5 108.5q-10 39 -12 108.5t5 156.5t24.5 184.5t44.5 191.5q-72 -12 -136.5 0.5t-113.5 40t-80 67.5t-35 83q-10 78 10.5 132t46 81.5t45 25.5t9.5 -37 q-18 -57 3.5 -108t65.5 -89t102 -61.5t116 -27.5q43 123 106 209q63 84 120.5 95t82.5 -27t1 -111.5t-124 -159.5q-29 -25 -55.5 -42.5t-55.5 -31.5q-18 -109 -19 -230.5t7 -238.5t20.5 -217t22.5 -164q61 18 117.5 13t110.5 -54q37 -35 55 -82t21 -87t-4 -65.5t-21 -19.5 q-16 8 -40 40t-68 60.5t-115.5 40t-186.5 -21.5q-53 -16 -98 -28.5t-88 -17.5t-84 0t-86 28q-25 12 -39 32.5t-15.5 36zM446 1409q8 12 25.5 28.5t38 35t41 36t33.5 29.5q6 6 20 16.5t30.5 17.5t35.5 4.5t35 -20.5q37 -45 36.5 -84.5t-16.5 -66.5t-35.5 -34t-21.5 15 q-2 29 -17.5 56.5t-38.5 54.5q-23 -16 -38 -38.5t-27 -49.5q-10 -18 -29.5 -26.5t-38 -6.5t-30 10.5t-3.5 22.5zM549 1024q20 6 45 23q66 49 98.5 97t36.5 76.5t-16.5 30.5t-61.5 -37q-35 -35 -60.5 -83t-41.5 -107z" />
<glyph unicode="&#xcf;" horiz-adv-x="745" d="M21.5 -31.5q-1.5 15.5 11 21.5t39.5 -6q49 -25 99 -24t102.5 16.5t103.5 39t102 45.5q-35 39 -67.5 94.5t-49.5 108.5q-10 39 -12 108.5t5 156.5t24.5 184.5t44.5 191.5q-72 -12 -136.5 0.5t-113.5 40t-80 67.5t-35 83q-10 78 10.5 132t46 81.5t45 25.5t9.5 -37 q-18 -57 3.5 -108t65.5 -89t102 -61.5t116 -27.5q43 123 106 209q63 84 120.5 95t82.5 -27t1 -111.5t-124 -159.5q-29 -25 -55.5 -42.5t-55.5 -31.5q-18 -109 -19 -230.5t7 -238.5t20.5 -217t22.5 -164q61 18 117.5 13t110.5 -54q37 -35 55 -82t21 -87t-4 -65.5t-21 -19.5 q-16 8 -40 40t-68 60.5t-115.5 40t-186.5 -21.5q-53 -16 -98 -28.5t-88 -17.5t-84 0t-86 28q-25 12 -39 32.5t-15.5 36zM500 1446q0 27 20.5 45t50.5 18q33 0 53.5 -18t20.5 -45t-20.5 -45.5t-53.5 -18.5q-31 0 -51 18.5t-20 45.5zM549 1024q20 6 45 23q66 49 98.5 97 t36.5 76.5t-16.5 30.5t-61.5 -37q-35 -35 -60.5 -83t-41.5 -107zM676 1454q0 25 20.5 43.5t51.5 18.5q33 0 53 -18.5t20 -43.5q0 -27 -20.5 -46t-52.5 -19q-31 0 -51.5 19t-20.5 46z" />
<glyph unicode="&#xd0;" horiz-adv-x="1581" d="M27.5 -61.5q-13.5 67.5 2 129t50.5 113.5t67.5 80t53 26t8.5 -45q-23 -92 -2.5 -166t72 -119t123 -57.5t151.5 18.5q127 51 256 144.5t244.5 209t210 242.5t154 243.5t75.5 214t-23 154.5t-140 80t-232 21t-274.5 -25.5t-268.5 -59.5t-214 -80t-110 -87q-10 -20 12.5 -48 t66.5 -62t103.5 -77t125.5 -94q23 4 46 6t50 5q-14 53 -16.5 98t14.5 84q16 43 52 87t71 71.5t59 29.5t16 -41q-10 -53 -16 -139t-2 -184q23 2 41 2h33q39 0 61.5 -8.5t24.5 -19.5t-17.5 -21.5t-64.5 -12.5l-74 -4q6 -102 23.5 -196.5t50.5 -153.5q27 -53 25.5 -75.5 t-22 -11.5t-55 56t-73.5 125q-4 10 -10 19.5t-11 19.5q-49 53 -96 98t-92 82l-90 -24q-37 -12 -54.5 -6t-17.5 23.5t19.5 39t56.5 37.5q-96 72 -172 111.5t-129 65.5t-84 45.5t-37 51.5q-8 39 52.5 80t165 80t241.5 75t284.5 63.5t295 44t271.5 18.5t213 -13.5t122 -52.5 t1 -138t-109 -235.5t-190.5 -290t-247.5 -302t-279.5 -270.5t-285 -196.5t-263 -80.5t-216.5 78q-63 57 -76.5 124.5zM625 623l59 -56l-25 62z" />
</font>
</defs>
</svg>
